<ttFont>
<head>
    <!-- Most of this table will be recalculated by the compiler -->
    <tableVersion value="1.0"/>
    <fontRevision value="1.002"/>
    <checkSumAdjustment value="0x352c0b72"/>
    <magicNumber value="0x5f0f3cf5"/>
    <flags value="00000000 00000011"/>
    <unitsPerEm value="1000"/>
    <created value="Sun Jan 10 02:32:34 2016"/>
    <modified value="Sun Jan 10 02:32:37 2016"/>
    <xMin value="-96"/>
    <yMin value="-285"/>
    <xMax value="990"/>
    <yMax value="1138"/>
    <macStyle value="00000000 00000000"/>
    <lowestRecPPEM value="6"/>
    <fontDirectionHint value="2"/>
    <indexToLocFormat value="0"/>
    <glyphDataFormat value="0"/>
  </head>
    <TTGlyph name=".notdef" xMin="0" yMin="-200" xMax="500" yMax="800">
      <contour>
        <pt x="0" y="-200" on="1"/>
        <pt x="0" y="800" on="1"/>
        <pt x="500" y="800" on="1"/>
        <pt x="500" y="-200" on="1"/>
      </contour>
      <contour>
        <pt x="71" y="750" on="1"/>
        <pt x="250" y="360" on="1"/>
        <pt x="429" y="750" on="1"/>
      </contour>
      <contour>
        <pt x="450" y="676" on="1"/>
        <pt x="278" y="300" on="1"/>
        <pt x="450" y="-76" on="1"/>
      </contour>
      <contour>
        <pt x="50" y="-76" on="1"/>
        <pt x="222" y="300" on="1"/>
        <pt x="50" y="676" on="1"/>
      </contour>
      <contour>
        <pt x="250" y="240" on="1"/>
        <pt x="71" y="-150" on="1"/>
        <pt x="429" y="-150" on="1"/>
      </contour>
    </TTGlyph>
    <TTGlyph name="A" xMin="35" yMin="-4" xMax="552" yMax="621">
      <contour>
        <pt x="467" y="-4" on="1"/>
        <pt x="453" y="45" on="0"/>
        <pt x="423" y="142" on="0"/>
        <pt x="408" y="191" on="1"/>
        <pt x="176" y="191" on="1"/>
        <pt x="161" y="143" on="0"/>
        <pt x="132" y="48" on="0"/>
        <pt x="118" y="0" on="1"/>
        <pt x="35" y="0" on="1"/>
        <pt x="82" y="154" on="0"/>
        <pt x="182" y="467" on="0"/>
        <pt x="235" y="621" on="1"/>
        <pt x="352" y="621" on="1"/>
        <pt x="405" y="467" on="0"/>
        <pt x="505" y="158" on="0"/>
        <pt x="552" y="4" on="1"/>
      </contour>
      <contour>
        <pt x="288" y="543" on="1"/>
        <pt x="265" y="472" on="0"/>
        <pt x="218" y="328" on="0"/>
        <pt x="196" y="257" on="1"/>
        <pt x="387" y="257" on="1"/>
        <pt x="365" y="328" on="0"/>
        <pt x="318" y="472" on="0"/>
        <pt x="295" y="543" on="1"/>
      </contour>
    </TTGlyph>
    <TTGlyph name="A.sc" xMin="34" yMin="-3" xMax="499" yMax="528">
      <contour>
        <pt x="415" y="-3" on="1"/>
        <pt x="403" y="37" on="0"/>
        <pt x="378" y="117" on="0"/>
        <pt x="365" y="157" on="1"/>
        <pt x="164" y="157" on="1"/>
        <pt x="152" y="118" on="0"/>
        <pt x="128" y="39" on="0"/>
        <pt x="116" y="0" on="1"/>
        <pt x="34" y="0" on="1"/>
        <pt x="75" y="131" on="0"/>
        <pt x="164" y="397" on="0"/>
        <pt x="211" y="528" on="1"/>
        <pt x="324" y="528" on="1"/>
        <pt x="370" y="397" on="0"/>
        <pt x="458" y="134" on="0"/>
        <pt x="499" y="3" on="1"/>
      </contour>
      <contour>
        <pt x="262" y="456" on="1"/>
        <pt x="242" y="397" on="0"/>
        <pt x="203" y="278" on="0"/>
        <pt x="184" y="218" on="1"/>
        <pt x="346" y="218" on="1"/>
        <pt x="327" y="277" on="0"/>
        <pt x="288" y="397" on="0"/>
        <pt x="269" y="456" on="1"/>
      </contour>
    </TTGlyph>
    <TTGlyph name="AE" xMin="2" yMin="0" xMax="764" yMax="620">
      <contour>
        <pt x="390" y="544" on="1"/>
        <pt x="348" y="471" on="0"/>
        <pt x="264" y="322" on="0"/>
        <pt x="223" y="247" on="1"/>
        <pt x="397" y="247" on="1"/>
        <pt x="397" y="544" on="1"/>
      </contour>
      <contour>
        <pt x="397" y="0" on="1"/>
        <pt x="397" y="181" on="1"/>
        <pt x="186" y="181" on="1"/>
        <pt x="161" y="135" on="0"/>
        <pt x="112" y="45" on="0"/>
        <pt x="88" y="0" on="1"/>
        <pt x="2" y="0" on="1"/>
        <pt x="85" y="154" on="0"/>
        <pt x="260" y="466" on="0"/>
        <pt x="352" y="620" on="1"/>
        <pt x="759" y="620" on="1"/>
        <pt x="759" y="544" on="1"/>
        <pt x="482" y="544" on="1"/>
        <pt x="482" y="346" on="1"/>
        <pt x="722" y="346" on="1"/>
        <pt x="722" y="280" on="1"/>
        <pt x="482" y="280" on="1"/>
        <pt x="482" y="76" on="1"/>
        <pt x="764" y="76" on="1"/>
        <pt x="755" y="0" on="1"/>
      </contour>
    </TTGlyph>
    <TTGlyph name="AE.sc" xMin="-1" yMin="0" xMax="688" yMax="527">
      <contour>
        <pt x="350" y="458" on="1"/>
        <pt x="315" y="398" on="0"/>
        <pt x="243" y="275" on="0"/>
        <pt x="207" y="214" on="1"/>
        <pt x="357" y="214" on="1"/>
        <pt x="357" y="458" on="1"/>
      </contour>
      <contour>
        <pt x="357" y="0" on="1"/>
        <pt x="357" y="153" on="1"/>
        <pt x="172" y="153" on="1"/>
        <pt x="150" y="114" on="0"/>
        <pt x="107" y="37" on="0"/>
        <pt x="86" y="0" on="1"/>
        <pt x="-1" y="0" on="1"/>
        <pt x="72" y="131" on="0"/>
        <pt x="228" y="396" on="0"/>
        <pt x="309" y="527" on="1"/>
        <pt x="684" y="527" on="1"/>
        <pt x="684" y="456" on="1"/>
        <pt x="441" y="456" on="1"/>
        <pt x="441" y="296" on="1"/>
        <pt x="650" y="296" on="1"/>
        <pt x="650" y="236" on="1"/>
        <pt x="441" y="236" on="1"/>
        <pt x="441" y="71" on="1"/>
        <pt x="688" y="71" on="1"/>
        <pt x="680" y="0" on="1"/>
      </contour>
    </TTGlyph>
    <TTGlyph name="AEacute" xMin="2" yMin="0" xMax="764" yMax="904">
      <contour>
        <pt x="387" y="727" on="1"/>
        <pt x="405" y="741" on="0"/>
        <pt x="454" y="784" on="0"/>
        <pt x="503" y="832" on="0"/>
        <pt x="550" y="883" on="0"/>
        <pt x="567" y="904" on="1"/>
        <pt x="634" y="838" on="1"/>
        <pt x="613" y="819" on="0"/>
        <pt x="556" y="776" on="0"/>
        <pt x="494" y="735" on="0"/>
        <pt x="434" y="699" on="0"/>
        <pt x="411" y="687" on="1"/>
      </contour>
      <contour>
        <pt x="390" y="544" on="1"/>
        <pt x="348" y="471" on="0"/>
        <pt x="264" y="322" on="0"/>
        <pt x="223" y="247" on="1"/>
        <pt x="397" y="247" on="1"/>
        <pt x="397" y="544" on="1"/>
      </contour>
      <contour>
        <pt x="397" y="0" on="1"/>
        <pt x="397" y="181" on="1"/>
        <pt x="186" y="181" on="1"/>
        <pt x="161" y="135" on="0"/>
        <pt x="112" y="45" on="0"/>
        <pt x="88" y="0" on="1"/>
        <pt x="2" y="0" on="1"/>
        <pt x="85" y="154" on="0"/>
        <pt x="260" y="466" on="0"/>
        <pt x="352" y="620" on="1"/>
        <pt x="759" y="620" on="1"/>
        <pt x="759" y="544" on="1"/>
        <pt x="482" y="544" on="1"/>
        <pt x="482" y="346" on="1"/>
        <pt x="722" y="346" on="1"/>
        <pt x="722" y="280" on="1"/>
        <pt x="482" y="280" on="1"/>
        <pt x="482" y="76" on="1"/>
        <pt x="764" y="76" on="1"/>
        <pt x="755" y="0" on="1"/>
      </contour>
    </TTGlyph>
    <TTGlyph name="AEacute.sc" xMin="-1" yMin="0" xMax="688" yMax="811">
      <contour>
        <pt x="346" y="634" on="1"/>
        <pt x="364" y="648" on="0"/>
        <pt x="413" y="691" on="0"/>
        <pt x="462" y="739" on="0"/>
        <pt x="509" y="790" on="0"/>
        <pt x="526" y="811" on="1"/>
        <pt x="593" y="745" on="1"/>
        <pt x="572" y="726" on="0"/>
        <pt x="515" y="683" on="0"/>
        <pt x="453" y="642" on="0"/>
        <pt x="393" y="606" on="0"/>
        <pt x="370" y="594" on="1"/>
      </contour>
      <contour>
        <pt x="350" y="458" on="1"/>
        <pt x="315" y="398" on="0"/>
        <pt x="243" y="275" on="0"/>
        <pt x="207" y="214" on="1"/>
        <pt x="357" y="214" on="1"/>
        <pt x="357" y="458" on="1"/>
      </contour>
      <contour>
        <pt x="357" y="0" on="1"/>
        <pt x="357" y="153" on="1"/>
        <pt x="172" y="153" on="1"/>
        <pt x="150" y="114" on="0"/>
        <pt x="107" y="37" on="0"/>
        <pt x="86" y="0" on="1"/>
        <pt x="-1" y="0" on="1"/>
        <pt x="72" y="131" on="0"/>
        <pt x="228" y="396" on="0"/>
        <pt x="309" y="527" on="1"/>
        <pt x="684" y="527" on="1"/>
        <pt x="684" y="456" on="1"/>
        <pt x="441" y="456" on="1"/>
        <pt x="441" y="296" on="1"/>
        <pt x="650" y="296" on="1"/>
        <pt x="650" y="236" on="1"/>
        <pt x="441" y="236" on="1"/>
        <pt x="441" y="71" on="1"/>
        <pt x="688" y="71" on="1"/>
        <pt x="680" y="0" on="1"/>
      </contour>
    </TTGlyph>
    <TTGlyph name="Aacute" xMin="35" yMin="-4" xMax="552" yMax="904">
      <contour>
        <pt x="190" y="727" on="1"/>
        <pt x="208" y="741" on="0"/>
        <pt x="257" y="784" on="0"/>
        <pt x="306" y="832" on="0"/>
        <pt x="353" y="883" on="0"/>
        <pt x="370" y="904" on="1"/>
        <pt x="437" y="838" on="1"/>
        <pt x="416" y="819" on="0"/>
        <pt x="359" y="776" on="0"/>
        <pt x="297" y="735" on="0"/>
        <pt x="237" y="699" on="0"/>
        <pt x="214" y="687" on="1"/>
      </contour>
      <contour>
        <pt x="467" y="-4" on="1"/>
        <pt x="453" y="45" on="0"/>
        <pt x="423" y="142" on="0"/>
        <pt x="408" y="191" on="1"/>
        <pt x="176" y="191" on="1"/>
        <pt x="161" y="143" on="0"/>
        <pt x="132" y="48" on="0"/>
        <pt x="118" y="0" on="1"/>
        <pt x="35" y="0" on="1"/>
        <pt x="82" y="154" on="0"/>
        <pt x="182" y="467" on="0"/>
        <pt x="235" y="621" on="1"/>
        <pt x="352" y="621" on="1"/>
        <pt x="405" y="467" on="0"/>
        <pt x="505" y="158" on="0"/>
        <pt x="552" y="4" on="1"/>
      </contour>
      <contour>
        <pt x="288" y="543" on="1"/>
        <pt x="265" y="472" on="0"/>
        <pt x="218" y="328" on="0"/>
        <pt x="196" y="257" on="1"/>
        <pt x="387" y="257" on="1"/>
        <pt x="365" y="328" on="0"/>
        <pt x="318" y="472" on="0"/>
        <pt x="295" y="543" on="1"/>
      </contour>
    </TTGlyph>
    <TTGlyph name="Aacute.sc" xMin="34" yMin="-3" xMax="499" yMax="811">
      <contour>
        <pt x="163" y="634" on="1"/>
        <pt x="181" y="648" on="0"/>
        <pt x="230" y="691" on="0"/>
        <pt x="279" y="739" on="0"/>
        <pt x="326" y="790" on="0"/>
        <pt x="343" y="811" on="1"/>
        <pt x="410" y="745" on="1"/>
        <pt x="389" y="726" on="0"/>
        <pt x="332" y="683" on="0"/>
        <pt x="270" y="642" on="0"/>
        <pt x="210" y="606" on="0"/>
        <pt x="187" y="594" on="1"/>
      </contour>
      <contour>
        <pt x="415" y="-3" on="1"/>
        <pt x="403" y="37" on="0"/>
        <pt x="378" y="117" on="0"/>
        <pt x="365" y="157" on="1"/>
        <pt x="164" y="157" on="1"/>
        <pt x="152" y="118" on="0"/>
        <pt x="128" y="39" on="0"/>
        <pt x="116" y="0" on="1"/>
        <pt x="34" y="0" on="1"/>
        <pt x="75" y="131" on="0"/>
        <pt x="164" y="397" on="0"/>
        <pt x="211" y="528" on="1"/>
        <pt x="324" y="528" on="1"/>
        <pt x="370" y="397" on="0"/>
        <pt x="458" y="134" on="0"/>
        <pt x="499" y="3" on="1"/>
      </contour>
      <contour>
        <pt x="262" y="456" on="1"/>
        <pt x="242" y="397" on="0"/>
        <pt x="203" y="278" on="0"/>
        <pt x="184" y="218" on="1"/>
        <pt x="346" y="218" on="1"/>
        <pt x="327" y="277" on="0"/>
        <pt x="288" y="397" on="0"/>
        <pt x="269" y="456" on="1"/>
      </contour>
    </TTGlyph>
    <TTGlyph name="Abreve" xMin="35" yMin="-4" xMax="552" yMax="874">
      <contour>
        <pt x="291" y="693" on="1"/>
        <pt x="244" y="693" on="0"/>
        <pt x="155" y="763" on="0"/>
        <pt x="118" y="835" on="1"/>
        <pt x="178" y="874" on="1"/>
        <pt x="212" y="815" on="0"/>
        <pt x="266" y="763" on="0"/>
        <pt x="299" y="763" on="1"/>
        <pt x="333" y="763" on="0"/>
        <pt x="391" y="818" on="0"/>
        <pt x="422" y="869" on="1"/>
        <pt x="472" y="841" on="1"/>
        <pt x="432" y="772" on="0"/>
        <pt x="339" y="693" on="0"/>
      </contour>
      <contour>
        <pt x="467" y="-4" on="1"/>
        <pt x="453" y="45" on="0"/>
        <pt x="423" y="142" on="0"/>
        <pt x="408" y="191" on="1"/>
        <pt x="176" y="191" on="1"/>
        <pt x="161" y="143" on="0"/>
        <pt x="132" y="48" on="0"/>
        <pt x="118" y="0" on="1"/>
        <pt x="35" y="0" on="1"/>
        <pt x="82" y="154" on="0"/>
        <pt x="182" y="467" on="0"/>
        <pt x="235" y="621" on="1"/>
        <pt x="352" y="621" on="1"/>
        <pt x="405" y="467" on="0"/>
        <pt x="505" y="158" on="0"/>
        <pt x="552" y="4" on="1"/>
      </contour>
      <contour>
        <pt x="288" y="543" on="1"/>
        <pt x="265" y="472" on="0"/>
        <pt x="218" y="328" on="0"/>
        <pt x="196" y="257" on="1"/>
        <pt x="387" y="257" on="1"/>
        <pt x="365" y="328" on="0"/>
        <pt x="318" y="472" on="0"/>
        <pt x="295" y="543" on="1"/>
      </contour>
    </TTGlyph>
    <TTGlyph name="Abreve.sc" xMin="34" yMin="-3" xMax="499" yMax="781">
      <contour>
        <pt x="265" y="600" on="1"/>
        <pt x="218" y="600" on="0"/>
        <pt x="129" y="670" on="0"/>
        <pt x="92" y="742" on="1"/>
        <pt x="152" y="781" on="1"/>
        <pt x="186" y="722" on="0"/>
        <pt x="240" y="670" on="0"/>
        <pt x="273" y="670" on="1"/>
        <pt x="307" y="670" on="0"/>
        <pt x="365" y="725" on="0"/>
        <pt x="396" y="776" on="1"/>
        <pt x="446" y="748" on="1"/>
        <pt x="406" y="679" on="0"/>
        <pt x="313" y="600" on="0"/>
      </contour>
      <contour>
        <pt x="415" y="-3" on="1"/>
        <pt x="403" y="37" on="0"/>
        <pt x="378" y="117" on="0"/>
        <pt x="365" y="157" on="1"/>
        <pt x="164" y="157" on="1"/>
        <pt x="152" y="118" on="0"/>
        <pt x="128" y="39" on="0"/>
        <pt x="116" y="0" on="1"/>
        <pt x="34" y="0" on="1"/>
        <pt x="75" y="131" on="0"/>
        <pt x="164" y="397" on="0"/>
        <pt x="211" y="528" on="1"/>
        <pt x="324" y="528" on="1"/>
        <pt x="370" y="397" on="0"/>
        <pt x="458" y="134" on="0"/>
        <pt x="499" y="3" on="1"/>
      </contour>
      <contour>
        <pt x="262" y="456" on="1"/>
        <pt x="242" y="397" on="0"/>
        <pt x="203" y="278" on="0"/>
        <pt x="184" y="218" on="1"/>
        <pt x="346" y="218" on="1"/>
        <pt x="327" y="277" on="0"/>
        <pt x="288" y="397" on="0"/>
        <pt x="269" y="456" on="1"/>
      </contour>
    </TTGlyph>
    <TTGlyph name="Acircumflex" xMin="35" yMin="-4" xMax="552" yMax="886">
      <contour>
        <pt x="409" y="690" on="1"/>
        <pt x="289" y="798" on="1"/>
        <pt x="172" y="691" on="1"/>
        <pt x="130" y="732" on="1"/>
        <pt x="295" y="886" on="1"/>
        <pt x="296" y="886" on="1"/>
        <pt x="463" y="743" on="1"/>
      </contour>
      <contour>
        <pt x="467" y="-4" on="1"/>
        <pt x="453" y="45" on="0"/>
        <pt x="423" y="142" on="0"/>
        <pt x="408" y="191" on="1"/>
        <pt x="176" y="191" on="1"/>
        <pt x="161" y="143" on="0"/>
        <pt x="132" y="48" on="0"/>
        <pt x="118" y="0" on="1"/>
        <pt x="35" y="0" on="1"/>
        <pt x="82" y="154" on="0"/>
        <pt x="182" y="467" on="0"/>
        <pt x="235" y="621" on="1"/>
        <pt x="352" y="621" on="1"/>
        <pt x="405" y="467" on="0"/>
        <pt x="505" y="158" on="0"/>
        <pt x="552" y="4" on="1"/>
      </contour>
      <contour>
        <pt x="288" y="543" on="1"/>
        <pt x="265" y="472" on="0"/>
        <pt x="218" y="328" on="0"/>
        <pt x="196" y="257" on="1"/>
        <pt x="387" y="257" on="1"/>
        <pt x="365" y="328" on="0"/>
        <pt x="318" y="472" on="0"/>
        <pt x="295" y="543" on="1"/>
      </contour>
    </TTGlyph>
    <TTGlyph name="Acircumflex.sc" xMin="34" yMin="-3" xMax="499" yMax="793">
      <contour>
        <pt x="382" y="597" on="1"/>
        <pt x="262" y="705" on="1"/>
        <pt x="145" y="598" on="1"/>
        <pt x="103" y="639" on="1"/>
        <pt x="268" y="793" on="1"/>
        <pt x="269" y="793" on="1"/>
        <pt x="436" y="650" on="1"/>
      </contour>
      <contour>
        <pt x="415" y="-3" on="1"/>
        <pt x="403" y="37" on="0"/>
        <pt x="378" y="117" on="0"/>
        <pt x="365" y="157" on="1"/>
        <pt x="164" y="157" on="1"/>
        <pt x="152" y="118" on="0"/>
        <pt x="128" y="39" on="0"/>
        <pt x="116" y="0" on="1"/>
        <pt x="34" y="0" on="1"/>
        <pt x="75" y="131" on="0"/>
        <pt x="164" y="397" on="0"/>
        <pt x="211" y="528" on="1"/>
        <pt x="324" y="528" on="1"/>
        <pt x="370" y="397" on="0"/>
        <pt x="458" y="134" on="0"/>
        <pt x="499" y="3" on="1"/>
      </contour>
      <contour>
        <pt x="262" y="456" on="1"/>
        <pt x="242" y="397" on="0"/>
        <pt x="203" y="278" on="0"/>
        <pt x="184" y="218" on="1"/>
        <pt x="346" y="218" on="1"/>
        <pt x="327" y="277" on="0"/>
        <pt x="288" y="397" on="0"/>
        <pt x="269" y="456" on="1"/>
      </contour>
    </TTGlyph>
    <TTGlyph name="Adieresis" xMin="35" yMin="-4" xMax="552" yMax="832">
      <contour>
        <pt x="435" y="699" on="1"/>
        <pt x="349" y="699" on="1"/>
        <pt x="351" y="832" on="1"/>
        <pt x="437" y="832" on="1"/>
      </contour>
      <contour>
        <pt x="234" y="699" on="1"/>
        <pt x="149" y="699" on="1"/>
        <pt x="150" y="832" on="1"/>
        <pt x="237" y="832" on="1"/>
      </contour>
      <contour>
        <pt x="467" y="-4" on="1"/>
        <pt x="453" y="45" on="0"/>
        <pt x="423" y="142" on="0"/>
        <pt x="408" y="191" on="1"/>
        <pt x="176" y="191" on="1"/>
        <pt x="161" y="143" on="0"/>
        <pt x="132" y="48" on="0"/>
        <pt x="118" y="0" on="1"/>
        <pt x="35" y="0" on="1"/>
        <pt x="82" y="154" on="0"/>
        <pt x="182" y="467" on="0"/>
        <pt x="235" y="621" on="1"/>
        <pt x="352" y="621" on="1"/>
        <pt x="405" y="467" on="0"/>
        <pt x="505" y="158" on="0"/>
        <pt x="552" y="4" on="1"/>
      </contour>
      <contour>
        <pt x="288" y="543" on="1"/>
        <pt x="265" y="472" on="0"/>
        <pt x="218" y="328" on="0"/>
        <pt x="196" y="257" on="1"/>
        <pt x="387" y="257" on="1"/>
        <pt x="365" y="328" on="0"/>
        <pt x="318" y="472" on="0"/>
        <pt x="295" y="543" on="1"/>
      </contour>
    </TTGlyph>
    <TTGlyph name="Adieresis.sc" xMin="34" yMin="-3" xMax="499" yMax="739">
      <contour>
        <pt x="408" y="606" on="1"/>
        <pt x="322" y="606" on="1"/>
        <pt x="324" y="739" on="1"/>
        <pt x="410" y="739" on="1"/>
      </contour>
      <contour>
        <pt x="207" y="606" on="1"/>
        <pt x="122" y="606" on="1"/>
        <pt x="123" y="739" on="1"/>
        <pt x="210" y="739" on="1"/>
      </contour>
      <contour>
        <pt x="415" y="-3" on="1"/>
        <pt x="403" y="37" on="0"/>
        <pt x="378" y="117" on="0"/>
        <pt x="365" y="157" on="1"/>
        <pt x="164" y="157" on="1"/>
        <pt x="152" y="118" on="0"/>
        <pt x="128" y="39" on="0"/>
        <pt x="116" y="0" on="1"/>
        <pt x="34" y="0" on="1"/>
        <pt x="75" y="131" on="0"/>
        <pt x="164" y="397" on="0"/>
        <pt x="211" y="528" on="1"/>
        <pt x="324" y="528" on="1"/>
        <pt x="370" y="397" on="0"/>
        <pt x="458" y="134" on="0"/>
        <pt x="499" y="3" on="1"/>
      </contour>
      <contour>
        <pt x="262" y="456" on="1"/>
        <pt x="242" y="397" on="0"/>
        <pt x="203" y="278" on="0"/>
        <pt x="184" y="218" on="1"/>
        <pt x="346" y="218" on="1"/>
        <pt x="327" y="277" on="0"/>
        <pt x="288" y="397" on="0"/>
        <pt x="269" y="456" on="1"/>
      </contour>
    </TTGlyph>
    <TTGlyph name="Agrave" xMin="35" yMin="-4" xMax="552" yMax="902">
      <contour>
        <pt x="387" y="722" on="1"/>
        <pt x="361" y="683" on="1"/>
        <pt x="339" y="695" on="0"/>
        <pt x="280" y="731" on="0"/>
        <pt x="220" y="771" on="0"/>
        <pt x="162" y="812" on="0"/>
        <pt x="140" y="830" on="1"/>
        <pt x="202" y="902" on="1"/>
        <pt x="220" y="882" on="0"/>
        <pt x="269" y="831" on="0"/>
        <pt x="321" y="781" on="0"/>
        <pt x="370" y="736" on="0"/>
      </contour>
      <contour>
        <pt x="467" y="-4" on="1"/>
        <pt x="453" y="45" on="0"/>
        <pt x="423" y="142" on="0"/>
        <pt x="408" y="191" on="1"/>
        <pt x="176" y="191" on="1"/>
        <pt x="161" y="143" on="0"/>
        <pt x="132" y="48" on="0"/>
        <pt x="118" y="0" on="1"/>
        <pt x="35" y="0" on="1"/>
        <pt x="82" y="154" on="0"/>
        <pt x="182" y="467" on="0"/>
        <pt x="235" y="621" on="1"/>
        <pt x="352" y="621" on="1"/>
        <pt x="405" y="467" on="0"/>
        <pt x="505" y="158" on="0"/>
        <pt x="552" y="4" on="1"/>
      </contour>
      <contour>
        <pt x="288" y="543" on="1"/>
        <pt x="265" y="472" on="0"/>
        <pt x="218" y="328" on="0"/>
        <pt x="196" y="257" on="1"/>
        <pt x="387" y="257" on="1"/>
        <pt x="365" y="328" on="0"/>
        <pt x="318" y="472" on="0"/>
        <pt x="295" y="543" on="1"/>
      </contour>
    </TTGlyph>
    <TTGlyph name="Agrave.sc" xMin="34" yMin="-3" xMax="499" yMax="809">
      <contour>
        <pt x="360" y="629" on="1"/>
        <pt x="334" y="590" on="1"/>
        <pt x="312" y="602" on="0"/>
        <pt x="253" y="638" on="0"/>
        <pt x="193" y="678" on="0"/>
        <pt x="135" y="719" on="0"/>
        <pt x="113" y="737" on="1"/>
        <pt x="175" y="809" on="1"/>
        <pt x="193" y="789" on="0"/>
        <pt x="242" y="738" on="0"/>
        <pt x="294" y="688" on="0"/>
        <pt x="343" y="643" on="0"/>
      </contour>
      <contour>
        <pt x="415" y="-3" on="1"/>
        <pt x="403" y="37" on="0"/>
        <pt x="378" y="117" on="0"/>
        <pt x="365" y="157" on="1"/>
        <pt x="164" y="157" on="1"/>
        <pt x="152" y="118" on="0"/>
        <pt x="128" y="39" on="0"/>
        <pt x="116" y="0" on="1"/>
        <pt x="34" y="0" on="1"/>
        <pt x="75" y="131" on="0"/>
        <pt x="164" y="397" on="0"/>
        <pt x="211" y="528" on="1"/>
        <pt x="324" y="528" on="1"/>
        <pt x="370" y="397" on="0"/>
        <pt x="458" y="134" on="0"/>
        <pt x="499" y="3" on="1"/>
      </contour>
      <contour>
        <pt x="262" y="456" on="1"/>
        <pt x="242" y="397" on="0"/>
        <pt x="203" y="278" on="0"/>
        <pt x="184" y="218" on="1"/>
        <pt x="346" y="218" on="1"/>
        <pt x="327" y="277" on="0"/>
        <pt x="288" y="397" on="0"/>
        <pt x="269" y="456" on="1"/>
      </contour>
    </TTGlyph>
    <TTGlyph name="Amacron" xMin="35" yMin="-4" xMax="552" yMax="805">
      <contour>
        <pt x="446" y="805" on="1"/>
        <pt x="446" y="730" on="1"/>
        <pt x="136" y="730" on="1"/>
        <pt x="136" y="805" on="1"/>
      </contour>
      <contour>
        <pt x="467" y="-4" on="1"/>
        <pt x="453" y="45" on="0"/>
        <pt x="423" y="142" on="0"/>
        <pt x="408" y="191" on="1"/>
        <pt x="176" y="191" on="1"/>
        <pt x="161" y="143" on="0"/>
        <pt x="132" y="48" on="0"/>
        <pt x="118" y="0" on="1"/>
        <pt x="35" y="0" on="1"/>
        <pt x="82" y="154" on="0"/>
        <pt x="182" y="467" on="0"/>
        <pt x="235" y="621" on="1"/>
        <pt x="352" y="621" on="1"/>
        <pt x="405" y="467" on="0"/>
        <pt x="505" y="158" on="0"/>
        <pt x="552" y="4" on="1"/>
      </contour>
      <contour>
        <pt x="288" y="543" on="1"/>
        <pt x="265" y="472" on="0"/>
        <pt x="218" y="328" on="0"/>
        <pt x="196" y="257" on="1"/>
        <pt x="387" y="257" on="1"/>
        <pt x="365" y="328" on="0"/>
        <pt x="318" y="472" on="0"/>
        <pt x="295" y="543" on="1"/>
      </contour>
    </TTGlyph>
    <TTGlyph name="Amacron.sc" xMin="34" yMin="-3" xMax="499" yMax="712">
      <contour>
        <pt x="419" y="712" on="1"/>
        <pt x="419" y="637" on="1"/>
        <pt x="109" y="637" on="1"/>
        <pt x="109" y="712" on="1"/>
      </contour>
      <contour>
        <pt x="415" y="-3" on="1"/>
        <pt x="403" y="37" on="0"/>
        <pt x="378" y="117" on="0"/>
        <pt x="365" y="157" on="1"/>
        <pt x="164" y="157" on="1"/>
        <pt x="152" y="118" on="0"/>
        <pt x="128" y="39" on="0"/>
        <pt x="116" y="0" on="1"/>
        <pt x="34" y="0" on="1"/>
        <pt x="75" y="131" on="0"/>
        <pt x="164" y="397" on="0"/>
        <pt x="211" y="528" on="1"/>
        <pt x="324" y="528" on="1"/>
        <pt x="370" y="397" on="0"/>
        <pt x="458" y="134" on="0"/>
        <pt x="499" y="3" on="1"/>
      </contour>
      <contour>
        <pt x="262" y="456" on="1"/>
        <pt x="242" y="397" on="0"/>
        <pt x="203" y="278" on="0"/>
        <pt x="184" y="218" on="1"/>
        <pt x="346" y="218" on="1"/>
        <pt x="327" y="277" on="0"/>
        <pt x="288" y="397" on="0"/>
        <pt x="269" y="456" on="1"/>
      </contour>
    </TTGlyph>
    <TTGlyph name="Aogonek" xMin="35" yMin="-211" xMax="552" yMax="621">
      <contour>
        <pt x="531" y="-211" on="1"/>
        <pt x="435" y="-201" on="0"/>
        <pt x="357" y="-149" on="0"/>
        <pt x="357" y="-112" on="1"/>
        <pt x="357" y="-84" on="0"/>
        <pt x="404" y="-24" on="0"/>
        <pt x="463" y="9" on="1"/>
        <pt x="450" y="54" on="0"/>
        <pt x="422" y="145" on="0"/>
        <pt x="408" y="191" on="1"/>
        <pt x="176" y="191" on="1"/>
        <pt x="161" y="143" on="0"/>
        <pt x="132" y="48" on="0"/>
        <pt x="118" y="0" on="1"/>
        <pt x="35" y="0" on="1"/>
        <pt x="82" y="154" on="0"/>
        <pt x="182" y="467" on="0"/>
        <pt x="235" y="621" on="1"/>
        <pt x="352" y="621" on="1"/>
        <pt x="405" y="467" on="0"/>
        <pt x="505" y="158" on="0"/>
        <pt x="552" y="4" on="1"/>
        <pt x="479" y="-30" on="0"/>
        <pt x="430" y="-77" on="0"/>
        <pt x="430" y="-93" on="1"/>
        <pt x="430" y="-112" on="0"/>
        <pt x="485" y="-135" on="0"/>
        <pt x="539" y="-143" on="1"/>
      </contour>
      <contour>
        <pt x="288" y="543" on="1"/>
        <pt x="265" y="472" on="0"/>
        <pt x="218" y="328" on="0"/>
        <pt x="196" y="257" on="1"/>
        <pt x="387" y="257" on="1"/>
        <pt x="365" y="328" on="0"/>
        <pt x="318" y="472" on="0"/>
        <pt x="295" y="543" on="1"/>
      </contour>
    </TTGlyph>
    <TTGlyph name="Aogonek.sc" xMin="34" yMin="-212" xMax="499" yMax="528">
      <contour>
        <pt x="478" y="-212" on="1"/>
        <pt x="382" y="-202" on="0"/>
        <pt x="303" y="-149" on="0"/>
        <pt x="303" y="-112" on="1"/>
        <pt x="303" y="-84" on="0"/>
        <pt x="351" y="-24" on="0"/>
        <pt x="411" y="9" on="1"/>
        <pt x="400" y="46" on="0"/>
        <pt x="376" y="120" on="0"/>
        <pt x="365" y="157" on="1"/>
        <pt x="164" y="157" on="1"/>
        <pt x="152" y="118" on="0"/>
        <pt x="128" y="39" on="0"/>
        <pt x="116" y="0" on="1"/>
        <pt x="34" y="0" on="1"/>
        <pt x="75" y="131" on="0"/>
        <pt x="164" y="397" on="0"/>
        <pt x="211" y="528" on="1"/>
        <pt x="324" y="528" on="1"/>
        <pt x="370" y="397" on="0"/>
        <pt x="458" y="134" on="0"/>
        <pt x="499" y="3" on="1"/>
        <pt x="425" y="-31" on="0"/>
        <pt x="376" y="-77" on="0"/>
        <pt x="376" y="-93" on="1"/>
        <pt x="376" y="-112" on="0"/>
        <pt x="432" y="-136" on="0"/>
        <pt x="486" y="-144" on="1"/>
      </contour>
      <contour>
        <pt x="262" y="456" on="1"/>
        <pt x="242" y="397" on="0"/>
        <pt x="203" y="278" on="0"/>
        <pt x="184" y="218" on="1"/>
        <pt x="346" y="218" on="1"/>
        <pt x="327" y="277" on="0"/>
        <pt x="288" y="397" on="0"/>
        <pt x="269" y="456" on="1"/>
      </contour>
    </TTGlyph>
    <TTGlyph name="Aring" xMin="35" yMin="-4" xMax="552" yMax="883">
      <contour>
        <pt x="290" y="883" on="1"/>
        <pt x="343" y="883" on="0"/>
        <pt x="410" y="823" on="0"/>
        <pt x="410" y="782" on="1"/>
        <pt x="410" y="737" on="0"/>
        <pt x="344" y="677" on="0"/>
        <pt x="290" y="677" on="1"/>
        <pt x="237" y="677" on="0"/>
        <pt x="171" y="736" on="0"/>
        <pt x="171" y="778" on="1"/>
        <pt x="171" y="823" on="0"/>
        <pt x="236" y="883" on="0"/>
      </contour>
      <contour>
        <pt x="467" y="-4" on="1"/>
        <pt x="453" y="45" on="0"/>
        <pt x="423" y="142" on="0"/>
        <pt x="408" y="191" on="1"/>
        <pt x="176" y="191" on="1"/>
        <pt x="161" y="143" on="0"/>
        <pt x="132" y="48" on="0"/>
        <pt x="118" y="0" on="1"/>
        <pt x="35" y="0" on="1"/>
        <pt x="82" y="154" on="0"/>
        <pt x="182" y="467" on="0"/>
        <pt x="235" y="621" on="1"/>
        <pt x="352" y="621" on="1"/>
        <pt x="405" y="467" on="0"/>
        <pt x="505" y="158" on="0"/>
        <pt x="552" y="4" on="1"/>
      </contour>
      <contour>
        <pt x="288" y="543" on="1"/>
        <pt x="265" y="472" on="0"/>
        <pt x="218" y="328" on="0"/>
        <pt x="196" y="257" on="1"/>
        <pt x="387" y="257" on="1"/>
        <pt x="365" y="328" on="0"/>
        <pt x="318" y="472" on="0"/>
        <pt x="295" y="543" on="1"/>
      </contour>
    </TTGlyph>
    <TTGlyph name="Aring.sc" xMin="34" yMin="-3" xMax="499" yMax="790">
      <contour>
        <pt x="263" y="790" on="1"/>
        <pt x="316" y="790" on="0"/>
        <pt x="383" y="730" on="0"/>
        <pt x="383" y="689" on="1"/>
        <pt x="383" y="644" on="0"/>
        <pt x="317" y="584" on="0"/>
        <pt x="263" y="584" on="1"/>
        <pt x="210" y="584" on="0"/>
        <pt x="144" y="643" on="0"/>
        <pt x="144" y="685" on="1"/>
        <pt x="144" y="730" on="0"/>
        <pt x="209" y="790" on="0"/>
      </contour>
      <contour>
        <pt x="415" y="-3" on="1"/>
        <pt x="403" y="37" on="0"/>
        <pt x="378" y="117" on="0"/>
        <pt x="365" y="157" on="1"/>
        <pt x="164" y="157" on="1"/>
        <pt x="152" y="118" on="0"/>
        <pt x="128" y="39" on="0"/>
        <pt x="116" y="0" on="1"/>
        <pt x="34" y="0" on="1"/>
        <pt x="75" y="131" on="0"/>
        <pt x="164" y="397" on="0"/>
        <pt x="211" y="528" on="1"/>
        <pt x="324" y="528" on="1"/>
        <pt x="370" y="397" on="0"/>
        <pt x="458" y="134" on="0"/>
        <pt x="499" y="3" on="1"/>
      </contour>
      <contour>
        <pt x="262" y="456" on="1"/>
        <pt x="242" y="397" on="0"/>
        <pt x="203" y="278" on="0"/>
        <pt x="184" y="218" on="1"/>
        <pt x="346" y="218" on="1"/>
        <pt x="327" y="277" on="0"/>
        <pt x="288" y="397" on="0"/>
        <pt x="269" y="456" on="1"/>
      </contour>
    </TTGlyph>
    <TTGlyph name="Aringacute" xMin="35" yMin="-4" xMax="552" yMax="1138">
      <contour>
        <pt x="190" y="961" on="1"/>
        <pt x="208" y="975" on="0"/>
        <pt x="257" y="1018" on="0"/>
        <pt x="306" y="1066" on="0"/>
        <pt x="353" y="1117" on="0"/>
        <pt x="370" y="1138" on="1"/>
        <pt x="437" y="1072" on="1"/>
        <pt x="416" y="1053" on="0"/>
        <pt x="359" y="1010" on="0"/>
        <pt x="297" y="969" on="0"/>
        <pt x="237" y="933" on="0"/>
        <pt x="214" y="921" on="1"/>
      </contour>
      <contour>
        <pt x="290" y="883" on="1"/>
        <pt x="343" y="883" on="0"/>
        <pt x="410" y="823" on="0"/>
        <pt x="410" y="782" on="1"/>
        <pt x="410" y="737" on="0"/>
        <pt x="344" y="677" on="0"/>
        <pt x="290" y="677" on="1"/>
        <pt x="237" y="677" on="0"/>
        <pt x="171" y="736" on="0"/>
        <pt x="171" y="778" on="1"/>
        <pt x="171" y="823" on="0"/>
        <pt x="236" y="883" on="0"/>
      </contour>
      <contour>
        <pt x="467" y="-4" on="1"/>
        <pt x="453" y="45" on="0"/>
        <pt x="423" y="142" on="0"/>
        <pt x="408" y="191" on="1"/>
        <pt x="176" y="191" on="1"/>
        <pt x="161" y="143" on="0"/>
        <pt x="132" y="48" on="0"/>
        <pt x="118" y="0" on="1"/>
        <pt x="35" y="0" on="1"/>
        <pt x="82" y="154" on="0"/>
        <pt x="182" y="467" on="0"/>
        <pt x="235" y="621" on="1"/>
        <pt x="352" y="621" on="1"/>
        <pt x="405" y="467" on="0"/>
        <pt x="505" y="158" on="0"/>
        <pt x="552" y="4" on="1"/>
      </contour>
      <contour>
        <pt x="288" y="543" on="1"/>
        <pt x="265" y="472" on="0"/>
        <pt x="218" y="328" on="0"/>
        <pt x="196" y="257" on="1"/>
        <pt x="387" y="257" on="1"/>
        <pt x="365" y="328" on="0"/>
        <pt x="318" y="472" on="0"/>
        <pt x="295" y="543" on="1"/>
      </contour>
    </TTGlyph>
    <TTGlyph name="Aringacute.sc" xMin="34" yMin="-3" xMax="499" yMax="1045">
      <contour>
        <pt x="163" y="868" on="1"/>
        <pt x="181" y="882" on="0"/>
        <pt x="230" y="925" on="0"/>
        <pt x="279" y="973" on="0"/>
        <pt x="326" y="1024" on="0"/>
        <pt x="343" y="1045" on="1"/>
        <pt x="410" y="979" on="1"/>
        <pt x="389" y="960" on="0"/>
        <pt x="332" y="917" on="0"/>
        <pt x="270" y="876" on="0"/>
        <pt x="210" y="840" on="0"/>
        <pt x="187" y="828" on="1"/>
      </contour>
      <contour>
        <pt x="263" y="790" on="1"/>
        <pt x="316" y="790" on="0"/>
        <pt x="383" y="730" on="0"/>
        <pt x="383" y="689" on="1"/>
        <pt x="383" y="644" on="0"/>
        <pt x="317" y="584" on="0"/>
        <pt x="263" y="584" on="1"/>
        <pt x="210" y="584" on="0"/>
        <pt x="144" y="643" on="0"/>
        <pt x="144" y="685" on="1"/>
        <pt x="144" y="730" on="0"/>
        <pt x="209" y="790" on="0"/>
      </contour>
      <contour>
        <pt x="415" y="-3" on="1"/>
        <pt x="403" y="37" on="0"/>
        <pt x="378" y="117" on="0"/>
        <pt x="365" y="157" on="1"/>
        <pt x="164" y="157" on="1"/>
        <pt x="152" y="118" on="0"/>
        <pt x="128" y="39" on="0"/>
        <pt x="116" y="0" on="1"/>
        <pt x="34" y="0" on="1"/>
        <pt x="75" y="131" on="0"/>
        <pt x="164" y="397" on="0"/>
        <pt x="211" y="528" on="1"/>
        <pt x="324" y="528" on="1"/>
        <pt x="370" y="397" on="0"/>
        <pt x="458" y="134" on="0"/>
        <pt x="499" y="3" on="1"/>
      </contour>
      <contour>
        <pt x="262" y="456" on="1"/>
        <pt x="242" y="397" on="0"/>
        <pt x="203" y="278" on="0"/>
        <pt x="184" y="218" on="1"/>
        <pt x="346" y="218" on="1"/>
        <pt x="327" y="277" on="0"/>
        <pt x="288" y="397" on="0"/>
        <pt x="269" y="456" on="1"/>
      </contour>
    </TTGlyph>
    <TTGlyph name="Atilde" xMin="35" yMin="-4" xMax="552" yMax="864">
      <contour>
        <pt x="362" y="696" on="1"/>
        <pt x="340" y="696" on="0"/>
        <pt x="301" y="726" on="0"/>
        <pt x="267" y="762" on="0"/>
        <pt x="236" y="792" on="0"/>
        <pt x="222" y="792" on="1"/>
        <pt x="208" y="792" on="0"/>
        <pt x="174" y="749" on="0"/>
        <pt x="155" y="706" on="1"/>
        <pt x="110" y="730" on="1"/>
        <pt x="135" y="790" on="0"/>
        <pt x="200" y="864" on="0"/>
        <pt x="234" y="864" on="1"/>
        <pt x="256" y="864" on="0"/>
        <pt x="295" y="834" on="0"/>
        <pt x="329" y="798" on="0"/>
        <pt x="360" y="768" on="0"/>
        <pt x="374" y="768" on="1"/>
        <pt x="388" y="768" on="0"/>
        <pt x="422" y="812" on="0"/>
        <pt x="441" y="855" on="1"/>
        <pt x="486" y="831" on="1"/>
        <pt x="461" y="771" on="0"/>
        <pt x="396" y="696" on="0"/>
      </contour>
      <contour>
        <pt x="467" y="-4" on="1"/>
        <pt x="453" y="45" on="0"/>
        <pt x="423" y="142" on="0"/>
        <pt x="408" y="191" on="1"/>
        <pt x="176" y="191" on="1"/>
        <pt x="161" y="143" on="0"/>
        <pt x="132" y="48" on="0"/>
        <pt x="118" y="0" on="1"/>
        <pt x="35" y="0" on="1"/>
        <pt x="82" y="154" on="0"/>
        <pt x="182" y="467" on="0"/>
        <pt x="235" y="621" on="1"/>
        <pt x="352" y="621" on="1"/>
        <pt x="405" y="467" on="0"/>
        <pt x="505" y="158" on="0"/>
        <pt x="552" y="4" on="1"/>
      </contour>
      <contour>
        <pt x="288" y="543" on="1"/>
        <pt x="265" y="472" on="0"/>
        <pt x="218" y="328" on="0"/>
        <pt x="196" y="257" on="1"/>
        <pt x="387" y="257" on="1"/>
        <pt x="365" y="328" on="0"/>
        <pt x="318" y="472" on="0"/>
        <pt x="295" y="543" on="1"/>
      </contour>
    </TTGlyph>
    <TTGlyph name="Atilde.sc" xMin="34" yMin="-3" xMax="499" yMax="771">
      <contour>
        <pt x="335" y="603" on="1"/>
        <pt x="313" y="603" on="0"/>
        <pt x="274" y="633" on="0"/>
        <pt x="240" y="669" on="0"/>
        <pt x="209" y="699" on="0"/>
        <pt x="195" y="699" on="1"/>
        <pt x="181" y="699" on="0"/>
        <pt x="147" y="656" on="0"/>
        <pt x="128" y="613" on="1"/>
        <pt x="83" y="637" on="1"/>
        <pt x="108" y="697" on="0"/>
        <pt x="173" y="771" on="0"/>
        <pt x="207" y="771" on="1"/>
        <pt x="229" y="771" on="0"/>
        <pt x="268" y="741" on="0"/>
        <pt x="302" y="705" on="0"/>
        <pt x="333" y="675" on="0"/>
        <pt x="347" y="675" on="1"/>
        <pt x="361" y="675" on="0"/>
        <pt x="395" y="719" on="0"/>
        <pt x="414" y="762" on="1"/>
        <pt x="459" y="738" on="1"/>
        <pt x="434" y="678" on="0"/>
        <pt x="369" y="603" on="0"/>
      </contour>
      <contour>
        <pt x="415" y="-3" on="1"/>
        <pt x="403" y="37" on="0"/>
        <pt x="378" y="117" on="0"/>
        <pt x="365" y="157" on="1"/>
        <pt x="164" y="157" on="1"/>
        <pt x="152" y="118" on="0"/>
        <pt x="128" y="39" on="0"/>
        <pt x="116" y="0" on="1"/>
        <pt x="34" y="0" on="1"/>
        <pt x="75" y="131" on="0"/>
        <pt x="164" y="397" on="0"/>
        <pt x="211" y="528" on="1"/>
        <pt x="324" y="528" on="1"/>
        <pt x="370" y="397" on="0"/>
        <pt x="458" y="134" on="0"/>
        <pt x="499" y="3" on="1"/>
      </contour>
      <contour>
        <pt x="262" y="456" on="1"/>
        <pt x="242" y="397" on="0"/>
        <pt x="203" y="278" on="0"/>
        <pt x="184" y="218" on="1"/>
        <pt x="346" y="218" on="1"/>
        <pt x="327" y="277" on="0"/>
        <pt x="288" y="397" on="0"/>
        <pt x="269" y="456" on="1"/>
      </contour>
    </TTGlyph>
    <TTGlyph name="B" xMin="97" yMin="-9" xMax="510" yMax="629">
      <contour>
        <pt x="218" y="-9" on="1"/>
        <pt x="190" y="-9" on="0"/>
        <pt x="128" y="-4" on="0"/>
        <pt x="97" y="0" on="1"/>
        <pt x="97" y="620" on="1"/>
        <pt x="134" y="624" on="0"/>
        <pt x="202" y="629" on="0"/>
        <pt x="233" y="629" on="1"/>
        <pt x="348" y="629" on="0"/>
        <pt x="487" y="558" on="0"/>
        <pt x="487" y="477" on="1"/>
        <pt x="487" y="421" on="0"/>
        <pt x="423" y="346" on="0"/>
        <pt x="373" y="327" on="1"/>
        <pt x="438" y="312" on="0"/>
        <pt x="510" y="240" on="0"/>
        <pt x="510" y="180" on="1"/>
        <pt x="510" y="131" on="0"/>
        <pt x="466" y="59" on="0"/>
        <pt x="388" y="13" on="0"/>
        <pt x="281" y="-9" on="0"/>
      </contour>
      <contour>
        <pt x="213" y="344" on="1"/>
        <pt x="320" y="344" on="0"/>
        <pt x="404" y="398" on="0"/>
        <pt x="404" y="455" on="1"/>
        <pt x="404" y="507" on="0"/>
        <pt x="321" y="557" on="0"/>
        <pt x="247" y="557" on="1"/>
        <pt x="232" y="557" on="0"/>
        <pt x="199" y="555" on="0"/>
        <pt x="182" y="553" on="1"/>
        <pt x="182" y="345" on="1"/>
        <pt x="190" y="344" on="0"/>
        <pt x="206" y="344" on="0"/>
      </contour>
      <contour>
        <pt x="270" y="63" on="1"/>
        <pt x="345" y="63" on="0"/>
        <pt x="425" y="115" on="0"/>
        <pt x="425" y="172" on="1"/>
        <pt x="425" y="232" on="0"/>
        <pt x="330" y="278" on="0"/>
        <pt x="237" y="278" on="1"/>
        <pt x="224" y="278" on="0"/>
        <pt x="197" y="277" on="0"/>
        <pt x="182" y="277" on="1"/>
        <pt x="182" y="69" on="1"/>
        <pt x="206" y="66" on="0"/>
        <pt x="251" y="63" on="0"/>
      </contour>
    </TTGlyph>
    <TTGlyph name="B.sc" xMin="88" yMin="-8" xMax="463" yMax="534">
      <contour>
        <pt x="199" y="-8" on="1"/>
        <pt x="173" y="-8" on="0"/>
        <pt x="117" y="-4" on="0"/>
        <pt x="88" y="0" on="1"/>
        <pt x="88" y="527" on="1"/>
        <pt x="121" y="531" on="0"/>
        <pt x="183" y="534" on="0"/>
        <pt x="211" y="534" on="1"/>
        <pt x="316" y="534" on="0"/>
        <pt x="443" y="474" on="0"/>
        <pt x="443" y="404" on="1"/>
        <pt x="443" y="358" on="0"/>
        <pt x="386" y="294" on="0"/>
        <pt x="340" y="277" on="1"/>
        <pt x="396" y="266" on="0"/>
        <pt x="463" y="208" on="0"/>
        <pt x="463" y="153" on="1"/>
        <pt x="463" y="112" on="0"/>
        <pt x="424" y="51" on="0"/>
        <pt x="354" y="11" on="0"/>
        <pt x="256" y="-8" on="0"/>
      </contour>
      <contour>
        <pt x="196" y="293" on="1"/>
        <pt x="289" y="293" on="0"/>
        <pt x="360" y="338" on="0"/>
        <pt x="360" y="384" on="1"/>
        <pt x="360" y="427" on="0"/>
        <pt x="290" y="466" on="0"/>
        <pt x="227" y="466" on="1"/>
        <pt x="214" y="466" on="0"/>
        <pt x="187" y="464" on="0"/>
        <pt x="172" y="463" on="1"/>
        <pt x="172" y="293" on="1"/>
        <pt x="178" y="293" on="0"/>
        <pt x="190" y="293" on="0"/>
      </contour>
      <contour>
        <pt x="254" y="59" on="1"/>
        <pt x="315" y="59" on="0"/>
        <pt x="379" y="102" on="0"/>
        <pt x="379" y="148" on="1"/>
        <pt x="379" y="197" on="0"/>
        <pt x="298" y="234" on="0"/>
        <pt x="217" y="234" on="1"/>
        <pt x="207" y="234" on="0"/>
        <pt x="184" y="233" on="0"/>
        <pt x="172" y="233" on="1"/>
        <pt x="172" y="66" on="1"/>
        <pt x="195" y="63" on="0"/>
        <pt x="236" y="59" on="0"/>
      </contour>
    </TTGlyph>
    <TTGlyph name="C" xMin="57" yMin="-9" xMax="469" yMax="629">
      <contour>
        <pt x="469" y="69" on="1"/>
        <pt x="460" y="-8" on="1"/>
        <pt x="447" y="-9" on="0"/>
        <pt x="422" y="-9" on="0"/>
        <pt x="410" y="-9" on="1"/>
        <pt x="310" y="-9" on="0"/>
        <pt x="173" y="38" on="0"/>
        <pt x="92" y="120" on="0"/>
        <pt x="57" y="233" on="0"/>
        <pt x="57" y="299" on="1"/>
        <pt x="57" y="362" on="0"/>
        <pt x="99" y="478" on="0"/>
        <pt x="193" y="566" on="0"/>
        <pt x="346" y="623" on="0"/>
        <pt x="457" y="629" on="1"/>
        <pt x="463" y="542" on="1"/>
        <pt x="364" y="540" on="0"/>
        <pt x="238" y="508" on="0"/>
        <pt x="169" y="449" on="0"/>
        <pt x="144" y="365" on="0"/>
        <pt x="144" y="311" on="1"/>
        <pt x="144" y="187" on="0"/>
        <pt x="280" y="69" on="0"/>
        <pt x="443" y="69" on="1"/>
      </contour>
    </TTGlyph>
    <TTGlyph name="C.sc" xMin="52" yMin="-7" xMax="422" yMax="535">
      <contour>
        <pt x="422" y="64" on="1"/>
        <pt x="414" y="-6" on="1"/>
        <pt x="401" y="-7" on="0"/>
        <pt x="376" y="-7" on="0"/>
        <pt x="365" y="-7" on="1"/>
        <pt x="275" y="-7" on="0"/>
        <pt x="155" y="33" on="0"/>
        <pt x="82" y="102" on="0"/>
        <pt x="52" y="198" on="0"/>
        <pt x="52" y="253" on="1"/>
        <pt x="52" y="307" on="0"/>
        <pt x="89" y="406" on="0"/>
        <pt x="173" y="482" on="0"/>
        <pt x="311" y="530" on="0"/>
        <pt x="411" y="535" on="1"/>
        <pt x="417" y="455" on="1"/>
        <pt x="330" y="454" on="0"/>
        <pt x="220" y="427" on="0"/>
        <pt x="159" y="380" on="0"/>
        <pt x="137" y="310" on="0"/>
        <pt x="137" y="265" on="1"/>
        <pt x="137" y="163" on="0"/>
        <pt x="257" y="64" on="0"/>
        <pt x="400" y="64" on="1"/>
      </contour>
    </TTGlyph>
    <TTGlyph name="Cacute" xMin="57" yMin="-9" xMax="469" yMax="910">
      <contour>
        <pt x="198" y="733" on="1"/>
        <pt x="216" y="747" on="0"/>
        <pt x="265" y="790" on="0"/>
        <pt x="314" y="838" on="0"/>
        <pt x="361" y="889" on="0"/>
        <pt x="378" y="910" on="1"/>
        <pt x="445" y="844" on="1"/>
        <pt x="424" y="825" on="0"/>
        <pt x="367" y="782" on="0"/>
        <pt x="305" y="741" on="0"/>
        <pt x="245" y="705" on="0"/>
        <pt x="222" y="693" on="1"/>
      </contour>
      <contour>
        <pt x="469" y="69" on="1"/>
        <pt x="460" y="-8" on="1"/>
        <pt x="447" y="-9" on="0"/>
        <pt x="422" y="-9" on="0"/>
        <pt x="410" y="-9" on="1"/>
        <pt x="310" y="-9" on="0"/>
        <pt x="173" y="38" on="0"/>
        <pt x="92" y="120" on="0"/>
        <pt x="57" y="233" on="0"/>
        <pt x="57" y="299" on="1"/>
        <pt x="57" y="362" on="0"/>
        <pt x="99" y="478" on="0"/>
        <pt x="193" y="566" on="0"/>
        <pt x="346" y="623" on="0"/>
        <pt x="457" y="629" on="1"/>
        <pt x="463" y="542" on="1"/>
        <pt x="364" y="540" on="0"/>
        <pt x="238" y="508" on="0"/>
        <pt x="169" y="449" on="0"/>
        <pt x="144" y="365" on="0"/>
        <pt x="144" y="311" on="1"/>
        <pt x="144" y="187" on="0"/>
        <pt x="280" y="69" on="0"/>
        <pt x="443" y="69" on="1"/>
      </contour>
    </TTGlyph>
    <TTGlyph name="Cacute.sc" xMin="52" yMin="-7" xMax="422" yMax="817">
      <contour>
        <pt x="168" y="640" on="1"/>
        <pt x="186" y="654" on="0"/>
        <pt x="235" y="697" on="0"/>
        <pt x="284" y="745" on="0"/>
        <pt x="331" y="796" on="0"/>
        <pt x="348" y="817" on="1"/>
        <pt x="415" y="751" on="1"/>
        <pt x="394" y="732" on="0"/>
        <pt x="337" y="689" on="0"/>
        <pt x="275" y="648" on="0"/>
        <pt x="215" y="612" on="0"/>
        <pt x="192" y="600" on="1"/>
      </contour>
      <contour>
        <pt x="422" y="64" on="1"/>
        <pt x="414" y="-6" on="1"/>
        <pt x="401" y="-7" on="0"/>
        <pt x="376" y="-7" on="0"/>
        <pt x="365" y="-7" on="1"/>
        <pt x="275" y="-7" on="0"/>
        <pt x="155" y="33" on="0"/>
        <pt x="82" y="102" on="0"/>
        <pt x="52" y="198" on="0"/>
        <pt x="52" y="253" on="1"/>
        <pt x="52" y="307" on="0"/>
        <pt x="89" y="406" on="0"/>
        <pt x="173" y="482" on="0"/>
        <pt x="311" y="530" on="0"/>
        <pt x="411" y="535" on="1"/>
        <pt x="417" y="455" on="1"/>
        <pt x="330" y="454" on="0"/>
        <pt x="220" y="427" on="0"/>
        <pt x="159" y="380" on="0"/>
        <pt x="137" y="310" on="0"/>
        <pt x="137" y="265" on="1"/>
        <pt x="137" y="163" on="0"/>
        <pt x="257" y="64" on="0"/>
        <pt x="400" y="64" on="1"/>
      </contour>
    </TTGlyph>
    <TTGlyph name="Ccaron" xMin="57" yMin="-9" xMax="471" yMax="884">
      <contour>
        <pt x="306" y="689" on="1"/>
        <pt x="305" y="689" on="1"/>
        <pt x="138" y="831" on="1"/>
        <pt x="193" y="884" on="1"/>
        <pt x="312" y="776" on="1"/>
        <pt x="429" y="884" on="1"/>
        <pt x="471" y="842" on="1"/>
      </contour>
      <contour>
        <pt x="469" y="69" on="1"/>
        <pt x="460" y="-8" on="1"/>
        <pt x="447" y="-9" on="0"/>
        <pt x="422" y="-9" on="0"/>
        <pt x="410" y="-9" on="1"/>
        <pt x="310" y="-9" on="0"/>
        <pt x="173" y="38" on="0"/>
        <pt x="92" y="120" on="0"/>
        <pt x="57" y="233" on="0"/>
        <pt x="57" y="299" on="1"/>
        <pt x="57" y="362" on="0"/>
        <pt x="99" y="478" on="0"/>
        <pt x="193" y="566" on="0"/>
        <pt x="346" y="623" on="0"/>
        <pt x="457" y="629" on="1"/>
        <pt x="463" y="542" on="1"/>
        <pt x="364" y="540" on="0"/>
        <pt x="238" y="508" on="0"/>
        <pt x="169" y="449" on="0"/>
        <pt x="144" y="365" on="0"/>
        <pt x="144" y="311" on="1"/>
        <pt x="144" y="187" on="0"/>
        <pt x="280" y="69" on="0"/>
        <pt x="443" y="69" on="1"/>
      </contour>
    </TTGlyph>
    <TTGlyph name="Ccaron.sc" xMin="52" yMin="-7" xMax="441" yMax="791">
      <contour>
        <pt x="276" y="596" on="1"/>
        <pt x="275" y="596" on="1"/>
        <pt x="108" y="738" on="1"/>
        <pt x="163" y="791" on="1"/>
        <pt x="282" y="683" on="1"/>
        <pt x="399" y="791" on="1"/>
        <pt x="441" y="749" on="1"/>
      </contour>
      <contour>
        <pt x="422" y="64" on="1"/>
        <pt x="414" y="-6" on="1"/>
        <pt x="401" y="-7" on="0"/>
        <pt x="376" y="-7" on="0"/>
        <pt x="365" y="-7" on="1"/>
        <pt x="275" y="-7" on="0"/>
        <pt x="155" y="33" on="0"/>
        <pt x="82" y="102" on="0"/>
        <pt x="52" y="198" on="0"/>
        <pt x="52" y="253" on="1"/>
        <pt x="52" y="307" on="0"/>
        <pt x="89" y="406" on="0"/>
        <pt x="173" y="482" on="0"/>
        <pt x="311" y="530" on="0"/>
        <pt x="411" y="535" on="1"/>
        <pt x="417" y="455" on="1"/>
        <pt x="330" y="454" on="0"/>
        <pt x="220" y="427" on="0"/>
        <pt x="159" y="380" on="0"/>
        <pt x="137" y="310" on="0"/>
        <pt x="137" y="265" on="1"/>
        <pt x="137" y="163" on="0"/>
        <pt x="257" y="64" on="0"/>
        <pt x="400" y="64" on="1"/>
      </contour>
    </TTGlyph>
    <TTGlyph name="Ccedilla" xMin="57" yMin="-226" xMax="469" yMax="629">
      <contour>
        <pt x="469" y="69" on="1"/>
        <pt x="460" y="-8" on="1"/>
        <pt x="447" y="-9" on="0"/>
        <pt x="422" y="-9" on="0"/>
        <pt x="410" y="-9" on="1"/>
        <pt x="310" y="-9" on="0"/>
        <pt x="173" y="38" on="0"/>
        <pt x="92" y="120" on="0"/>
        <pt x="57" y="233" on="0"/>
        <pt x="57" y="299" on="1"/>
        <pt x="57" y="362" on="0"/>
        <pt x="99" y="478" on="0"/>
        <pt x="193" y="566" on="0"/>
        <pt x="346" y="623" on="0"/>
        <pt x="457" y="629" on="1"/>
        <pt x="463" y="542" on="1"/>
        <pt x="364" y="540" on="0"/>
        <pt x="238" y="508" on="0"/>
        <pt x="169" y="449" on="0"/>
        <pt x="144" y="365" on="0"/>
        <pt x="144" y="311" on="1"/>
        <pt x="144" y="187" on="0"/>
        <pt x="280" y="69" on="0"/>
        <pt x="443" y="69" on="1"/>
      </contour>
      <contour>
        <pt x="222" y="-74" on="1"/>
        <pt x="239" y="-29" on="1"/>
        <pt x="315" y="-52" on="0"/>
        <pt x="382" y="-107" on="0"/>
        <pt x="382" y="-139" on="1"/>
        <pt x="382" y="-176" on="0"/>
        <pt x="300" y="-226" on="0"/>
        <pt x="213" y="-226" on="1"/>
        <pt x="195" y="-226" on="1"/>
        <pt x="194" y="-158" on="1"/>
        <pt x="214" y="-158" on="1"/>
        <pt x="270" y="-158" on="0"/>
        <pt x="318" y="-143" on="0"/>
        <pt x="318" y="-130" on="1"/>
        <pt x="318" y="-116" on="0"/>
        <pt x="267" y="-89" on="0"/>
      </contour>
    </TTGlyph>
    <TTGlyph name="Ccedilla.sc" xMin="52" yMin="-224" xMax="422" yMax="535">
      <contour>
        <pt x="422" y="64" on="1"/>
        <pt x="414" y="-6" on="1"/>
        <pt x="401" y="-7" on="0"/>
        <pt x="376" y="-7" on="0"/>
        <pt x="365" y="-7" on="1"/>
        <pt x="275" y="-7" on="0"/>
        <pt x="155" y="33" on="0"/>
        <pt x="82" y="102" on="0"/>
        <pt x="52" y="198" on="0"/>
        <pt x="52" y="253" on="1"/>
        <pt x="52" y="307" on="0"/>
        <pt x="89" y="406" on="0"/>
        <pt x="173" y="482" on="0"/>
        <pt x="311" y="530" on="0"/>
        <pt x="411" y="535" on="1"/>
        <pt x="417" y="455" on="1"/>
        <pt x="330" y="454" on="0"/>
        <pt x="220" y="427" on="0"/>
        <pt x="159" y="380" on="0"/>
        <pt x="137" y="310" on="0"/>
        <pt x="137" y="265" on="1"/>
        <pt x="137" y="163" on="0"/>
        <pt x="257" y="64" on="0"/>
        <pt x="400" y="64" on="1"/>
      </contour>
      <contour>
        <pt x="192" y="-72" on="1"/>
        <pt x="209" y="-27" on="1"/>
        <pt x="285" y="-50" on="0"/>
        <pt x="352" y="-105" on="0"/>
        <pt x="352" y="-137" on="1"/>
        <pt x="352" y="-174" on="0"/>
        <pt x="270" y="-224" on="0"/>
        <pt x="183" y="-224" on="1"/>
        <pt x="165" y="-224" on="1"/>
        <pt x="164" y="-156" on="1"/>
        <pt x="184" y="-156" on="1"/>
        <pt x="240" y="-156" on="0"/>
        <pt x="288" y="-141" on="0"/>
        <pt x="288" y="-128" on="1"/>
        <pt x="288" y="-114" on="0"/>
        <pt x="237" y="-87" on="0"/>
      </contour>
    </TTGlyph>
    <TTGlyph name="Cdotaccent" xMin="57" yMin="-9" xMax="469" yMax="838">
      <contour>
        <pt x="344" y="705" on="1"/>
        <pt x="258" y="705" on="1"/>
        <pt x="261" y="838" on="1"/>
        <pt x="347" y="838" on="1"/>
      </contour>
      <contour>
        <pt x="469" y="69" on="1"/>
        <pt x="460" y="-8" on="1"/>
        <pt x="447" y="-9" on="0"/>
        <pt x="422" y="-9" on="0"/>
        <pt x="410" y="-9" on="1"/>
        <pt x="310" y="-9" on="0"/>
        <pt x="173" y="38" on="0"/>
        <pt x="92" y="120" on="0"/>
        <pt x="57" y="233" on="0"/>
        <pt x="57" y="299" on="1"/>
        <pt x="57" y="362" on="0"/>
        <pt x="99" y="478" on="0"/>
        <pt x="193" y="566" on="0"/>
        <pt x="346" y="623" on="0"/>
        <pt x="457" y="629" on="1"/>
        <pt x="463" y="542" on="1"/>
        <pt x="364" y="540" on="0"/>
        <pt x="238" y="508" on="0"/>
        <pt x="169" y="449" on="0"/>
        <pt x="144" y="365" on="0"/>
        <pt x="144" y="311" on="1"/>
        <pt x="144" y="187" on="0"/>
        <pt x="280" y="69" on="0"/>
        <pt x="443" y="69" on="1"/>
      </contour>
    </TTGlyph>
    <TTGlyph name="Cdotaccent.sc" xMin="52" yMin="-7" xMax="422" yMax="745">
      <contour>
        <pt x="314" y="612" on="1"/>
        <pt x="228" y="612" on="1"/>
        <pt x="231" y="745" on="1"/>
        <pt x="317" y="745" on="1"/>
      </contour>
      <contour>
        <pt x="422" y="64" on="1"/>
        <pt x="414" y="-6" on="1"/>
        <pt x="401" y="-7" on="0"/>
        <pt x="376" y="-7" on="0"/>
        <pt x="365" y="-7" on="1"/>
        <pt x="275" y="-7" on="0"/>
        <pt x="155" y="33" on="0"/>
        <pt x="82" y="102" on="0"/>
        <pt x="52" y="198" on="0"/>
        <pt x="52" y="253" on="1"/>
        <pt x="52" y="307" on="0"/>
        <pt x="89" y="406" on="0"/>
        <pt x="173" y="482" on="0"/>
        <pt x="311" y="530" on="0"/>
        <pt x="411" y="535" on="1"/>
        <pt x="417" y="455" on="1"/>
        <pt x="330" y="454" on="0"/>
        <pt x="220" y="427" on="0"/>
        <pt x="159" y="380" on="0"/>
        <pt x="137" y="310" on="0"/>
        <pt x="137" y="265" on="1"/>
        <pt x="137" y="163" on="0"/>
        <pt x="257" y="64" on="0"/>
        <pt x="400" y="64" on="1"/>
      </contour>
    </TTGlyph>
    <TTGlyph name="D" xMin="97" yMin="-8" xMax="568" yMax="630">
      <contour>
        <pt x="568" y="321" on="1"/>
        <pt x="568" y="168" on="0"/>
        <pt x="377" y="-8" on="0"/>
        <pt x="205" y="-8" on="1"/>
        <pt x="180" y="-8" on="0"/>
        <pt x="125" y="-4" on="0"/>
        <pt x="97" y="0" on="1"/>
        <pt x="97" y="620" on="1"/>
        <pt x="134" y="624" on="0"/>
        <pt x="201" y="630" on="0"/>
        <pt x="232" y="630" on="1"/>
        <pt x="405" y="630" on="0"/>
        <pt x="568" y="474" on="0"/>
      </contour>
      <contour>
        <pt x="484" y="306" on="1"/>
        <pt x="484" y="426" on="0"/>
        <pt x="373" y="556" on="0"/>
        <pt x="245" y="556" on="1"/>
        <pt x="231" y="556" on="0"/>
        <pt x="198" y="553" on="0"/>
        <pt x="182" y="552" on="1"/>
        <pt x="182" y="71" on="1"/>
        <pt x="201" y="69" on="0"/>
        <pt x="238" y="66" on="0"/>
        <pt x="254" y="66" on="1"/>
        <pt x="373" y="66" on="0"/>
        <pt x="484" y="191" on="0"/>
      </contour>
    </TTGlyph>
    <TTGlyph name="D.sc" xMin="88" yMin="-7" xMax="512" yMax="535">
      <contour>
        <pt x="512" y="273" on="1"/>
        <pt x="512" y="143" on="0"/>
        <pt x="344" y="-7" on="0"/>
        <pt x="188" y="-7" on="1"/>
        <pt x="164" y="-7" on="0"/>
        <pt x="114" y="-4" on="0"/>
        <pt x="88" y="0" on="1"/>
        <pt x="88" y="527" on="1"/>
        <pt x="120" y="531" on="0"/>
        <pt x="180" y="535" on="0"/>
        <pt x="208" y="535" on="1"/>
        <pt x="365" y="535" on="0"/>
        <pt x="512" y="403" on="0"/>
      </contour>
      <contour>
        <pt x="428" y="260" on="1"/>
        <pt x="428" y="360" on="0"/>
        <pt x="334" y="467" on="0"/>
        <pt x="224" y="467" on="1"/>
        <pt x="212" y="467" on="0"/>
        <pt x="186" y="465" on="0"/>
        <pt x="172" y="464" on="1"/>
        <pt x="172" y="66" on="1"/>
        <pt x="189" y="64" on="0"/>
        <pt x="221" y="61" on="0"/>
        <pt x="235" y="61" on="1"/>
        <pt x="335" y="61" on="0"/>
        <pt x="428" y="165" on="0"/>
      </contour>
    </TTGlyph>
    <TTGlyph name="Dcaron" xMin="97" yMin="-8" xMax="568" yMax="886">
      <contour>
        <pt x="307" y="691" on="1"/>
        <pt x="306" y="691" on="1"/>
        <pt x="139" y="833" on="1"/>
        <pt x="194" y="886" on="1"/>
        <pt x="313" y="778" on="1"/>
        <pt x="430" y="886" on="1"/>
        <pt x="472" y="844" on="1"/>
      </contour>
      <contour>
        <pt x="568" y="321" on="1"/>
        <pt x="568" y="168" on="0"/>
        <pt x="377" y="-8" on="0"/>
        <pt x="205" y="-8" on="1"/>
        <pt x="180" y="-8" on="0"/>
        <pt x="125" y="-4" on="0"/>
        <pt x="97" y="0" on="1"/>
        <pt x="97" y="620" on="1"/>
        <pt x="134" y="624" on="0"/>
        <pt x="201" y="630" on="0"/>
        <pt x="232" y="630" on="1"/>
        <pt x="405" y="630" on="0"/>
        <pt x="568" y="474" on="0"/>
      </contour>
      <contour>
        <pt x="484" y="306" on="1"/>
        <pt x="484" y="426" on="0"/>
        <pt x="373" y="556" on="0"/>
        <pt x="245" y="556" on="1"/>
        <pt x="231" y="556" on="0"/>
        <pt x="198" y="553" on="0"/>
        <pt x="182" y="552" on="1"/>
        <pt x="182" y="71" on="1"/>
        <pt x="201" y="69" on="0"/>
        <pt x="238" y="66" on="0"/>
        <pt x="254" y="66" on="1"/>
        <pt x="373" y="66" on="0"/>
        <pt x="484" y="191" on="0"/>
      </contour>
    </TTGlyph>
    <TTGlyph name="Dcaron.sc" xMin="88" yMin="-7" xMax="512" yMax="792">
      <contour>
        <pt x="279" y="597" on="1"/>
        <pt x="278" y="597" on="1"/>
        <pt x="111" y="739" on="1"/>
        <pt x="166" y="792" on="1"/>
        <pt x="285" y="684" on="1"/>
        <pt x="402" y="792" on="1"/>
        <pt x="444" y="750" on="1"/>
      </contour>
      <contour>
        <pt x="512" y="273" on="1"/>
        <pt x="512" y="143" on="0"/>
        <pt x="344" y="-7" on="0"/>
        <pt x="188" y="-7" on="1"/>
        <pt x="164" y="-7" on="0"/>
        <pt x="114" y="-4" on="0"/>
        <pt x="88" y="0" on="1"/>
        <pt x="88" y="527" on="1"/>
        <pt x="120" y="531" on="0"/>
        <pt x="180" y="535" on="0"/>
        <pt x="208" y="535" on="1"/>
        <pt x="365" y="535" on="0"/>
        <pt x="512" y="403" on="0"/>
      </contour>
      <contour>
        <pt x="428" y="260" on="1"/>
        <pt x="428" y="360" on="0"/>
        <pt x="334" y="467" on="0"/>
        <pt x="224" y="467" on="1"/>
        <pt x="212" y="467" on="0"/>
        <pt x="186" y="465" on="0"/>
        <pt x="172" y="464" on="1"/>
        <pt x="172" y="66" on="1"/>
        <pt x="189" y="64" on="0"/>
        <pt x="221" y="61" on="0"/>
        <pt x="235" y="61" on="1"/>
        <pt x="335" y="61" on="0"/>
        <pt x="428" y="165" on="0"/>
      </contour>
    </TTGlyph>
    <TTGlyph name="Dcroat" xMin="27" yMin="-8" xMax="568" yMax="630">
      <contour>
        <pt x="205" y="-8" on="1"/>
        <pt x="180" y="-8" on="0"/>
        <pt x="125" y="-4" on="0"/>
        <pt x="97" y="0" on="1"/>
        <pt x="97" y="280" on="1"/>
        <pt x="27" y="280" on="1"/>
        <pt x="27" y="346" on="1"/>
        <pt x="97" y="346" on="1"/>
        <pt x="97" y="620" on="1"/>
        <pt x="134" y="624" on="0"/>
        <pt x="201" y="630" on="0"/>
        <pt x="232" y="630" on="1"/>
        <pt x="405" y="630" on="0"/>
        <pt x="568" y="474" on="0"/>
        <pt x="568" y="321" on="1"/>
        <pt x="568" y="168" on="0"/>
        <pt x="377" y="-8" on="0"/>
      </contour>
      <contour>
        <pt x="254" y="66" on="1"/>
        <pt x="373" y="66" on="0"/>
        <pt x="484" y="191" on="0"/>
        <pt x="484" y="306" on="1"/>
        <pt x="484" y="426" on="0"/>
        <pt x="373" y="556" on="0"/>
        <pt x="245" y="556" on="1"/>
        <pt x="231" y="556" on="0"/>
        <pt x="198" y="553" on="0"/>
        <pt x="182" y="552" on="1"/>
        <pt x="182" y="346" on="1"/>
        <pt x="329" y="346" on="1"/>
        <pt x="325" y="280" on="1"/>
        <pt x="182" y="280" on="1"/>
        <pt x="182" y="71" on="1"/>
        <pt x="201" y="69" on="0"/>
        <pt x="238" y="66" on="0"/>
      </contour>
    </TTGlyph>
    <TTGlyph name="Dcroat.sc" xMin="27" yMin="-7" xMax="512" yMax="535">
      <contour>
        <pt x="188" y="-7" on="1"/>
        <pt x="164" y="-7" on="0"/>
        <pt x="114" y="-4" on="0"/>
        <pt x="88" y="0" on="1"/>
        <pt x="88" y="237" on="1"/>
        <pt x="27" y="237" on="1"/>
        <pt x="27" y="297" on="1"/>
        <pt x="88" y="297" on="1"/>
        <pt x="88" y="527" on="1"/>
        <pt x="120" y="531" on="0"/>
        <pt x="180" y="535" on="0"/>
        <pt x="208" y="535" on="1"/>
        <pt x="365" y="535" on="0"/>
        <pt x="512" y="403" on="0"/>
        <pt x="512" y="273" on="1"/>
        <pt x="512" y="143" on="0"/>
        <pt x="344" y="-7" on="0"/>
      </contour>
      <contour>
        <pt x="235" y="61" on="1"/>
        <pt x="335" y="61" on="0"/>
        <pt x="428" y="165" on="0"/>
        <pt x="428" y="260" on="1"/>
        <pt x="428" y="360" on="0"/>
        <pt x="334" y="467" on="0"/>
        <pt x="224" y="467" on="1"/>
        <pt x="212" y="467" on="0"/>
        <pt x="186" y="465" on="0"/>
        <pt x="172" y="464" on="1"/>
        <pt x="172" y="297" on="1"/>
        <pt x="295" y="297" on="1"/>
        <pt x="292" y="237" on="1"/>
        <pt x="172" y="237" on="1"/>
        <pt x="172" y="66" on="1"/>
        <pt x="189" y="64" on="0"/>
        <pt x="221" y="61" on="0"/>
      </contour>
    </TTGlyph>
    <TTGlyph name="E" xMin="97" yMin="0" xMax="464" yMax="620">
      <contour>
        <pt x="464" y="76" on="1"/>
        <pt x="455" y="0" on="1"/>
        <pt x="97" y="0" on="1"/>
        <pt x="97" y="620" on="1"/>
        <pt x="459" y="620" on="1"/>
        <pt x="459" y="544" on="1"/>
        <pt x="182" y="544" on="1"/>
        <pt x="182" y="346" on="1"/>
        <pt x="422" y="346" on="1"/>
        <pt x="422" y="280" on="1"/>
        <pt x="182" y="280" on="1"/>
        <pt x="182" y="76" on="1"/>
      </contour>
    </TTGlyph>
    <TTGlyph name="E.sc" xMin="88" yMin="0" xMax="418" yMax="527">
      <contour>
        <pt x="418" y="71" on="1"/>
        <pt x="411" y="0" on="1"/>
        <pt x="88" y="0" on="1"/>
        <pt x="88" y="527" on="1"/>
        <pt x="414" y="527" on="1"/>
        <pt x="414" y="456" on="1"/>
        <pt x="172" y="456" on="1"/>
        <pt x="172" y="296" on="1"/>
        <pt x="381" y="296" on="1"/>
        <pt x="381" y="236" on="1"/>
        <pt x="172" y="236" on="1"/>
        <pt x="172" y="71" on="1"/>
      </contour>
    </TTGlyph>
    <TTGlyph name="Eacute" xMin="97" yMin="0" xMax="464" yMax="904">
      <contour>
        <pt x="176" y="727" on="1"/>
        <pt x="194" y="741" on="0"/>
        <pt x="243" y="784" on="0"/>
        <pt x="292" y="832" on="0"/>
        <pt x="339" y="883" on="0"/>
        <pt x="356" y="904" on="1"/>
        <pt x="423" y="838" on="1"/>
        <pt x="402" y="819" on="0"/>
        <pt x="345" y="776" on="0"/>
        <pt x="283" y="735" on="0"/>
        <pt x="223" y="699" on="0"/>
        <pt x="200" y="687" on="1"/>
      </contour>
      <contour>
        <pt x="464" y="76" on="1"/>
        <pt x="455" y="0" on="1"/>
        <pt x="97" y="0" on="1"/>
        <pt x="97" y="620" on="1"/>
        <pt x="459" y="620" on="1"/>
        <pt x="459" y="544" on="1"/>
        <pt x="182" y="544" on="1"/>
        <pt x="182" y="346" on="1"/>
        <pt x="422" y="346" on="1"/>
        <pt x="422" y="280" on="1"/>
        <pt x="182" y="280" on="1"/>
        <pt x="182" y="76" on="1"/>
      </contour>
    </TTGlyph>
    <TTGlyph name="Eacute.sc" xMin="88" yMin="0" xMax="418" yMax="811">
      <contour>
        <pt x="148" y="634" on="1"/>
        <pt x="166" y="648" on="0"/>
        <pt x="215" y="691" on="0"/>
        <pt x="264" y="739" on="0"/>
        <pt x="311" y="790" on="0"/>
        <pt x="328" y="811" on="1"/>
        <pt x="395" y="745" on="1"/>
        <pt x="374" y="726" on="0"/>
        <pt x="317" y="683" on="0"/>
        <pt x="255" y="642" on="0"/>
        <pt x="195" y="606" on="0"/>
        <pt x="172" y="594" on="1"/>
      </contour>
      <contour>
        <pt x="418" y="71" on="1"/>
        <pt x="411" y="0" on="1"/>
        <pt x="88" y="0" on="1"/>
        <pt x="88" y="527" on="1"/>
        <pt x="414" y="527" on="1"/>
        <pt x="414" y="456" on="1"/>
        <pt x="172" y="456" on="1"/>
        <pt x="172" y="296" on="1"/>
        <pt x="381" y="296" on="1"/>
        <pt x="381" y="236" on="1"/>
        <pt x="172" y="236" on="1"/>
        <pt x="172" y="71" on="1"/>
      </contour>
    </TTGlyph>
    <TTGlyph name="Ebreve" xMin="97" yMin="0" xMax="464" yMax="874">
      <contour>
        <pt x="277" y="693" on="1"/>
        <pt x="230" y="693" on="0"/>
        <pt x="141" y="763" on="0"/>
        <pt x="104" y="835" on="1"/>
        <pt x="164" y="874" on="1"/>
        <pt x="198" y="815" on="0"/>
        <pt x="252" y="763" on="0"/>
        <pt x="285" y="763" on="1"/>
        <pt x="319" y="763" on="0"/>
        <pt x="377" y="818" on="0"/>
        <pt x="408" y="869" on="1"/>
        <pt x="458" y="841" on="1"/>
        <pt x="418" y="772" on="0"/>
        <pt x="325" y="693" on="0"/>
      </contour>
      <contour>
        <pt x="464" y="76" on="1"/>
        <pt x="455" y="0" on="1"/>
        <pt x="97" y="0" on="1"/>
        <pt x="97" y="620" on="1"/>
        <pt x="459" y="620" on="1"/>
        <pt x="459" y="544" on="1"/>
        <pt x="182" y="544" on="1"/>
        <pt x="182" y="346" on="1"/>
        <pt x="422" y="346" on="1"/>
        <pt x="422" y="280" on="1"/>
        <pt x="182" y="280" on="1"/>
        <pt x="182" y="76" on="1"/>
      </contour>
    </TTGlyph>
    <TTGlyph name="Ebreve.sc" xMin="76" yMin="0" xMax="430" yMax="781">
      <contour>
        <pt x="249" y="600" on="1"/>
        <pt x="202" y="600" on="0"/>
        <pt x="113" y="670" on="0"/>
        <pt x="76" y="742" on="1"/>
        <pt x="136" y="781" on="1"/>
        <pt x="170" y="722" on="0"/>
        <pt x="224" y="670" on="0"/>
        <pt x="257" y="670" on="1"/>
        <pt x="291" y="670" on="0"/>
        <pt x="349" y="725" on="0"/>
        <pt x="380" y="776" on="1"/>
        <pt x="430" y="748" on="1"/>
        <pt x="390" y="679" on="0"/>
        <pt x="297" y="600" on="0"/>
      </contour>
      <contour>
        <pt x="418" y="71" on="1"/>
        <pt x="411" y="0" on="1"/>
        <pt x="88" y="0" on="1"/>
        <pt x="88" y="527" on="1"/>
        <pt x="414" y="527" on="1"/>
        <pt x="414" y="456" on="1"/>
        <pt x="172" y="456" on="1"/>
        <pt x="172" y="296" on="1"/>
        <pt x="381" y="296" on="1"/>
        <pt x="381" y="236" on="1"/>
        <pt x="172" y="236" on="1"/>
        <pt x="172" y="71" on="1"/>
      </contour>
    </TTGlyph>
    <TTGlyph name="Ecaron" xMin="97" yMin="0" xMax="464" yMax="878">
      <contour>
        <pt x="284" y="683" on="1"/>
        <pt x="283" y="683" on="1"/>
        <pt x="116" y="825" on="1"/>
        <pt x="171" y="878" on="1"/>
        <pt x="290" y="770" on="1"/>
        <pt x="407" y="878" on="1"/>
        <pt x="449" y="836" on="1"/>
      </contour>
      <contour>
        <pt x="464" y="76" on="1"/>
        <pt x="455" y="0" on="1"/>
        <pt x="97" y="0" on="1"/>
        <pt x="97" y="620" on="1"/>
        <pt x="459" y="620" on="1"/>
        <pt x="459" y="544" on="1"/>
        <pt x="182" y="544" on="1"/>
        <pt x="182" y="346" on="1"/>
        <pt x="422" y="346" on="1"/>
        <pt x="422" y="280" on="1"/>
        <pt x="182" y="280" on="1"/>
        <pt x="182" y="76" on="1"/>
      </contour>
    </TTGlyph>
    <TTGlyph name="Ecaron.sc" xMin="87" yMin="0" xMax="420" yMax="785">
      <contour>
        <pt x="255" y="590" on="1"/>
        <pt x="254" y="590" on="1"/>
        <pt x="87" y="732" on="1"/>
        <pt x="142" y="785" on="1"/>
        <pt x="261" y="677" on="1"/>
        <pt x="378" y="785" on="1"/>
        <pt x="420" y="743" on="1"/>
      </contour>
      <contour>
        <pt x="418" y="71" on="1"/>
        <pt x="411" y="0" on="1"/>
        <pt x="88" y="0" on="1"/>
        <pt x="88" y="527" on="1"/>
        <pt x="414" y="527" on="1"/>
        <pt x="414" y="456" on="1"/>
        <pt x="172" y="456" on="1"/>
        <pt x="172" y="296" on="1"/>
        <pt x="381" y="296" on="1"/>
        <pt x="381" y="236" on="1"/>
        <pt x="172" y="236" on="1"/>
        <pt x="172" y="71" on="1"/>
      </contour>
    </TTGlyph>
    <TTGlyph name="Ecircumflex" xMin="97" yMin="0" xMax="464" yMax="886">
      <contour>
        <pt x="395" y="690" on="1"/>
        <pt x="275" y="798" on="1"/>
        <pt x="158" y="691" on="1"/>
        <pt x="116" y="732" on="1"/>
        <pt x="281" y="886" on="1"/>
        <pt x="282" y="886" on="1"/>
        <pt x="449" y="743" on="1"/>
      </contour>
      <contour>
        <pt x="464" y="76" on="1"/>
        <pt x="455" y="0" on="1"/>
        <pt x="97" y="0" on="1"/>
        <pt x="97" y="620" on="1"/>
        <pt x="459" y="620" on="1"/>
        <pt x="459" y="544" on="1"/>
        <pt x="182" y="544" on="1"/>
        <pt x="182" y="346" on="1"/>
        <pt x="422" y="346" on="1"/>
        <pt x="422" y="280" on="1"/>
        <pt x="182" y="280" on="1"/>
        <pt x="182" y="76" on="1"/>
      </contour>
    </TTGlyph>
    <TTGlyph name="Ecircumflex.sc" xMin="88" yMin="0" xMax="421" yMax="793">
      <contour>
        <pt x="367" y="597" on="1"/>
        <pt x="247" y="705" on="1"/>
        <pt x="130" y="598" on="1"/>
        <pt x="88" y="639" on="1"/>
        <pt x="253" y="793" on="1"/>
        <pt x="254" y="793" on="1"/>
        <pt x="421" y="650" on="1"/>
      </contour>
      <contour>
        <pt x="418" y="71" on="1"/>
        <pt x="411" y="0" on="1"/>
        <pt x="88" y="0" on="1"/>
        <pt x="88" y="527" on="1"/>
        <pt x="414" y="527" on="1"/>
        <pt x="414" y="456" on="1"/>
        <pt x="172" y="456" on="1"/>
        <pt x="172" y="296" on="1"/>
        <pt x="381" y="296" on="1"/>
        <pt x="381" y="236" on="1"/>
        <pt x="172" y="236" on="1"/>
        <pt x="172" y="71" on="1"/>
      </contour>
    </TTGlyph>
    <TTGlyph name="Edieresis" xMin="97" yMin="0" xMax="464" yMax="832">
      <contour>
        <pt x="421" y="699" on="1"/>
        <pt x="335" y="699" on="1"/>
        <pt x="337" y="832" on="1"/>
        <pt x="423" y="832" on="1"/>
      </contour>
      <contour>
        <pt x="220" y="699" on="1"/>
        <pt x="135" y="699" on="1"/>
        <pt x="136" y="832" on="1"/>
        <pt x="223" y="832" on="1"/>
      </contour>
      <contour>
        <pt x="464" y="76" on="1"/>
        <pt x="455" y="0" on="1"/>
        <pt x="97" y="0" on="1"/>
        <pt x="97" y="620" on="1"/>
        <pt x="459" y="620" on="1"/>
        <pt x="459" y="544" on="1"/>
        <pt x="182" y="544" on="1"/>
        <pt x="182" y="346" on="1"/>
        <pt x="422" y="346" on="1"/>
        <pt x="422" y="280" on="1"/>
        <pt x="182" y="280" on="1"/>
        <pt x="182" y="76" on="1"/>
      </contour>
    </TTGlyph>
    <TTGlyph name="Edieresis.sc" xMin="88" yMin="0" xMax="418" yMax="739">
      <contour>
        <pt x="392" y="606" on="1"/>
        <pt x="306" y="606" on="1"/>
        <pt x="308" y="739" on="1"/>
        <pt x="394" y="739" on="1"/>
      </contour>
      <contour>
        <pt x="191" y="606" on="1"/>
        <pt x="106" y="606" on="1"/>
        <pt x="107" y="739" on="1"/>
        <pt x="194" y="739" on="1"/>
      </contour>
      <contour>
        <pt x="418" y="71" on="1"/>
        <pt x="411" y="0" on="1"/>
        <pt x="88" y="0" on="1"/>
        <pt x="88" y="527" on="1"/>
        <pt x="414" y="527" on="1"/>
        <pt x="414" y="456" on="1"/>
        <pt x="172" y="456" on="1"/>
        <pt x="172" y="296" on="1"/>
        <pt x="381" y="296" on="1"/>
        <pt x="381" y="236" on="1"/>
        <pt x="172" y="236" on="1"/>
        <pt x="172" y="71" on="1"/>
      </contour>
    </TTGlyph>
    <TTGlyph name="Edotaccent" xMin="97" yMin="0" xMax="464" yMax="832">
      <contour>
        <pt x="322" y="699" on="1"/>
        <pt x="236" y="699" on="1"/>
        <pt x="239" y="832" on="1"/>
        <pt x="325" y="832" on="1"/>
      </contour>
      <contour>
        <pt x="464" y="76" on="1"/>
        <pt x="455" y="0" on="1"/>
        <pt x="97" y="0" on="1"/>
        <pt x="97" y="620" on="1"/>
        <pt x="459" y="620" on="1"/>
        <pt x="459" y="544" on="1"/>
        <pt x="182" y="544" on="1"/>
        <pt x="182" y="346" on="1"/>
        <pt x="422" y="346" on="1"/>
        <pt x="422" y="280" on="1"/>
        <pt x="182" y="280" on="1"/>
        <pt x="182" y="76" on="1"/>
      </contour>
    </TTGlyph>
    <TTGlyph name="Edotaccent.sc" xMin="88" yMin="0" xMax="418" yMax="739">
      <contour>
        <pt x="294" y="606" on="1"/>
        <pt x="208" y="606" on="1"/>
        <pt x="211" y="739" on="1"/>
        <pt x="297" y="739" on="1"/>
      </contour>
      <contour>
        <pt x="418" y="71" on="1"/>
        <pt x="411" y="0" on="1"/>
        <pt x="88" y="0" on="1"/>
        <pt x="88" y="527" on="1"/>
        <pt x="414" y="527" on="1"/>
        <pt x="414" y="456" on="1"/>
        <pt x="172" y="456" on="1"/>
        <pt x="172" y="296" on="1"/>
        <pt x="381" y="296" on="1"/>
        <pt x="381" y="236" on="1"/>
        <pt x="172" y="236" on="1"/>
        <pt x="172" y="71" on="1"/>
      </contour>
    </TTGlyph>
    <TTGlyph name="Egrave" xMin="97" yMin="0" xMax="464" yMax="902">
      <contour>
        <pt x="372" y="722" on="1"/>
        <pt x="346" y="683" on="1"/>
        <pt x="324" y="695" on="0"/>
        <pt x="265" y="731" on="0"/>
        <pt x="205" y="771" on="0"/>
        <pt x="147" y="812" on="0"/>
        <pt x="125" y="830" on="1"/>
        <pt x="187" y="902" on="1"/>
        <pt x="205" y="882" on="0"/>
        <pt x="254" y="831" on="0"/>
        <pt x="306" y="781" on="0"/>
        <pt x="355" y="736" on="0"/>
      </contour>
      <contour>
        <pt x="464" y="76" on="1"/>
        <pt x="455" y="0" on="1"/>
        <pt x="97" y="0" on="1"/>
        <pt x="97" y="620" on="1"/>
        <pt x="459" y="620" on="1"/>
        <pt x="459" y="544" on="1"/>
        <pt x="182" y="544" on="1"/>
        <pt x="182" y="346" on="1"/>
        <pt x="422" y="346" on="1"/>
        <pt x="422" y="280" on="1"/>
        <pt x="182" y="280" on="1"/>
        <pt x="182" y="76" on="1"/>
      </contour>
    </TTGlyph>
    <TTGlyph name="Egrave.sc" xMin="88" yMin="0" xMax="418" yMax="809">
      <contour>
        <pt x="344" y="629" on="1"/>
        <pt x="318" y="590" on="1"/>
        <pt x="296" y="602" on="0"/>
        <pt x="237" y="638" on="0"/>
        <pt x="177" y="678" on="0"/>
        <pt x="119" y="719" on="0"/>
        <pt x="97" y="737" on="1"/>
        <pt x="159" y="809" on="1"/>
        <pt x="177" y="789" on="0"/>
        <pt x="226" y="738" on="0"/>
        <pt x="278" y="688" on="0"/>
        <pt x="327" y="643" on="0"/>
      </contour>
      <contour>
        <pt x="418" y="71" on="1"/>
        <pt x="411" y="0" on="1"/>
        <pt x="88" y="0" on="1"/>
        <pt x="88" y="527" on="1"/>
        <pt x="414" y="527" on="1"/>
        <pt x="414" y="456" on="1"/>
        <pt x="172" y="456" on="1"/>
        <pt x="172" y="296" on="1"/>
        <pt x="381" y="296" on="1"/>
        <pt x="381" y="236" on="1"/>
        <pt x="172" y="236" on="1"/>
        <pt x="172" y="71" on="1"/>
      </contour>
    </TTGlyph>
    <TTGlyph name="Emacron" xMin="97" yMin="0" xMax="464" yMax="805">
      <contour>
        <pt x="432" y="805" on="1"/>
        <pt x="432" y="730" on="1"/>
        <pt x="122" y="730" on="1"/>
        <pt x="122" y="805" on="1"/>
      </contour>
      <contour>
        <pt x="464" y="76" on="1"/>
        <pt x="455" y="0" on="1"/>
        <pt x="97" y="0" on="1"/>
        <pt x="97" y="620" on="1"/>
        <pt x="459" y="620" on="1"/>
        <pt x="459" y="544" on="1"/>
        <pt x="182" y="544" on="1"/>
        <pt x="182" y="346" on="1"/>
        <pt x="422" y="346" on="1"/>
        <pt x="422" y="280" on="1"/>
        <pt x="182" y="280" on="1"/>
        <pt x="182" y="76" on="1"/>
      </contour>
    </TTGlyph>
    <TTGlyph name="Emacron.sc" xMin="88" yMin="0" xMax="418" yMax="712">
      <contour>
        <pt x="403" y="712" on="1"/>
        <pt x="403" y="637" on="1"/>
        <pt x="93" y="637" on="1"/>
        <pt x="93" y="712" on="1"/>
      </contour>
      <contour>
        <pt x="418" y="71" on="1"/>
        <pt x="411" y="0" on="1"/>
        <pt x="88" y="0" on="1"/>
        <pt x="88" y="527" on="1"/>
        <pt x="414" y="527" on="1"/>
        <pt x="414" y="456" on="1"/>
        <pt x="172" y="456" on="1"/>
        <pt x="172" y="296" on="1"/>
        <pt x="381" y="296" on="1"/>
        <pt x="381" y="236" on="1"/>
        <pt x="172" y="236" on="1"/>
        <pt x="172" y="71" on="1"/>
      </contour>
    </TTGlyph>
    <TTGlyph name="Eogonek" xMin="97" yMin="-215" xMax="464" yMax="620">
      <contour>
        <pt x="442" y="-147" on="1"/>
        <pt x="435" y="-215" on="1"/>
        <pt x="339" y="-205" on="0"/>
        <pt x="260" y="-152" on="0"/>
        <pt x="260" y="-115" on="1"/>
        <pt x="260" y="-89" on="0"/>
        <pt x="303" y="-31" on="0"/>
        <pt x="357" y="0" on="1"/>
        <pt x="97" y="0" on="1"/>
        <pt x="97" y="620" on="1"/>
        <pt x="459" y="620" on="1"/>
        <pt x="459" y="544" on="1"/>
        <pt x="182" y="544" on="1"/>
        <pt x="182" y="346" on="1"/>
        <pt x="422" y="346" on="1"/>
        <pt x="422" y="280" on="1"/>
        <pt x="182" y="280" on="1"/>
        <pt x="182" y="76" on="1"/>
        <pt x="464" y="76" on="1"/>
        <pt x="455" y="0" on="1"/>
        <pt x="382" y="-34" on="0"/>
        <pt x="333" y="-80" on="0"/>
        <pt x="333" y="-96" on="1"/>
        <pt x="333" y="-115" on="0"/>
        <pt x="388" y="-139" on="0"/>
      </contour>
    </TTGlyph>
    <TTGlyph name="Eogonek.sc" xMin="88" yMin="-215" xMax="418" yMax="527">
      <contour>
        <pt x="398" y="-147" on="1"/>
        <pt x="391" y="-215" on="1"/>
        <pt x="295" y="-205" on="0"/>
        <pt x="216" y="-152" on="0"/>
        <pt x="216" y="-115" on="1"/>
        <pt x="216" y="-89" on="0"/>
        <pt x="259" y="-31" on="0"/>
        <pt x="313" y="0" on="1"/>
        <pt x="88" y="0" on="1"/>
        <pt x="88" y="527" on="1"/>
        <pt x="414" y="527" on="1"/>
        <pt x="414" y="456" on="1"/>
        <pt x="172" y="456" on="1"/>
        <pt x="172" y="296" on="1"/>
        <pt x="381" y="296" on="1"/>
        <pt x="381" y="236" on="1"/>
        <pt x="172" y="236" on="1"/>
        <pt x="172" y="71" on="1"/>
        <pt x="418" y="71" on="1"/>
        <pt x="411" y="0" on="1"/>
        <pt x="338" y="-34" on="0"/>
        <pt x="289" y="-80" on="0"/>
        <pt x="289" y="-96" on="1"/>
        <pt x="289" y="-115" on="0"/>
        <pt x="344" y="-139" on="0"/>
      </contour>
    </TTGlyph>
    <TTGlyph name="Eth" xMin="27" yMin="-8" xMax="568" yMax="630">
      <contour>
        <pt x="205" y="-8" on="1"/>
        <pt x="180" y="-8" on="0"/>
        <pt x="125" y="-4" on="0"/>
        <pt x="97" y="0" on="1"/>
        <pt x="97" y="280" on="1"/>
        <pt x="27" y="280" on="1"/>
        <pt x="27" y="346" on="1"/>
        <pt x="97" y="346" on="1"/>
        <pt x="97" y="620" on="1"/>
        <pt x="134" y="624" on="0"/>
        <pt x="201" y="630" on="0"/>
        <pt x="232" y="630" on="1"/>
        <pt x="405" y="630" on="0"/>
        <pt x="568" y="474" on="0"/>
        <pt x="568" y="321" on="1"/>
        <pt x="568" y="168" on="0"/>
        <pt x="377" y="-8" on="0"/>
      </contour>
      <contour>
        <pt x="254" y="66" on="1"/>
        <pt x="373" y="66" on="0"/>
        <pt x="484" y="191" on="0"/>
        <pt x="484" y="306" on="1"/>
        <pt x="484" y="426" on="0"/>
        <pt x="373" y="556" on="0"/>
        <pt x="245" y="556" on="1"/>
        <pt x="231" y="556" on="0"/>
        <pt x="198" y="553" on="0"/>
        <pt x="182" y="552" on="1"/>
        <pt x="182" y="346" on="1"/>
        <pt x="329" y="346" on="1"/>
        <pt x="325" y="280" on="1"/>
        <pt x="182" y="280" on="1"/>
        <pt x="182" y="71" on="1"/>
        <pt x="201" y="69" on="0"/>
        <pt x="238" y="66" on="0"/>
      </contour>
    </TTGlyph>
    <TTGlyph name="Eth.sc" xMin="27" yMin="-7" xMax="512" yMax="535">
      <contour>
        <pt x="188" y="-7" on="1"/>
        <pt x="164" y="-7" on="0"/>
        <pt x="114" y="-4" on="0"/>
        <pt x="88" y="0" on="1"/>
        <pt x="88" y="237" on="1"/>
        <pt x="27" y="237" on="1"/>
        <pt x="27" y="297" on="1"/>
        <pt x="88" y="297" on="1"/>
        <pt x="88" y="527" on="1"/>
        <pt x="120" y="531" on="0"/>
        <pt x="180" y="535" on="0"/>
        <pt x="208" y="535" on="1"/>
        <pt x="365" y="535" on="0"/>
        <pt x="512" y="403" on="0"/>
        <pt x="512" y="273" on="1"/>
        <pt x="512" y="143" on="0"/>
        <pt x="344" y="-7" on="0"/>
      </contour>
      <contour>
        <pt x="235" y="61" on="1"/>
        <pt x="335" y="61" on="0"/>
        <pt x="428" y="165" on="0"/>
        <pt x="428" y="260" on="1"/>
        <pt x="428" y="360" on="0"/>
        <pt x="334" y="467" on="0"/>
        <pt x="224" y="467" on="1"/>
        <pt x="212" y="467" on="0"/>
        <pt x="186" y="465" on="0"/>
        <pt x="172" y="464" on="1"/>
        <pt x="172" y="297" on="1"/>
        <pt x="295" y="297" on="1"/>
        <pt x="292" y="237" on="1"/>
        <pt x="172" y="237" on="1"/>
        <pt x="172" y="66" on="1"/>
        <pt x="189" y="64" on="0"/>
        <pt x="221" y="61" on="0"/>
      </contour>
    </TTGlyph>
    <TTGlyph name="Euro" xMin="57" yMin="-22" xMax="485" yMax="643">
      <contour>
        <pt x="485" y="50" on="1"/>
        <pt x="472" y="-22" on="1"/>
        <pt x="317" y="-4" on="0"/>
        <pt x="160" y="102" on="0"/>
        <pt x="135" y="186" on="1"/>
        <pt x="58" y="186" on="1"/>
        <pt x="58" y="258" on="1"/>
        <pt x="121" y="258" on="1"/>
        <pt x="120" y="270" on="0"/>
        <pt x="119" y="296" on="0"/>
        <pt x="119" y="309" on="1"/>
        <pt x="119" y="319" on="0"/>
        <pt x="119" y="338" on="0"/>
        <pt x="120" y="348" on="1"/>
        <pt x="57" y="348" on="1"/>
        <pt x="57" y="420" on="1"/>
        <pt x="132" y="420" on="1"/>
        <pt x="155" y="498" on="0"/>
        <pt x="304" y="612" on="0"/>
        <pt x="463" y="643" on="1"/>
        <pt x="478" y="558" on="1"/>
        <pt x="344" y="538" on="0"/>
        <pt x="225" y="474" on="0"/>
        <pt x="209" y="414" on="1"/>
        <pt x="436" y="414" on="1"/>
        <pt x="432" y="348" on="1"/>
        <pt x="199" y="348" on="1"/>
        <pt x="198" y="340" on="0"/>
        <pt x="198" y="322" on="0"/>
        <pt x="198" y="313" on="1"/>
        <pt x="198" y="299" on="0"/>
        <pt x="199" y="273" on="0"/>
        <pt x="200" y="260" on="1"/>
        <pt x="430" y="260" on="1"/>
        <pt x="426" y="194" on="1"/>
        <pt x="215" y="194" on="1"/>
        <pt x="237" y="139" on="0"/>
        <pt x="360" y="69" on="0"/>
      </contour>
    </TTGlyph>
    <TTGlyph name="F" xMin="97" yMin="0" xMax="459" yMax="620">
      <contour>
        <pt x="422" y="270" on="1"/>
        <pt x="182" y="270" on="1"/>
        <pt x="182" y="0" on="1"/>
        <pt x="97" y="0" on="1"/>
        <pt x="97" y="620" on="1"/>
        <pt x="459" y="620" on="1"/>
        <pt x="459" y="544" on="1"/>
        <pt x="182" y="544" on="1"/>
        <pt x="182" y="336" on="1"/>
        <pt x="422" y="336" on="1"/>
      </contour>
    </TTGlyph>
    <TTGlyph name="F.sc" xMin="88" yMin="0" xMax="414" yMax="527">
      <contour>
        <pt x="381" y="226" on="1"/>
        <pt x="172" y="226" on="1"/>
        <pt x="172" y="0" on="1"/>
        <pt x="88" y="0" on="1"/>
        <pt x="88" y="527" on="1"/>
        <pt x="414" y="527" on="1"/>
        <pt x="414" y="455" on="1"/>
        <pt x="172" y="455" on="1"/>
        <pt x="172" y="287" on="1"/>
        <pt x="381" y="287" on="1"/>
      </contour>
    </TTGlyph>
    <TTGlyph name="G" xMin="57" yMin="-10" xMax="528" yMax="629">
      <contour>
        <pt x="379" y="-10" on="1"/>
        <pt x="224" y="-10" on="0"/>
        <pt x="57" y="155" on="0"/>
        <pt x="57" y="293" on="1"/>
        <pt x="57" y="359" on="0"/>
        <pt x="100" y="478" on="0"/>
        <pt x="201" y="570" on="0"/>
        <pt x="370" y="626" on="0"/>
        <pt x="495" y="629" on="1"/>
        <pt x="501" y="542" on="1"/>
        <pt x="491" y="542" on="1"/>
        <pt x="382" y="542" on="0"/>
        <pt x="246" y="510" on="0"/>
        <pt x="171" y="451" on="0"/>
        <pt x="144" y="365" on="0"/>
        <pt x="144" y="312" on="1"/>
        <pt x="144" y="196" on="0"/>
        <pt x="265" y="60" on="0"/>
        <pt x="404" y="60" on="1"/>
        <pt x="414" y="60" on="0"/>
        <pt x="435" y="61" on="0"/>
        <pt x="445" y="62" on="1"/>
        <pt x="444" y="110" on="0"/>
        <pt x="442" y="244" on="0"/>
        <pt x="442" y="310" on="1"/>
        <pt x="526" y="310" on="1"/>
        <pt x="526" y="214" on="0"/>
        <pt x="527" y="67" on="0"/>
        <pt x="528" y="7" on="1"/>
        <pt x="488" y="-2" on="0"/>
        <pt x="413" y="-10" on="0"/>
      </contour>
    </TTGlyph>
    <TTGlyph name="G.sc" xMin="52" yMin="-9" xMax="473" yMax="535">
      <contour>
        <pt x="343" y="-9" on="1"/>
        <pt x="201" y="-9" on="0"/>
        <pt x="52" y="132" on="0"/>
        <pt x="52" y="248" on="1"/>
        <pt x="52" y="304" on="0"/>
        <pt x="90" y="407" on="0"/>
        <pt x="181" y="484" on="0"/>
        <pt x="332" y="532" on="0"/>
        <pt x="444" y="535" on="1"/>
        <pt x="449" y="455" on="1"/>
        <pt x="433" y="455" on="1"/>
        <pt x="340" y="455" on="0"/>
        <pt x="224" y="429" on="0"/>
        <pt x="160" y="380" on="0"/>
        <pt x="137" y="309" on="0"/>
        <pt x="137" y="264" on="1"/>
        <pt x="137" y="168" on="0"/>
        <pt x="244" y="56" on="0"/>
        <pt x="366" y="56" on="1"/>
        <pt x="373" y="56" on="0"/>
        <pt x="388" y="56" on="0"/>
        <pt x="395" y="57" on="1"/>
        <pt x="394" y="97" on="0"/>
        <pt x="391" y="209" on="0"/>
        <pt x="391" y="263" on="1"/>
        <pt x="472" y="263" on="1"/>
        <pt x="472" y="182" on="0"/>
        <pt x="472" y="56" on="0"/>
        <pt x="473" y="5" on="1"/>
        <pt x="438" y="-2" on="0"/>
        <pt x="372" y="-9" on="0"/>
      </contour>
    </TTGlyph>
    <TTGlyph name="Gbreve" xMin="57" yMin="-10" xMax="528" yMax="880">
      <contour>
        <pt x="322" y="699" on="1"/>
        <pt x="275" y="699" on="0"/>
        <pt x="186" y="769" on="0"/>
        <pt x="149" y="841" on="1"/>
        <pt x="209" y="880" on="1"/>
        <pt x="243" y="821" on="0"/>
        <pt x="297" y="769" on="0"/>
        <pt x="330" y="769" on="1"/>
        <pt x="364" y="769" on="0"/>
        <pt x="422" y="824" on="0"/>
        <pt x="453" y="875" on="1"/>
        <pt x="503" y="847" on="1"/>
        <pt x="463" y="778" on="0"/>
        <pt x="370" y="699" on="0"/>
      </contour>
      <contour>
        <pt x="379" y="-10" on="1"/>
        <pt x="224" y="-10" on="0"/>
        <pt x="57" y="155" on="0"/>
        <pt x="57" y="293" on="1"/>
        <pt x="57" y="359" on="0"/>
        <pt x="100" y="478" on="0"/>
        <pt x="201" y="570" on="0"/>
        <pt x="370" y="626" on="0"/>
        <pt x="495" y="629" on="1"/>
        <pt x="501" y="542" on="1"/>
        <pt x="491" y="542" on="1"/>
        <pt x="382" y="542" on="0"/>
        <pt x="246" y="510" on="0"/>
        <pt x="171" y="451" on="0"/>
        <pt x="144" y="365" on="0"/>
        <pt x="144" y="312" on="1"/>
        <pt x="144" y="196" on="0"/>
        <pt x="265" y="60" on="0"/>
        <pt x="404" y="60" on="1"/>
        <pt x="414" y="60" on="0"/>
        <pt x="435" y="61" on="0"/>
        <pt x="445" y="62" on="1"/>
        <pt x="444" y="110" on="0"/>
        <pt x="442" y="244" on="0"/>
        <pt x="442" y="310" on="1"/>
        <pt x="526" y="310" on="1"/>
        <pt x="526" y="214" on="0"/>
        <pt x="527" y="67" on="0"/>
        <pt x="528" y="7" on="1"/>
        <pt x="488" y="-2" on="0"/>
        <pt x="413" y="-10" on="0"/>
      </contour>
    </TTGlyph>
    <TTGlyph name="Gbreve.sc" xMin="52" yMin="-9" xMax="473" yMax="787">
      <contour>
        <pt x="292" y="606" on="1"/>
        <pt x="245" y="606" on="0"/>
        <pt x="156" y="676" on="0"/>
        <pt x="119" y="748" on="1"/>
        <pt x="179" y="787" on="1"/>
        <pt x="213" y="728" on="0"/>
        <pt x="267" y="676" on="0"/>
        <pt x="300" y="676" on="1"/>
        <pt x="334" y="676" on="0"/>
        <pt x="392" y="731" on="0"/>
        <pt x="423" y="782" on="1"/>
        <pt x="473" y="754" on="1"/>
        <pt x="433" y="685" on="0"/>
        <pt x="340" y="606" on="0"/>
      </contour>
      <contour>
        <pt x="343" y="-9" on="1"/>
        <pt x="201" y="-9" on="0"/>
        <pt x="52" y="132" on="0"/>
        <pt x="52" y="248" on="1"/>
        <pt x="52" y="304" on="0"/>
        <pt x="90" y="407" on="0"/>
        <pt x="181" y="484" on="0"/>
        <pt x="332" y="532" on="0"/>
        <pt x="444" y="535" on="1"/>
        <pt x="449" y="455" on="1"/>
        <pt x="433" y="455" on="1"/>
        <pt x="340" y="455" on="0"/>
        <pt x="224" y="429" on="0"/>
        <pt x="160" y="380" on="0"/>
        <pt x="137" y="309" on="0"/>
        <pt x="137" y="264" on="1"/>
        <pt x="137" y="168" on="0"/>
        <pt x="244" y="56" on="0"/>
        <pt x="366" y="56" on="1"/>
        <pt x="373" y="56" on="0"/>
        <pt x="388" y="56" on="0"/>
        <pt x="395" y="57" on="1"/>
        <pt x="394" y="97" on="0"/>
        <pt x="391" y="209" on="0"/>
        <pt x="391" y="263" on="1"/>
        <pt x="472" y="263" on="1"/>
        <pt x="472" y="182" on="0"/>
        <pt x="472" y="56" on="0"/>
        <pt x="473" y="5" on="1"/>
        <pt x="438" y="-2" on="0"/>
        <pt x="372" y="-9" on="0"/>
      </contour>
    </TTGlyph>
    <TTGlyph name="Gcommaaccent" xMin="57" yMin="-285" xMax="528" yMax="629">
      <contour>
        <pt x="379" y="-10" on="1"/>
        <pt x="224" y="-10" on="0"/>
        <pt x="57" y="155" on="0"/>
        <pt x="57" y="293" on="1"/>
        <pt x="57" y="359" on="0"/>
        <pt x="100" y="478" on="0"/>
        <pt x="201" y="570" on="0"/>
        <pt x="370" y="626" on="0"/>
        <pt x="495" y="629" on="1"/>
        <pt x="501" y="542" on="1"/>
        <pt x="491" y="542" on="1"/>
        <pt x="382" y="542" on="0"/>
        <pt x="246" y="510" on="0"/>
        <pt x="171" y="451" on="0"/>
        <pt x="144" y="365" on="0"/>
        <pt x="144" y="312" on="1"/>
        <pt x="144" y="196" on="0"/>
        <pt x="265" y="60" on="0"/>
        <pt x="404" y="60" on="1"/>
        <pt x="414" y="60" on="0"/>
        <pt x="435" y="61" on="0"/>
        <pt x="445" y="62" on="1"/>
        <pt x="444" y="110" on="0"/>
        <pt x="442" y="244" on="0"/>
        <pt x="442" y="310" on="1"/>
        <pt x="526" y="310" on="1"/>
        <pt x="526" y="214" on="0"/>
        <pt x="527" y="67" on="0"/>
        <pt x="528" y="7" on="1"/>
        <pt x="488" y="-2" on="0"/>
        <pt x="413" y="-10" on="0"/>
      </contour>
      <contour>
        <pt x="263" y="-273" on="1"/>
        <pt x="273" y="-248" on="0"/>
        <pt x="282" y="-198" on="0"/>
        <pt x="282" y="-174" on="1"/>
        <pt x="282" y="-150" on="0"/>
        <pt x="275" y="-104" on="0"/>
        <pt x="268" y="-84" on="1"/>
        <pt x="269" y="-84" on="0"/>
        <pt x="301" y="-82" on="0"/>
        <pt x="338" y="-81" on="0"/>
        <pt x="370" y="-79" on="0"/>
        <pt x="371" y="-79" on="1"/>
        <pt x="371" y="-83" on="0"/>
        <pt x="372" y="-93" on="0"/>
        <pt x="372" y="-98" on="1"/>
        <pt x="372" y="-144" on="0"/>
        <pt x="339" y="-247" on="0"/>
        <pt x="308" y="-285" on="1"/>
      </contour>
    </TTGlyph>
    <TTGlyph name="Gcommaaccent.sc" xMin="52" yMin="-284" xMax="473" yMax="535">
      <contour>
        <pt x="343" y="-9" on="1"/>
        <pt x="201" y="-9" on="0"/>
        <pt x="52" y="132" on="0"/>
        <pt x="52" y="248" on="1"/>
        <pt x="52" y="304" on="0"/>
        <pt x="90" y="407" on="0"/>
        <pt x="181" y="484" on="0"/>
        <pt x="332" y="532" on="0"/>
        <pt x="444" y="535" on="1"/>
        <pt x="449" y="455" on="1"/>
        <pt x="433" y="455" on="1"/>
        <pt x="340" y="455" on="0"/>
        <pt x="224" y="429" on="0"/>
        <pt x="160" y="380" on="0"/>
        <pt x="137" y="309" on="0"/>
        <pt x="137" y="264" on="1"/>
        <pt x="137" y="168" on="0"/>
        <pt x="244" y="56" on="0"/>
        <pt x="366" y="56" on="1"/>
        <pt x="373" y="56" on="0"/>
        <pt x="388" y="56" on="0"/>
        <pt x="395" y="57" on="1"/>
        <pt x="394" y="97" on="0"/>
        <pt x="391" y="209" on="0"/>
        <pt x="391" y="263" on="1"/>
        <pt x="472" y="263" on="1"/>
        <pt x="472" y="182" on="0"/>
        <pt x="472" y="56" on="0"/>
        <pt x="473" y="5" on="1"/>
        <pt x="438" y="-2" on="0"/>
        <pt x="372" y="-9" on="0"/>
      </contour>
      <contour>
        <pt x="234" y="-272" on="1"/>
        <pt x="244" y="-247" on="0"/>
        <pt x="253" y="-197" on="0"/>
        <pt x="253" y="-173" on="1"/>
        <pt x="253" y="-149" on="0"/>
        <pt x="246" y="-103" on="0"/>
        <pt x="239" y="-83" on="1"/>
        <pt x="240" y="-83" on="0"/>
        <pt x="272" y="-81" on="0"/>
        <pt x="309" y="-80" on="0"/>
        <pt x="341" y="-78" on="0"/>
        <pt x="342" y="-78" on="1"/>
        <pt x="342" y="-82" on="0"/>
        <pt x="343" y="-92" on="0"/>
        <pt x="343" y="-97" on="1"/>
        <pt x="343" y="-143" on="0"/>
        <pt x="310" y="-246" on="0"/>
        <pt x="279" y="-284" on="1"/>
      </contour>
    </TTGlyph>
    <TTGlyph name="Gdotaccent" xMin="57" yMin="-10" xMax="528" yMax="838">
      <contour>
        <pt x="367" y="705" on="1"/>
        <pt x="281" y="705" on="1"/>
        <pt x="284" y="838" on="1"/>
        <pt x="370" y="838" on="1"/>
      </contour>
      <contour>
        <pt x="379" y="-10" on="1"/>
        <pt x="224" y="-10" on="0"/>
        <pt x="57" y="155" on="0"/>
        <pt x="57" y="293" on="1"/>
        <pt x="57" y="359" on="0"/>
        <pt x="100" y="478" on="0"/>
        <pt x="201" y="570" on="0"/>
        <pt x="370" y="626" on="0"/>
        <pt x="495" y="629" on="1"/>
        <pt x="501" y="542" on="1"/>
        <pt x="491" y="542" on="1"/>
        <pt x="382" y="542" on="0"/>
        <pt x="246" y="510" on="0"/>
        <pt x="171" y="451" on="0"/>
        <pt x="144" y="365" on="0"/>
        <pt x="144" y="312" on="1"/>
        <pt x="144" y="196" on="0"/>
        <pt x="265" y="60" on="0"/>
        <pt x="404" y="60" on="1"/>
        <pt x="414" y="60" on="0"/>
        <pt x="435" y="61" on="0"/>
        <pt x="445" y="62" on="1"/>
        <pt x="444" y="110" on="0"/>
        <pt x="442" y="244" on="0"/>
        <pt x="442" y="310" on="1"/>
        <pt x="526" y="310" on="1"/>
        <pt x="526" y="214" on="0"/>
        <pt x="527" y="67" on="0"/>
        <pt x="528" y="7" on="1"/>
        <pt x="488" y="-2" on="0"/>
        <pt x="413" y="-10" on="0"/>
      </contour>
    </TTGlyph>
    <TTGlyph name="Gdotaccent.sc" xMin="52" yMin="-9" xMax="473" yMax="745">
      <contour>
        <pt x="337" y="612" on="1"/>
        <pt x="251" y="612" on="1"/>
        <pt x="254" y="745" on="1"/>
        <pt x="340" y="745" on="1"/>
      </contour>
      <contour>
        <pt x="343" y="-9" on="1"/>
        <pt x="201" y="-9" on="0"/>
        <pt x="52" y="132" on="0"/>
        <pt x="52" y="248" on="1"/>
        <pt x="52" y="304" on="0"/>
        <pt x="90" y="407" on="0"/>
        <pt x="181" y="484" on="0"/>
        <pt x="332" y="532" on="0"/>
        <pt x="444" y="535" on="1"/>
        <pt x="449" y="455" on="1"/>
        <pt x="433" y="455" on="1"/>
        <pt x="340" y="455" on="0"/>
        <pt x="224" y="429" on="0"/>
        <pt x="160" y="380" on="0"/>
        <pt x="137" y="309" on="0"/>
        <pt x="137" y="264" on="1"/>
        <pt x="137" y="168" on="0"/>
        <pt x="244" y="56" on="0"/>
        <pt x="366" y="56" on="1"/>
        <pt x="373" y="56" on="0"/>
        <pt x="388" y="56" on="0"/>
        <pt x="395" y="57" on="1"/>
        <pt x="394" y="97" on="0"/>
        <pt x="391" y="209" on="0"/>
        <pt x="391" y="263" on="1"/>
        <pt x="472" y="263" on="1"/>
        <pt x="472" y="182" on="0"/>
        <pt x="472" y="56" on="0"/>
        <pt x="473" y="5" on="1"/>
        <pt x="438" y="-2" on="0"/>
        <pt x="372" y="-9" on="0"/>
      </contour>
    </TTGlyph>
    <TTGlyph name="H" xMin="97" yMin="0" xMax="556" yMax="620">
      <contour>
        <pt x="471" y="0" on="1"/>
        <pt x="471" y="280" on="1"/>
        <pt x="182" y="280" on="1"/>
        <pt x="182" y="0" on="1"/>
        <pt x="97" y="0" on="1"/>
        <pt x="97" y="620" on="1"/>
        <pt x="182" y="620" on="1"/>
        <pt x="182" y="346" on="1"/>
        <pt x="471" y="346" on="1"/>
        <pt x="471" y="620" on="1"/>
        <pt x="556" y="620" on="1"/>
        <pt x="556" y="0" on="1"/>
      </contour>
    </TTGlyph>
    <TTGlyph name="H.sc" xMin="88" yMin="0" xMax="502" yMax="527">
      <contour>
        <pt x="418" y="0" on="1"/>
        <pt x="418" y="235" on="1"/>
        <pt x="172" y="235" on="1"/>
        <pt x="172" y="0" on="1"/>
        <pt x="88" y="0" on="1"/>
        <pt x="88" y="527" on="1"/>
        <pt x="172" y="527" on="1"/>
        <pt x="172" y="298" on="1"/>
        <pt x="418" y="298" on="1"/>
        <pt x="418" y="527" on="1"/>
        <pt x="502" y="527" on="1"/>
        <pt x="502" y="0" on="1"/>
      </contour>
    </TTGlyph>
    <TTGlyph name="Hbar" xMin="27" yMin="0" xMax="626" yMax="620">
      <contour>
        <pt x="471" y="331" on="1"/>
        <pt x="471" y="442" on="1"/>
        <pt x="182" y="442" on="1"/>
        <pt x="182" y="331" on="1"/>
      </contour>
      <contour>
        <pt x="471" y="0" on="1"/>
        <pt x="471" y="264" on="1"/>
        <pt x="182" y="264" on="1"/>
        <pt x="182" y="0" on="1"/>
        <pt x="97" y="0" on="1"/>
        <pt x="97" y="439" on="1"/>
        <pt x="27" y="439" on="1"/>
        <pt x="27" y="505" on="1"/>
        <pt x="97" y="505" on="1"/>
        <pt x="97" y="620" on="1"/>
        <pt x="182" y="620" on="1"/>
        <pt x="182" y="502" on="1"/>
        <pt x="471" y="502" on="1"/>
        <pt x="471" y="620" on="1"/>
        <pt x="556" y="620" on="1"/>
        <pt x="556" y="505" on="1"/>
        <pt x="626" y="505" on="1"/>
        <pt x="626" y="439" on="1"/>
        <pt x="556" y="439" on="1"/>
        <pt x="556" y="0" on="1"/>
      </contour>
    </TTGlyph>
    <TTGlyph name="Hbar.sc" xMin="28" yMin="0" xMax="563" yMax="527">
      <contour>
        <pt x="418" y="286" on="1"/>
        <pt x="418" y="372" on="1"/>
        <pt x="172" y="372" on="1"/>
        <pt x="172" y="286" on="1"/>
      </contour>
      <contour>
        <pt x="418" y="0" on="1"/>
        <pt x="418" y="223" on="1"/>
        <pt x="172" y="223" on="1"/>
        <pt x="172" y="0" on="1"/>
        <pt x="88" y="0" on="1"/>
        <pt x="88" y="370" on="1"/>
        <pt x="28" y="370" on="1"/>
        <pt x="28" y="432" on="1"/>
        <pt x="88" y="432" on="1"/>
        <pt x="88" y="527" on="1"/>
        <pt x="172" y="527" on="1"/>
        <pt x="172" y="429" on="1"/>
        <pt x="418" y="429" on="1"/>
        <pt x="418" y="527" on="1"/>
        <pt x="502" y="527" on="1"/>
        <pt x="502" y="432" on="1"/>
        <pt x="563" y="432" on="1"/>
        <pt x="563" y="370" on="1"/>
        <pt x="502" y="370" on="1"/>
        <pt x="502" y="0" on="1"/>
      </contour>
    </TTGlyph>
    <TTGlyph name="I" xMin="69" yMin="0" xMax="431" yMax="620">
      <contour>
        <pt x="290" y="550" on="1"/>
        <pt x="290" y="70" on="1"/>
        <pt x="431" y="70" on="1"/>
        <pt x="425" y="0" on="1"/>
        <pt x="69" y="0" on="1"/>
        <pt x="69" y="70" on="1"/>
        <pt x="206" y="70" on="1"/>
        <pt x="206" y="550" on="1"/>
        <pt x="69" y="550" on="1"/>
        <pt x="69" y="620" on="1"/>
        <pt x="427" y="620" on="1"/>
        <pt x="427" y="550" on="1"/>
      </contour>
    </TTGlyph>
    <TTGlyph name="I.sc" xMin="60" yMin="0" xMax="387" yMax="527">
      <contour>
        <pt x="264" y="462" on="1"/>
        <pt x="264" y="65" on="1"/>
        <pt x="387" y="65" on="1"/>
        <pt x="382" y="0" on="1"/>
        <pt x="60" y="0" on="1"/>
        <pt x="60" y="65" on="1"/>
        <pt x="180" y="65" on="1"/>
        <pt x="180" y="462" on="1"/>
        <pt x="60" y="462" on="1"/>
        <pt x="60" y="527" on="1"/>
        <pt x="384" y="527" on="1"/>
        <pt x="384" y="462" on="1"/>
      </contour>
    </TTGlyph>
    <TTGlyph name="Iacute" xMin="69" yMin="0" xMax="431" yMax="904">
      <contour>
        <pt x="150" y="727" on="1"/>
        <pt x="168" y="741" on="0"/>
        <pt x="217" y="784" on="0"/>
        <pt x="266" y="832" on="0"/>
        <pt x="313" y="883" on="0"/>
        <pt x="330" y="904" on="1"/>
        <pt x="397" y="838" on="1"/>
        <pt x="376" y="819" on="0"/>
        <pt x="319" y="776" on="0"/>
        <pt x="257" y="735" on="0"/>
        <pt x="197" y="699" on="0"/>
        <pt x="174" y="687" on="1"/>
      </contour>
      <contour>
        <pt x="290" y="550" on="1"/>
        <pt x="290" y="70" on="1"/>
        <pt x="431" y="70" on="1"/>
        <pt x="425" y="0" on="1"/>
        <pt x="69" y="0" on="1"/>
        <pt x="69" y="70" on="1"/>
        <pt x="206" y="70" on="1"/>
        <pt x="206" y="550" on="1"/>
        <pt x="69" y="550" on="1"/>
        <pt x="69" y="620" on="1"/>
        <pt x="427" y="620" on="1"/>
        <pt x="427" y="550" on="1"/>
      </contour>
    </TTGlyph>
    <TTGlyph name="Iacute.sc" xMin="60" yMin="0" xMax="387" yMax="811">
      <contour>
        <pt x="123" y="634" on="1"/>
        <pt x="141" y="648" on="0"/>
        <pt x="190" y="691" on="0"/>
        <pt x="239" y="739" on="0"/>
        <pt x="286" y="790" on="0"/>
        <pt x="303" y="811" on="1"/>
        <pt x="370" y="745" on="1"/>
        <pt x="349" y="726" on="0"/>
        <pt x="292" y="683" on="0"/>
        <pt x="230" y="642" on="0"/>
        <pt x="170" y="606" on="0"/>
        <pt x="147" y="594" on="1"/>
      </contour>
      <contour>
        <pt x="264" y="462" on="1"/>
        <pt x="264" y="65" on="1"/>
        <pt x="387" y="65" on="1"/>
        <pt x="382" y="0" on="1"/>
        <pt x="60" y="0" on="1"/>
        <pt x="60" y="65" on="1"/>
        <pt x="180" y="65" on="1"/>
        <pt x="180" y="462" on="1"/>
        <pt x="60" y="462" on="1"/>
        <pt x="60" y="527" on="1"/>
        <pt x="384" y="527" on="1"/>
        <pt x="384" y="462" on="1"/>
      </contour>
    </TTGlyph>
    <TTGlyph name="Ibreve" xMin="69" yMin="0" xMax="432" yMax="874">
      <contour>
        <pt x="251" y="693" on="1"/>
        <pt x="204" y="693" on="0"/>
        <pt x="115" y="763" on="0"/>
        <pt x="78" y="835" on="1"/>
        <pt x="138" y="874" on="1"/>
        <pt x="172" y="815" on="0"/>
        <pt x="226" y="763" on="0"/>
        <pt x="259" y="763" on="1"/>
        <pt x="293" y="763" on="0"/>
        <pt x="351" y="818" on="0"/>
        <pt x="382" y="869" on="1"/>
        <pt x="432" y="841" on="1"/>
        <pt x="392" y="772" on="0"/>
        <pt x="299" y="693" on="0"/>
      </contour>
      <contour>
        <pt x="290" y="550" on="1"/>
        <pt x="290" y="70" on="1"/>
        <pt x="431" y="70" on="1"/>
        <pt x="425" y="0" on="1"/>
        <pt x="69" y="0" on="1"/>
        <pt x="69" y="70" on="1"/>
        <pt x="206" y="70" on="1"/>
        <pt x="206" y="550" on="1"/>
        <pt x="69" y="550" on="1"/>
        <pt x="69" y="620" on="1"/>
        <pt x="427" y="620" on="1"/>
        <pt x="427" y="550" on="1"/>
      </contour>
    </TTGlyph>
    <TTGlyph name="Ibreve.sc" xMin="51" yMin="0" xMax="405" yMax="781">
      <contour>
        <pt x="224" y="600" on="1"/>
        <pt x="177" y="600" on="0"/>
        <pt x="88" y="670" on="0"/>
        <pt x="51" y="742" on="1"/>
        <pt x="111" y="781" on="1"/>
        <pt x="145" y="722" on="0"/>
        <pt x="199" y="670" on="0"/>
        <pt x="232" y="670" on="1"/>
        <pt x="266" y="670" on="0"/>
        <pt x="324" y="725" on="0"/>
        <pt x="355" y="776" on="1"/>
        <pt x="405" y="748" on="1"/>
        <pt x="365" y="679" on="0"/>
        <pt x="272" y="600" on="0"/>
      </contour>
      <contour>
        <pt x="264" y="462" on="1"/>
        <pt x="264" y="65" on="1"/>
        <pt x="387" y="65" on="1"/>
        <pt x="382" y="0" on="1"/>
        <pt x="60" y="0" on="1"/>
        <pt x="60" y="65" on="1"/>
        <pt x="180" y="65" on="1"/>
        <pt x="180" y="462" on="1"/>
        <pt x="60" y="462" on="1"/>
        <pt x="60" y="527" on="1"/>
        <pt x="384" y="527" on="1"/>
        <pt x="384" y="462" on="1"/>
      </contour>
    </TTGlyph>
    <TTGlyph name="Icircumflex" xMin="69" yMin="0" xMax="431" yMax="886">
      <contour>
        <pt x="369" y="690" on="1"/>
        <pt x="249" y="798" on="1"/>
        <pt x="132" y="691" on="1"/>
        <pt x="90" y="732" on="1"/>
        <pt x="255" y="886" on="1"/>
        <pt x="256" y="886" on="1"/>
        <pt x="423" y="743" on="1"/>
      </contour>
      <contour>
        <pt x="290" y="550" on="1"/>
        <pt x="290" y="70" on="1"/>
        <pt x="431" y="70" on="1"/>
        <pt x="425" y="0" on="1"/>
        <pt x="69" y="0" on="1"/>
        <pt x="69" y="70" on="1"/>
        <pt x="206" y="70" on="1"/>
        <pt x="206" y="550" on="1"/>
        <pt x="69" y="550" on="1"/>
        <pt x="69" y="620" on="1"/>
        <pt x="427" y="620" on="1"/>
        <pt x="427" y="550" on="1"/>
      </contour>
    </TTGlyph>
    <TTGlyph name="Icircumflex.sc" xMin="60" yMin="0" xMax="396" yMax="793">
      <contour>
        <pt x="342" y="597" on="1"/>
        <pt x="222" y="705" on="1"/>
        <pt x="105" y="598" on="1"/>
        <pt x="63" y="639" on="1"/>
        <pt x="228" y="793" on="1"/>
        <pt x="229" y="793" on="1"/>
        <pt x="396" y="650" on="1"/>
      </contour>
      <contour>
        <pt x="264" y="462" on="1"/>
        <pt x="264" y="65" on="1"/>
        <pt x="387" y="65" on="1"/>
        <pt x="382" y="0" on="1"/>
        <pt x="60" y="0" on="1"/>
        <pt x="60" y="65" on="1"/>
        <pt x="180" y="65" on="1"/>
        <pt x="180" y="462" on="1"/>
        <pt x="60" y="462" on="1"/>
        <pt x="60" y="527" on="1"/>
        <pt x="384" y="527" on="1"/>
        <pt x="384" y="462" on="1"/>
      </contour>
    </TTGlyph>
    <TTGlyph name="Idieresis" xMin="69" yMin="0" xMax="431" yMax="832">
      <contour>
        <pt x="394" y="699" on="1"/>
        <pt x="308" y="699" on="1"/>
        <pt x="310" y="832" on="1"/>
        <pt x="396" y="832" on="1"/>
      </contour>
      <contour>
        <pt x="193" y="699" on="1"/>
        <pt x="108" y="699" on="1"/>
        <pt x="109" y="832" on="1"/>
        <pt x="196" y="832" on="1"/>
      </contour>
      <contour>
        <pt x="290" y="550" on="1"/>
        <pt x="290" y="70" on="1"/>
        <pt x="431" y="70" on="1"/>
        <pt x="425" y="0" on="1"/>
        <pt x="69" y="0" on="1"/>
        <pt x="69" y="70" on="1"/>
        <pt x="206" y="70" on="1"/>
        <pt x="206" y="550" on="1"/>
        <pt x="69" y="550" on="1"/>
        <pt x="69" y="620" on="1"/>
        <pt x="427" y="620" on="1"/>
        <pt x="427" y="550" on="1"/>
      </contour>
    </TTGlyph>
    <TTGlyph name="Idieresis.sc" xMin="60" yMin="0" xMax="387" yMax="739">
      <contour>
        <pt x="368" y="606" on="1"/>
        <pt x="282" y="606" on="1"/>
        <pt x="284" y="739" on="1"/>
        <pt x="370" y="739" on="1"/>
      </contour>
      <contour>
        <pt x="167" y="606" on="1"/>
        <pt x="82" y="606" on="1"/>
        <pt x="83" y="739" on="1"/>
        <pt x="170" y="739" on="1"/>
      </contour>
      <contour>
        <pt x="264" y="462" on="1"/>
        <pt x="264" y="65" on="1"/>
        <pt x="387" y="65" on="1"/>
        <pt x="382" y="0" on="1"/>
        <pt x="60" y="0" on="1"/>
        <pt x="60" y="65" on="1"/>
        <pt x="180" y="65" on="1"/>
        <pt x="180" y="462" on="1"/>
        <pt x="60" y="462" on="1"/>
        <pt x="60" y="527" on="1"/>
        <pt x="384" y="527" on="1"/>
        <pt x="384" y="462" on="1"/>
      </contour>
    </TTGlyph>
    <TTGlyph name="Idotaccent" xMin="69" yMin="0" xMax="431" yMax="832">
      <contour>
        <pt x="296" y="699" on="1"/>
        <pt x="210" y="699" on="1"/>
        <pt x="213" y="832" on="1"/>
        <pt x="299" y="832" on="1"/>
      </contour>
      <contour>
        <pt x="290" y="550" on="1"/>
        <pt x="290" y="70" on="1"/>
        <pt x="431" y="70" on="1"/>
        <pt x="425" y="0" on="1"/>
        <pt x="69" y="0" on="1"/>
        <pt x="69" y="70" on="1"/>
        <pt x="206" y="70" on="1"/>
        <pt x="206" y="550" on="1"/>
        <pt x="69" y="550" on="1"/>
        <pt x="69" y="620" on="1"/>
        <pt x="427" y="620" on="1"/>
        <pt x="427" y="550" on="1"/>
      </contour>
    </TTGlyph>
    <TTGlyph name="Idotaccent.sc" xMin="60" yMin="0" xMax="387" yMax="739">
      <contour>
        <pt x="269" y="606" on="1"/>
        <pt x="183" y="606" on="1"/>
        <pt x="186" y="739" on="1"/>
        <pt x="272" y="739" on="1"/>
      </contour>
      <contour>
        <pt x="264" y="462" on="1"/>
        <pt x="264" y="65" on="1"/>
        <pt x="387" y="65" on="1"/>
        <pt x="382" y="0" on="1"/>
        <pt x="60" y="0" on="1"/>
        <pt x="60" y="65" on="1"/>
        <pt x="180" y="65" on="1"/>
        <pt x="180" y="462" on="1"/>
        <pt x="60" y="462" on="1"/>
        <pt x="60" y="527" on="1"/>
        <pt x="384" y="527" on="1"/>
        <pt x="384" y="462" on="1"/>
      </contour>
    </TTGlyph>
    <TTGlyph name="Igrave" xMin="69" yMin="0" xMax="431" yMax="902">
      <contour>
        <pt x="346" y="722" on="1"/>
        <pt x="320" y="683" on="1"/>
        <pt x="298" y="695" on="0"/>
        <pt x="239" y="731" on="0"/>
        <pt x="179" y="771" on="0"/>
        <pt x="121" y="812" on="0"/>
        <pt x="99" y="830" on="1"/>
        <pt x="161" y="902" on="1"/>
        <pt x="179" y="882" on="0"/>
        <pt x="228" y="831" on="0"/>
        <pt x="280" y="781" on="0"/>
        <pt x="329" y="736" on="0"/>
      </contour>
      <contour>
        <pt x="290" y="550" on="1"/>
        <pt x="290" y="70" on="1"/>
        <pt x="431" y="70" on="1"/>
        <pt x="425" y="0" on="1"/>
        <pt x="69" y="0" on="1"/>
        <pt x="69" y="70" on="1"/>
        <pt x="206" y="70" on="1"/>
        <pt x="206" y="550" on="1"/>
        <pt x="69" y="550" on="1"/>
        <pt x="69" y="620" on="1"/>
        <pt x="427" y="620" on="1"/>
        <pt x="427" y="550" on="1"/>
      </contour>
    </TTGlyph>
    <TTGlyph name="Igrave.sc" xMin="60" yMin="0" xMax="387" yMax="809">
      <contour>
        <pt x="320" y="629" on="1"/>
        <pt x="294" y="590" on="1"/>
        <pt x="272" y="602" on="0"/>
        <pt x="213" y="638" on="0"/>
        <pt x="153" y="678" on="0"/>
        <pt x="95" y="719" on="0"/>
        <pt x="73" y="737" on="1"/>
        <pt x="135" y="809" on="1"/>
        <pt x="153" y="789" on="0"/>
        <pt x="202" y="738" on="0"/>
        <pt x="254" y="688" on="0"/>
        <pt x="303" y="643" on="0"/>
      </contour>
      <contour>
        <pt x="264" y="462" on="1"/>
        <pt x="264" y="65" on="1"/>
        <pt x="387" y="65" on="1"/>
        <pt x="382" y="0" on="1"/>
        <pt x="60" y="0" on="1"/>
        <pt x="60" y="65" on="1"/>
        <pt x="180" y="65" on="1"/>
        <pt x="180" y="462" on="1"/>
        <pt x="60" y="462" on="1"/>
        <pt x="60" y="527" on="1"/>
        <pt x="384" y="527" on="1"/>
        <pt x="384" y="462" on="1"/>
      </contour>
    </TTGlyph>
    <TTGlyph name="Imacron" xMin="69" yMin="0" xMax="431" yMax="805">
      <contour>
        <pt x="405" y="805" on="1"/>
        <pt x="405" y="730" on="1"/>
        <pt x="95" y="730" on="1"/>
        <pt x="95" y="805" on="1"/>
      </contour>
      <contour>
        <pt x="290" y="550" on="1"/>
        <pt x="290" y="70" on="1"/>
        <pt x="431" y="70" on="1"/>
        <pt x="425" y="0" on="1"/>
        <pt x="69" y="0" on="1"/>
        <pt x="69" y="70" on="1"/>
        <pt x="206" y="70" on="1"/>
        <pt x="206" y="550" on="1"/>
        <pt x="69" y="550" on="1"/>
        <pt x="69" y="620" on="1"/>
        <pt x="427" y="620" on="1"/>
        <pt x="427" y="550" on="1"/>
      </contour>
    </TTGlyph>
    <TTGlyph name="Imacron.sc" xMin="60" yMin="0" xMax="387" yMax="712">
      <contour>
        <pt x="379" y="712" on="1"/>
        <pt x="379" y="637" on="1"/>
        <pt x="69" y="637" on="1"/>
        <pt x="69" y="712" on="1"/>
      </contour>
      <contour>
        <pt x="264" y="462" on="1"/>
        <pt x="264" y="65" on="1"/>
        <pt x="387" y="65" on="1"/>
        <pt x="382" y="0" on="1"/>
        <pt x="60" y="0" on="1"/>
        <pt x="60" y="65" on="1"/>
        <pt x="180" y="65" on="1"/>
        <pt x="180" y="462" on="1"/>
        <pt x="60" y="462" on="1"/>
        <pt x="60" y="527" on="1"/>
        <pt x="384" y="527" on="1"/>
        <pt x="384" y="462" on="1"/>
      </contour>
    </TTGlyph>
    <TTGlyph name="Iogonek" xMin="69" yMin="-215" xMax="431" yMax="620">
      <contour>
        <pt x="325" y="-147" on="1"/>
        <pt x="317" y="-215" on="1"/>
        <pt x="217" y="-203" on="0"/>
        <pt x="134" y="-145" on="0"/>
        <pt x="134" y="-105" on="1"/>
        <pt x="134" y="-80" on="0"/>
        <pt x="169" y="-28" on="0"/>
        <pt x="209" y="0" on="1"/>
        <pt x="69" y="0" on="1"/>
        <pt x="69" y="70" on="1"/>
        <pt x="206" y="70" on="1"/>
        <pt x="206" y="550" on="1"/>
        <pt x="69" y="550" on="1"/>
        <pt x="69" y="620" on="1"/>
        <pt x="427" y="620" on="1"/>
        <pt x="427" y="550" on="1"/>
        <pt x="290" y="550" on="1"/>
        <pt x="290" y="70" on="1"/>
        <pt x="431" y="70" on="1"/>
        <pt x="425" y="0" on="1"/>
        <pt x="290" y="0" on="1"/>
        <pt x="242" y="-29" on="0"/>
        <pt x="207" y="-71" on="0"/>
        <pt x="207" y="-86" on="1"/>
        <pt x="207" y="-110" on="0"/>
        <pt x="267" y="-137" on="0"/>
      </contour>
    </TTGlyph>
    <TTGlyph name="Iogonek.sc" xMin="60" yMin="-215" xMax="387" yMax="527">
      <contour>
        <pt x="305" y="-147" on="1"/>
        <pt x="297" y="-215" on="1"/>
        <pt x="197" y="-203" on="0"/>
        <pt x="113" y="-145" on="0"/>
        <pt x="113" y="-105" on="1"/>
        <pt x="113" y="-80" on="0"/>
        <pt x="146" y="-28" on="0"/>
        <pt x="183" y="0" on="1"/>
        <pt x="60" y="0" on="1"/>
        <pt x="60" y="65" on="1"/>
        <pt x="180" y="65" on="1"/>
        <pt x="180" y="462" on="1"/>
        <pt x="60" y="462" on="1"/>
        <pt x="60" y="527" on="1"/>
        <pt x="384" y="527" on="1"/>
        <pt x="384" y="462" on="1"/>
        <pt x="264" y="462" on="1"/>
        <pt x="264" y="65" on="1"/>
        <pt x="387" y="65" on="1"/>
        <pt x="382" y="0" on="1"/>
        <pt x="270" y="0" on="1"/>
        <pt x="222" y="-29" on="0"/>
        <pt x="187" y="-71" on="0"/>
        <pt x="187" y="-86" on="1"/>
        <pt x="187" y="-110" on="0"/>
        <pt x="247" y="-137" on="0"/>
      </contour>
    </TTGlyph>
    <TTGlyph name="J" xMin="55" yMin="-10" xMax="354" yMax="620">
      <contour>
        <pt x="89" y="620" on="1"/>
        <pt x="354" y="620" on="1"/>
        <pt x="354" y="205" on="1"/>
        <pt x="354" y="104" on="0"/>
        <pt x="234" y="-10" on="0"/>
        <pt x="81" y="-10" on="1"/>
        <pt x="55" y="-10" on="1"/>
        <pt x="55" y="70" on="1"/>
        <pt x="74" y="69" on="0"/>
        <pt x="107" y="68" on="0"/>
        <pt x="121" y="68" on="1"/>
        <pt x="170" y="68" on="0"/>
        <pt x="229" y="81" on="0"/>
        <pt x="260" y="113" on="0"/>
        <pt x="269" y="166" on="0"/>
        <pt x="269" y="205" on="1"/>
        <pt x="269" y="550" on="1"/>
        <pt x="89" y="550" on="1"/>
      </contour>
    </TTGlyph>
    <TTGlyph name="J.sc" xMin="54" yMin="-8" xMax="326" yMax="527">
      <contour>
        <pt x="83" y="527" on="1"/>
        <pt x="326" y="527" on="1"/>
        <pt x="326" y="175" on="1"/>
        <pt x="326" y="88" on="0"/>
        <pt x="217" y="-8" on="0"/>
        <pt x="78" y="-8" on="1"/>
        <pt x="54" y="-8" on="1"/>
        <pt x="54" y="65" on="1"/>
        <pt x="72" y="64" on="0"/>
        <pt x="103" y="63" on="0"/>
        <pt x="117" y="63" on="1"/>
        <pt x="159" y="63" on="0"/>
        <pt x="209" y="74" on="0"/>
        <pt x="234" y="100" on="0"/>
        <pt x="242" y="143" on="0"/>
        <pt x="242" y="175" on="1"/>
        <pt x="242" y="462" on="1"/>
        <pt x="83" y="462" on="1"/>
      </contour>
    </TTGlyph>
    <TTGlyph name="K" xMin="97" yMin="-7" xMax="550" yMax="620">
      <contour>
        <pt x="458" y="-7" on="1"/>
        <pt x="255" y="276" on="1"/>
        <pt x="182" y="276" on="1"/>
        <pt x="182" y="0" on="1"/>
        <pt x="97" y="0" on="1"/>
        <pt x="97" y="620" on="1"/>
        <pt x="182" y="620" on="1"/>
        <pt x="182" y="352" on="1"/>
        <pt x="260" y="352" on="1"/>
        <pt x="442" y="620" on="1"/>
        <pt x="534" y="620" on="1"/>
        <pt x="323" y="317" on="1"/>
        <pt x="550" y="7" on="1"/>
      </contour>
    </TTGlyph>
    <TTGlyph name="K.sc" xMin="88" yMin="-6" xMax="498" yMax="527">
      <contour>
        <pt x="408" y="-6" on="1"/>
        <pt x="235" y="232" on="1"/>
        <pt x="172" y="232" on="1"/>
        <pt x="172" y="0" on="1"/>
        <pt x="88" y="0" on="1"/>
        <pt x="88" y="527" on="1"/>
        <pt x="172" y="527" on="1"/>
        <pt x="172" y="302" on="1"/>
        <pt x="240" y="302" on="1"/>
        <pt x="394" y="527" on="1"/>
        <pt x="485" y="527" on="1"/>
        <pt x="304" y="269" on="1"/>
        <pt x="498" y="5" on="1"/>
      </contour>
    </TTGlyph>
    <TTGlyph name="Kcommaaccent" xMin="97" yMin="-282" xMax="550" yMax="620">
      <contour>
        <pt x="458" y="-7" on="1"/>
        <pt x="255" y="276" on="1"/>
        <pt x="182" y="276" on="1"/>
        <pt x="182" y="0" on="1"/>
        <pt x="97" y="0" on="1"/>
        <pt x="97" y="620" on="1"/>
        <pt x="182" y="620" on="1"/>
        <pt x="182" y="352" on="1"/>
        <pt x="260" y="352" on="1"/>
        <pt x="442" y="620" on="1"/>
        <pt x="534" y="620" on="1"/>
        <pt x="323" y="317" on="1"/>
        <pt x="550" y="7" on="1"/>
      </contour>
      <contour>
        <pt x="236" y="-270" on="1"/>
        <pt x="246" y="-245" on="0"/>
        <pt x="255" y="-195" on="0"/>
        <pt x="255" y="-171" on="1"/>
        <pt x="255" y="-147" on="0"/>
        <pt x="248" y="-101" on="0"/>
        <pt x="241" y="-81" on="1"/>
        <pt x="242" y="-81" on="0"/>
        <pt x="274" y="-79" on="0"/>
        <pt x="311" y="-78" on="0"/>
        <pt x="343" y="-76" on="0"/>
        <pt x="344" y="-76" on="1"/>
        <pt x="344" y="-80" on="0"/>
        <pt x="345" y="-90" on="0"/>
        <pt x="345" y="-95" on="1"/>
        <pt x="345" y="-141" on="0"/>
        <pt x="312" y="-244" on="0"/>
        <pt x="281" y="-282" on="1"/>
      </contour>
    </TTGlyph>
    <TTGlyph name="Kcommaaccent.sc" xMin="88" yMin="-281" xMax="498" yMax="527">
      <contour>
        <pt x="408" y="-6" on="1"/>
        <pt x="235" y="232" on="1"/>
        <pt x="172" y="232" on="1"/>
        <pt x="172" y="0" on="1"/>
        <pt x="88" y="0" on="1"/>
        <pt x="88" y="527" on="1"/>
        <pt x="172" y="527" on="1"/>
        <pt x="172" y="302" on="1"/>
        <pt x="240" y="302" on="1"/>
        <pt x="394" y="527" on="1"/>
        <pt x="485" y="527" on="1"/>
        <pt x="304" y="269" on="1"/>
        <pt x="498" y="5" on="1"/>
      </contour>
      <contour>
        <pt x="211" y="-269" on="1"/>
        <pt x="221" y="-244" on="0"/>
        <pt x="230" y="-194" on="0"/>
        <pt x="230" y="-170" on="1"/>
        <pt x="230" y="-146" on="0"/>
        <pt x="223" y="-100" on="0"/>
        <pt x="216" y="-80" on="1"/>
        <pt x="217" y="-80" on="0"/>
        <pt x="249" y="-78" on="0"/>
        <pt x="286" y="-77" on="0"/>
        <pt x="318" y="-75" on="0"/>
        <pt x="319" y="-75" on="1"/>
        <pt x="319" y="-79" on="0"/>
        <pt x="320" y="-89" on="0"/>
        <pt x="320" y="-94" on="1"/>
        <pt x="320" y="-140" on="0"/>
        <pt x="287" y="-243" on="0"/>
        <pt x="256" y="-281" on="1"/>
      </contour>
    </TTGlyph>
    <TTGlyph name="L" xMin="97" yMin="0" xMax="461" yMax="620">
      <contour>
        <pt x="453" y="0" on="1"/>
        <pt x="97" y="0" on="1"/>
        <pt x="97" y="620" on="1"/>
        <pt x="182" y="620" on="1"/>
        <pt x="182" y="76" on="1"/>
        <pt x="461" y="76" on="1"/>
      </contour>
    </TTGlyph>
    <TTGlyph name="L.sc" xMin="88" yMin="0" xMax="417" yMax="527">
      <contour>
        <pt x="409" y="0" on="1"/>
        <pt x="88" y="0" on="1"/>
        <pt x="88" y="527" on="1"/>
        <pt x="172" y="527" on="1"/>
        <pt x="172" y="70" on="1"/>
        <pt x="417" y="70" on="1"/>
      </contour>
    </TTGlyph>
    <TTGlyph name="Lacute" xMin="97" yMin="0" xMax="461" yMax="904">
      <contour>
        <pt x="172" y="727" on="1"/>
        <pt x="190" y="741" on="0"/>
        <pt x="239" y="784" on="0"/>
        <pt x="288" y="832" on="0"/>
        <pt x="335" y="883" on="0"/>
        <pt x="352" y="904" on="1"/>
        <pt x="419" y="838" on="1"/>
        <pt x="398" y="819" on="0"/>
        <pt x="341" y="776" on="0"/>
        <pt x="279" y="735" on="0"/>
        <pt x="219" y="699" on="0"/>
        <pt x="196" y="687" on="1"/>
      </contour>
      <contour>
        <pt x="453" y="0" on="1"/>
        <pt x="97" y="0" on="1"/>
        <pt x="97" y="620" on="1"/>
        <pt x="182" y="620" on="1"/>
        <pt x="182" y="76" on="1"/>
        <pt x="461" y="76" on="1"/>
      </contour>
    </TTGlyph>
    <TTGlyph name="Lacute.sc" xMin="88" yMin="0" xMax="417" yMax="811">
      <contour>
        <pt x="139" y="634" on="1"/>
        <pt x="157" y="648" on="0"/>
        <pt x="206" y="691" on="0"/>
        <pt x="255" y="739" on="0"/>
        <pt x="302" y="790" on="0"/>
        <pt x="319" y="811" on="1"/>
        <pt x="386" y="745" on="1"/>
        <pt x="365" y="726" on="0"/>
        <pt x="308" y="683" on="0"/>
        <pt x="246" y="642" on="0"/>
        <pt x="186" y="606" on="0"/>
        <pt x="163" y="594" on="1"/>
      </contour>
      <contour>
        <pt x="409" y="0" on="1"/>
        <pt x="88" y="0" on="1"/>
        <pt x="88" y="527" on="1"/>
        <pt x="172" y="527" on="1"/>
        <pt x="172" y="70" on="1"/>
        <pt x="417" y="70" on="1"/>
      </contour>
    </TTGlyph>
    <TTGlyph name="Lcaron" xMin="97" yMin="0" xMax="461" yMax="700">
      <contour>
        <pt x="329" y="463" on="1"/>
        <pt x="339" y="497" on="0"/>
        <pt x="349" y="559" on="0"/>
        <pt x="349" y="589" on="1"/>
        <pt x="349" y="617" on="0"/>
        <pt x="342" y="671" on="0"/>
        <pt x="336" y="699" on="1"/>
        <pt x="431" y="700" on="1"/>
        <pt x="432" y="690" on="0"/>
        <pt x="433" y="672" on="0"/>
        <pt x="433" y="662" on="1"/>
        <pt x="433" y="608" on="0"/>
        <pt x="401" y="504" on="0"/>
        <pt x="368" y="450" on="1"/>
      </contour>
      <contour>
        <pt x="453" y="0" on="1"/>
        <pt x="97" y="0" on="1"/>
        <pt x="97" y="620" on="1"/>
        <pt x="182" y="620" on="1"/>
        <pt x="182" y="76" on="1"/>
        <pt x="461" y="76" on="1"/>
      </contour>
    </TTGlyph>
    <TTGlyph name="Lcaron.sc" xMin="88" yMin="0" xMax="417" yMax="650">
      <contour>
        <pt x="288" y="413" on="1"/>
        <pt x="298" y="447" on="0"/>
        <pt x="308" y="509" on="0"/>
        <pt x="308" y="539" on="1"/>
        <pt x="308" y="567" on="0"/>
        <pt x="301" y="621" on="0"/>
        <pt x="295" y="649" on="1"/>
        <pt x="390" y="650" on="1"/>
        <pt x="391" y="640" on="0"/>
        <pt x="392" y="622" on="0"/>
        <pt x="392" y="612" on="1"/>
        <pt x="392" y="558" on="0"/>
        <pt x="360" y="454" on="0"/>
        <pt x="327" y="400" on="1"/>
      </contour>
      <contour>
        <pt x="409" y="0" on="1"/>
        <pt x="88" y="0" on="1"/>
        <pt x="88" y="527" on="1"/>
        <pt x="172" y="527" on="1"/>
        <pt x="172" y="70" on="1"/>
        <pt x="417" y="70" on="1"/>
      </contour>
    </TTGlyph>
    <TTGlyph name="Lcommaaccent" xMin="97" yMin="-275" xMax="461" yMax="620">
      <contour>
        <pt x="453" y="0" on="1"/>
        <pt x="97" y="0" on="1"/>
        <pt x="97" y="620" on="1"/>
        <pt x="182" y="620" on="1"/>
        <pt x="182" y="76" on="1"/>
        <pt x="461" y="76" on="1"/>
      </contour>
      <contour>
        <pt x="215" y="-263" on="1"/>
        <pt x="225" y="-238" on="0"/>
        <pt x="234" y="-188" on="0"/>
        <pt x="234" y="-164" on="1"/>
        <pt x="234" y="-140" on="0"/>
        <pt x="227" y="-94" on="0"/>
        <pt x="220" y="-74" on="1"/>
        <pt x="221" y="-74" on="0"/>
        <pt x="253" y="-72" on="0"/>
        <pt x="290" y="-71" on="0"/>
        <pt x="322" y="-69" on="0"/>
        <pt x="323" y="-69" on="1"/>
        <pt x="323" y="-73" on="0"/>
        <pt x="324" y="-83" on="0"/>
        <pt x="324" y="-88" on="1"/>
        <pt x="324" y="-134" on="0"/>
        <pt x="291" y="-237" on="0"/>
        <pt x="260" y="-275" on="1"/>
      </contour>
    </TTGlyph>
    <TTGlyph name="Lcommaaccent.sc" xMin="88" yMin="-275" xMax="417" yMax="527">
      <contour>
        <pt x="409" y="0" on="1"/>
        <pt x="88" y="0" on="1"/>
        <pt x="88" y="527" on="1"/>
        <pt x="172" y="527" on="1"/>
        <pt x="172" y="70" on="1"/>
        <pt x="417" y="70" on="1"/>
      </contour>
      <contour>
        <pt x="188" y="-263" on="1"/>
        <pt x="198" y="-238" on="0"/>
        <pt x="207" y="-188" on="0"/>
        <pt x="207" y="-164" on="1"/>
        <pt x="207" y="-140" on="0"/>
        <pt x="200" y="-94" on="0"/>
        <pt x="193" y="-74" on="1"/>
        <pt x="194" y="-74" on="0"/>
        <pt x="226" y="-72" on="0"/>
        <pt x="263" y="-71" on="0"/>
        <pt x="295" y="-69" on="0"/>
        <pt x="296" y="-69" on="1"/>
        <pt x="296" y="-73" on="0"/>
        <pt x="297" y="-83" on="0"/>
        <pt x="297" y="-88" on="1"/>
        <pt x="297" y="-134" on="0"/>
        <pt x="264" y="-237" on="0"/>
        <pt x="233" y="-275" on="1"/>
      </contour>
    </TTGlyph>
    <TTGlyph name="Ldot" xMin="97" yMin="0" xMax="461" yMax="620">
      <contour>
        <pt x="453" y="0" on="1"/>
        <pt x="97" y="0" on="1"/>
        <pt x="97" y="620" on="1"/>
        <pt x="182" y="620" on="1"/>
        <pt x="182" y="76" on="1"/>
        <pt x="461" y="76" on="1"/>
      </contour>
      <contour>
        <pt x="435" y="261" on="1"/>
        <pt x="340" y="261" on="1"/>
        <pt x="346" y="371" on="1"/>
        <pt x="441" y="371" on="1"/>
      </contour>
    </TTGlyph>
    <TTGlyph name="Ldot.sc" xMin="88" yMin="0" xMax="417" yMax="527">
      <contour>
        <pt x="409" y="0" on="1"/>
        <pt x="88" y="0" on="1"/>
        <pt x="88" y="527" on="1"/>
        <pt x="172" y="527" on="1"/>
        <pt x="172" y="70" on="1"/>
        <pt x="417" y="70" on="1"/>
      </contour>
      <contour>
        <pt x="403" y="243" on="1"/>
        <pt x="308" y="243" on="1"/>
        <pt x="315" y="353" on="1"/>
        <pt x="409" y="353" on="1"/>
      </contour>
    </TTGlyph>
    <TTGlyph name="Lslash" xMin="18" yMin="0" xMax="461" yMax="620">
      <contour>
        <pt x="453" y="0" on="1"/>
        <pt x="97" y="0" on="1"/>
        <pt x="97" y="292" on="1"/>
        <pt x="32" y="258" on="1"/>
        <pt x="18" y="321" on="1"/>
        <pt x="97" y="363" on="1"/>
        <pt x="97" y="620" on="1"/>
        <pt x="182" y="620" on="1"/>
        <pt x="182" y="408" on="1"/>
        <pt x="300" y="470" on="1"/>
        <pt x="314" y="407" on="1"/>
        <pt x="182" y="337" on="1"/>
        <pt x="182" y="76" on="1"/>
        <pt x="461" y="76" on="1"/>
      </contour>
    </TTGlyph>
    <TTGlyph name="Lslash.sc" xMin="10" yMin="0" xMax="417" yMax="527">
      <contour>
        <pt x="409" y="0" on="1"/>
        <pt x="88" y="0" on="1"/>
        <pt x="88" y="236" on="1"/>
        <pt x="24" y="202" on="1"/>
        <pt x="10" y="264" on="1"/>
        <pt x="88" y="305" on="1"/>
        <pt x="88" y="527" on="1"/>
        <pt x="172" y="527" on="1"/>
        <pt x="172" y="350" on="1"/>
        <pt x="288" y="411" on="1"/>
        <pt x="302" y="349" on="1"/>
        <pt x="172" y="280" on="1"/>
        <pt x="172" y="70" on="1"/>
        <pt x="417" y="70" on="1"/>
      </contour>
    </TTGlyph>
    <TTGlyph name="M" xMin="97" yMin="0" xMax="675" yMax="620">
      <contour>
        <pt x="553" y="620" on="1"/>
        <pt x="675" y="620" on="1"/>
        <pt x="675" y="0" on="1"/>
        <pt x="590" y="0" on="1"/>
        <pt x="592" y="508" on="1"/>
        <pt x="585" y="508" on="1"/>
        <pt x="419" y="57" on="1"/>
        <pt x="348" y="57" on="1"/>
        <pt x="180" y="508" on="1"/>
        <pt x="174" y="508" on="1"/>
        <pt x="176" y="0" on="1"/>
        <pt x="97" y="0" on="1"/>
        <pt x="97" y="620" on="1"/>
        <pt x="225" y="620" on="1"/>
        <pt x="225" y="620" on="0"/>
        <pt x="271" y="493" on="0"/>
        <pt x="328" y="335" on="0"/>
        <pt x="380" y="194" on="0"/>
        <pt x="386" y="179" on="1"/>
        <pt x="392" y="179" on="1"/>
        <pt x="398" y="194" on="0"/>
        <pt x="450" y="335" on="0"/>
        <pt x="507" y="493" on="0"/>
        <pt x="553" y="620" on="0"/>
      </contour>
    </TTGlyph>
    <TTGlyph name="M.sc" xMin="88" yMin="0" xMax="606" yMax="527">
      <contour>
        <pt x="313" y="47" on="1"/>
        <pt x="169" y="420" on="1"/>
        <pt x="163" y="420" on="1"/>
        <pt x="167" y="0" on="1"/>
        <pt x="88" y="0" on="1"/>
        <pt x="88" y="527" on="1"/>
        <pt x="209" y="527" on="1"/>
        <pt x="209" y="527" on="0"/>
        <pt x="249" y="421" on="0"/>
        <pt x="298" y="291" on="0"/>
        <pt x="343" y="174" on="0"/>
        <pt x="348" y="162" on="1"/>
        <pt x="353" y="162" on="1"/>
        <pt x="358" y="174" on="0"/>
        <pt x="403" y="291" on="0"/>
        <pt x="452" y="421" on="0"/>
        <pt x="492" y="527" on="0"/>
        <pt x="492" y="527" on="1"/>
        <pt x="606" y="527" on="1"/>
        <pt x="606" y="0" on="1"/>
        <pt x="524" y="0" on="1"/>
        <pt x="527" y="420" on="1"/>
        <pt x="521" y="420" on="1"/>
        <pt x="377" y="48" on="1"/>
      </contour>
    </TTGlyph>
    <TTGlyph name="N" xMin="97" yMin="0" xMax="559" yMax="620">
      <contour>
        <pt x="460" y="0" on="1"/>
        <pt x="181" y="503" on="1"/>
        <pt x="175" y="503" on="1"/>
        <pt x="176" y="0" on="1"/>
        <pt x="97" y="0" on="1"/>
        <pt x="97" y="620" on="1"/>
        <pt x="211" y="620" on="1"/>
        <pt x="475" y="143" on="1"/>
        <pt x="482" y="143" on="1"/>
        <pt x="480" y="620" on="1"/>
        <pt x="559" y="620" on="1"/>
        <pt x="559" y="0" on="1"/>
      </contour>
    </TTGlyph>
    <TTGlyph name="N.sc" xMin="88" yMin="0" xMax="504" yMax="527">
      <contour>
        <pt x="408" y="0" on="1"/>
        <pt x="170" y="415" on="1"/>
        <pt x="164" y="415" on="1"/>
        <pt x="166" y="0" on="1"/>
        <pt x="88" y="0" on="1"/>
        <pt x="88" y="527" on="1"/>
        <pt x="194" y="527" on="1"/>
        <pt x="422" y="133" on="1"/>
        <pt x="428" y="133" on="1"/>
        <pt x="426" y="527" on="1"/>
        <pt x="504" y="527" on="1"/>
        <pt x="504" y="0" on="1"/>
      </contour>
    </TTGlyph>
    <TTGlyph name="Nacute" xMin="97" yMin="0" xMax="559" yMax="904">
      <contour>
        <pt x="228" y="727" on="1"/>
        <pt x="246" y="741" on="0"/>
        <pt x="295" y="784" on="0"/>
        <pt x="344" y="832" on="0"/>
        <pt x="391" y="883" on="0"/>
        <pt x="408" y="904" on="1"/>
        <pt x="475" y="838" on="1"/>
        <pt x="454" y="819" on="0"/>
        <pt x="397" y="776" on="0"/>
        <pt x="335" y="735" on="0"/>
        <pt x="275" y="699" on="0"/>
        <pt x="252" y="687" on="1"/>
      </contour>
      <contour>
        <pt x="460" y="0" on="1"/>
        <pt x="181" y="503" on="1"/>
        <pt x="175" y="503" on="1"/>
        <pt x="176" y="0" on="1"/>
        <pt x="97" y="0" on="1"/>
        <pt x="97" y="620" on="1"/>
        <pt x="211" y="620" on="1"/>
        <pt x="475" y="143" on="1"/>
        <pt x="482" y="143" on="1"/>
        <pt x="480" y="620" on="1"/>
        <pt x="559" y="620" on="1"/>
        <pt x="559" y="0" on="1"/>
      </contour>
    </TTGlyph>
    <TTGlyph name="Nacute.sc" xMin="88" yMin="0" xMax="504" yMax="811">
      <contour>
        <pt x="196" y="634" on="1"/>
        <pt x="214" y="648" on="0"/>
        <pt x="263" y="691" on="0"/>
        <pt x="312" y="739" on="0"/>
        <pt x="359" y="790" on="0"/>
        <pt x="376" y="811" on="1"/>
        <pt x="443" y="745" on="1"/>
        <pt x="422" y="726" on="0"/>
        <pt x="365" y="683" on="0"/>
        <pt x="303" y="642" on="0"/>
        <pt x="243" y="606" on="0"/>
        <pt x="220" y="594" on="1"/>
      </contour>
      <contour>
        <pt x="408" y="0" on="1"/>
        <pt x="170" y="415" on="1"/>
        <pt x="164" y="415" on="1"/>
        <pt x="166" y="0" on="1"/>
        <pt x="88" y="0" on="1"/>
        <pt x="88" y="527" on="1"/>
        <pt x="194" y="527" on="1"/>
        <pt x="422" y="133" on="1"/>
        <pt x="428" y="133" on="1"/>
        <pt x="426" y="527" on="1"/>
        <pt x="504" y="527" on="1"/>
        <pt x="504" y="0" on="1"/>
      </contour>
    </TTGlyph>
    <TTGlyph name="Ncaron" xMin="97" yMin="0" xMax="559" yMax="878">
      <contour>
        <pt x="336" y="683" on="1"/>
        <pt x="335" y="683" on="1"/>
        <pt x="168" y="825" on="1"/>
        <pt x="223" y="878" on="1"/>
        <pt x="342" y="770" on="1"/>
        <pt x="459" y="878" on="1"/>
        <pt x="501" y="836" on="1"/>
      </contour>
      <contour>
        <pt x="460" y="0" on="1"/>
        <pt x="181" y="503" on="1"/>
        <pt x="175" y="503" on="1"/>
        <pt x="176" y="0" on="1"/>
        <pt x="97" y="0" on="1"/>
        <pt x="97" y="620" on="1"/>
        <pt x="211" y="620" on="1"/>
        <pt x="475" y="143" on="1"/>
        <pt x="482" y="143" on="1"/>
        <pt x="480" y="620" on="1"/>
        <pt x="559" y="620" on="1"/>
        <pt x="559" y="0" on="1"/>
      </contour>
    </TTGlyph>
    <TTGlyph name="Ncaron.sc" xMin="88" yMin="0" xMax="504" yMax="785">
      <contour>
        <pt x="304" y="590" on="1"/>
        <pt x="303" y="590" on="1"/>
        <pt x="136" y="732" on="1"/>
        <pt x="191" y="785" on="1"/>
        <pt x="310" y="677" on="1"/>
        <pt x="427" y="785" on="1"/>
        <pt x="469" y="743" on="1"/>
      </contour>
      <contour>
        <pt x="408" y="0" on="1"/>
        <pt x="170" y="415" on="1"/>
        <pt x="164" y="415" on="1"/>
        <pt x="166" y="0" on="1"/>
        <pt x="88" y="0" on="1"/>
        <pt x="88" y="527" on="1"/>
        <pt x="194" y="527" on="1"/>
        <pt x="422" y="133" on="1"/>
        <pt x="428" y="133" on="1"/>
        <pt x="426" y="527" on="1"/>
        <pt x="504" y="527" on="1"/>
        <pt x="504" y="0" on="1"/>
      </contour>
    </TTGlyph>
    <TTGlyph name="Ncommaaccent" xMin="97" yMin="-275" xMax="559" yMax="620">
      <contour>
        <pt x="460" y="0" on="1"/>
        <pt x="181" y="503" on="1"/>
        <pt x="175" y="503" on="1"/>
        <pt x="176" y="0" on="1"/>
        <pt x="97" y="0" on="1"/>
        <pt x="97" y="620" on="1"/>
        <pt x="211" y="620" on="1"/>
        <pt x="475" y="143" on="1"/>
        <pt x="482" y="143" on="1"/>
        <pt x="480" y="620" on="1"/>
        <pt x="559" y="620" on="1"/>
        <pt x="559" y="0" on="1"/>
      </contour>
      <contour>
        <pt x="271" y="-263" on="1"/>
        <pt x="281" y="-238" on="0"/>
        <pt x="290" y="-188" on="0"/>
        <pt x="290" y="-164" on="1"/>
        <pt x="290" y="-140" on="0"/>
        <pt x="283" y="-94" on="0"/>
        <pt x="276" y="-74" on="1"/>
        <pt x="277" y="-74" on="0"/>
        <pt x="309" y="-72" on="0"/>
        <pt x="346" y="-71" on="0"/>
        <pt x="378" y="-69" on="0"/>
        <pt x="379" y="-69" on="1"/>
        <pt x="379" y="-73" on="0"/>
        <pt x="380" y="-83" on="0"/>
        <pt x="380" y="-88" on="1"/>
        <pt x="380" y="-134" on="0"/>
        <pt x="347" y="-237" on="0"/>
        <pt x="316" y="-275" on="1"/>
      </contour>
    </TTGlyph>
    <TTGlyph name="Ncommaaccent.sc" xMin="88" yMin="-275" xMax="504" yMax="527">
      <contour>
        <pt x="408" y="0" on="1"/>
        <pt x="170" y="415" on="1"/>
        <pt x="164" y="415" on="1"/>
        <pt x="166" y="0" on="1"/>
        <pt x="88" y="0" on="1"/>
        <pt x="88" y="527" on="1"/>
        <pt x="194" y="527" on="1"/>
        <pt x="422" y="133" on="1"/>
        <pt x="428" y="133" on="1"/>
        <pt x="426" y="527" on="1"/>
        <pt x="504" y="527" on="1"/>
        <pt x="504" y="0" on="1"/>
      </contour>
      <contour>
        <pt x="239" y="-263" on="1"/>
        <pt x="249" y="-238" on="0"/>
        <pt x="258" y="-188" on="0"/>
        <pt x="258" y="-164" on="1"/>
        <pt x="258" y="-140" on="0"/>
        <pt x="251" y="-94" on="0"/>
        <pt x="244" y="-74" on="1"/>
        <pt x="245" y="-74" on="0"/>
        <pt x="277" y="-72" on="0"/>
        <pt x="314" y="-71" on="0"/>
        <pt x="346" y="-69" on="0"/>
        <pt x="347" y="-69" on="1"/>
        <pt x="347" y="-73" on="0"/>
        <pt x="348" y="-83" on="0"/>
        <pt x="348" y="-88" on="1"/>
        <pt x="348" y="-134" on="0"/>
        <pt x="315" y="-237" on="0"/>
        <pt x="284" y="-275" on="1"/>
      </contour>
    </TTGlyph>
    <TTGlyph name="Ntilde" xMin="97" yMin="0" xMax="559" yMax="864">
      <contour>
        <pt x="400" y="696" on="1"/>
        <pt x="378" y="696" on="0"/>
        <pt x="339" y="726" on="0"/>
        <pt x="305" y="762" on="0"/>
        <pt x="274" y="792" on="0"/>
        <pt x="260" y="792" on="1"/>
        <pt x="246" y="792" on="0"/>
        <pt x="212" y="749" on="0"/>
        <pt x="193" y="706" on="1"/>
        <pt x="148" y="730" on="1"/>
        <pt x="173" y="790" on="0"/>
        <pt x="238" y="864" on="0"/>
        <pt x="272" y="864" on="1"/>
        <pt x="294" y="864" on="0"/>
        <pt x="333" y="834" on="0"/>
        <pt x="367" y="798" on="0"/>
        <pt x="398" y="768" on="0"/>
        <pt x="412" y="768" on="1"/>
        <pt x="426" y="768" on="0"/>
        <pt x="460" y="812" on="0"/>
        <pt x="479" y="855" on="1"/>
        <pt x="524" y="831" on="1"/>
        <pt x="499" y="771" on="0"/>
        <pt x="434" y="696" on="0"/>
      </contour>
      <contour>
        <pt x="460" y="0" on="1"/>
        <pt x="181" y="503" on="1"/>
        <pt x="175" y="503" on="1"/>
        <pt x="176" y="0" on="1"/>
        <pt x="97" y="0" on="1"/>
        <pt x="97" y="620" on="1"/>
        <pt x="211" y="620" on="1"/>
        <pt x="475" y="143" on="1"/>
        <pt x="482" y="143" on="1"/>
        <pt x="480" y="620" on="1"/>
        <pt x="559" y="620" on="1"/>
        <pt x="559" y="0" on="1"/>
      </contour>
    </TTGlyph>
    <TTGlyph name="Ntilde.sc" xMin="88" yMin="0" xMax="504" yMax="771">
      <contour>
        <pt x="368" y="603" on="1"/>
        <pt x="346" y="603" on="0"/>
        <pt x="307" y="633" on="0"/>
        <pt x="273" y="669" on="0"/>
        <pt x="242" y="699" on="0"/>
        <pt x="228" y="699" on="1"/>
        <pt x="214" y="699" on="0"/>
        <pt x="180" y="656" on="0"/>
        <pt x="161" y="613" on="1"/>
        <pt x="116" y="637" on="1"/>
        <pt x="141" y="697" on="0"/>
        <pt x="206" y="771" on="0"/>
        <pt x="240" y="771" on="1"/>
        <pt x="262" y="771" on="0"/>
        <pt x="301" y="741" on="0"/>
        <pt x="335" y="705" on="0"/>
        <pt x="366" y="675" on="0"/>
        <pt x="380" y="675" on="1"/>
        <pt x="394" y="675" on="0"/>
        <pt x="428" y="719" on="0"/>
        <pt x="447" y="762" on="1"/>
        <pt x="492" y="738" on="1"/>
        <pt x="467" y="678" on="0"/>
        <pt x="402" y="603" on="0"/>
      </contour>
      <contour>
        <pt x="408" y="0" on="1"/>
        <pt x="170" y="415" on="1"/>
        <pt x="164" y="415" on="1"/>
        <pt x="166" y="0" on="1"/>
        <pt x="88" y="0" on="1"/>
        <pt x="88" y="527" on="1"/>
        <pt x="194" y="527" on="1"/>
        <pt x="422" y="133" on="1"/>
        <pt x="428" y="133" on="1"/>
        <pt x="426" y="527" on="1"/>
        <pt x="504" y="527" on="1"/>
        <pt x="504" y="0" on="1"/>
      </contour>
    </TTGlyph>
    <TTGlyph name="O" xMin="57" yMin="-14" xMax="588" yMax="634">
      <contour>
        <pt x="309" y="-14" on="1"/>
        <pt x="255" y="-14" on="0"/>
        <pt x="162" y="29" on="0"/>
        <pt x="95" y="108" on="0"/>
        <pt x="57" y="223" on="0"/>
        <pt x="57" y="294" on="1"/>
        <pt x="57" y="373" on="0"/>
        <pt x="101" y="499" on="0"/>
        <pt x="177" y="587" on="0"/>
        <pt x="280" y="634" on="0"/>
        <pt x="337" y="634" on="1"/>
        <pt x="391" y="634" on="0"/>
        <pt x="484" y="591" on="0"/>
        <pt x="550" y="512" on="0"/>
        <pt x="588" y="397" on="0"/>
        <pt x="588" y="326" on="1"/>
        <pt x="588" y="248" on="0"/>
        <pt x="544" y="121" on="0"/>
        <pt x="469" y="33" on="0"/>
        <pt x="366" y="-14" on="0"/>
      </contour>
      <contour>
        <pt x="318" y="560" on="1"/>
        <pt x="238" y="560" on="0"/>
        <pt x="143" y="433" on="0"/>
        <pt x="143" y="317" on="1"/>
        <pt x="143" y="195" on="0"/>
        <pt x="247" y="60" on="0"/>
        <pt x="328" y="60" on="1"/>
        <pt x="408" y="60" on="0"/>
        <pt x="503" y="187" on="0"/>
        <pt x="503" y="303" on="1"/>
        <pt x="503" y="425" on="0"/>
        <pt x="399" y="560" on="0"/>
      </contour>
    </TTGlyph>
    <TTGlyph name="O.sc" xMin="52" yMin="-12" xMax="529" yMax="538">
      <contour>
        <pt x="278" y="-12" on="1"/>
        <pt x="229" y="-12" on="0"/>
        <pt x="146" y="24" on="0"/>
        <pt x="86" y="91" on="0"/>
        <pt x="52" y="189" on="0"/>
        <pt x="52" y="249" on="1"/>
        <pt x="52" y="316" on="0"/>
        <pt x="92" y="424" on="0"/>
        <pt x="159" y="498" on="0"/>
        <pt x="252" y="538" on="0"/>
        <pt x="304" y="538" on="1"/>
        <pt x="352" y="538" on="0"/>
        <pt x="435" y="502" on="0"/>
        <pt x="495" y="435" on="0"/>
        <pt x="529" y="338" on="0"/>
        <pt x="529" y="278" on="1"/>
        <pt x="529" y="211" on="0"/>
        <pt x="489" y="103" on="0"/>
        <pt x="422" y="28" on="0"/>
        <pt x="330" y="-12" on="0"/>
      </contour>
      <contour>
        <pt x="286" y="470" on="1"/>
        <pt x="217" y="470" on="0"/>
        <pt x="137" y="366" on="0"/>
        <pt x="137" y="269" on="1"/>
        <pt x="137" y="168" on="0"/>
        <pt x="226" y="57" on="0"/>
        <pt x="295" y="57" on="1"/>
        <pt x="364" y="57" on="0"/>
        <pt x="444" y="161" on="0"/>
        <pt x="444" y="258" on="1"/>
        <pt x="444" y="359" on="0"/>
        <pt x="355" y="470" on="0"/>
      </contour>
    </TTGlyph>
    <TTGlyph name="OE" xMin="57" yMin="0" xMax="802" yMax="620">
      <contour>
        <pt x="142" y="315" on="1"/>
        <pt x="142" y="191" on="0"/>
        <pt x="283" y="78" on="0"/>
        <pt x="435" y="76" on="1"/>
        <pt x="435" y="543" on="1"/>
        <pt x="286" y="542" on="0"/>
        <pt x="142" y="437" on="0"/>
      </contour>
      <contour>
        <pt x="802" y="76" on="1"/>
        <pt x="794" y="0" on="1"/>
        <pt x="472" y="0" on="1"/>
        <pt x="259" y="0" on="0"/>
        <pt x="57" y="144" on="0"/>
        <pt x="57" y="300" on="1"/>
        <pt x="57" y="451" on="0"/>
        <pt x="275" y="620" on="0"/>
        <pt x="476" y="620" on="1"/>
        <pt x="797" y="620" on="1"/>
        <pt x="797" y="544" on="1"/>
        <pt x="520" y="544" on="1"/>
        <pt x="520" y="346" on="1"/>
        <pt x="760" y="346" on="1"/>
        <pt x="760" y="280" on="1"/>
        <pt x="520" y="280" on="1"/>
        <pt x="520" y="76" on="1"/>
      </contour>
    </TTGlyph>
    <TTGlyph name="OE.sc" xMin="51" yMin="0" xMax="718" yMax="527">
      <contour>
        <pt x="135" y="268" on="1"/>
        <pt x="135" y="161" on="0"/>
        <pt x="261" y="70" on="0"/>
        <pt x="391" y="70" on="1"/>
        <pt x="390" y="457" on="1"/>
        <pt x="262" y="457" on="0"/>
        <pt x="135" y="372" on="0"/>
      </contour>
      <contour>
        <pt x="718" y="71" on="1"/>
        <pt x="710" y="0" on="1"/>
        <pt x="429" y="0" on="1"/>
        <pt x="236" y="0" on="0"/>
        <pt x="51" y="115" on="0"/>
        <pt x="51" y="254" on="1"/>
        <pt x="51" y="391" on="0"/>
        <pt x="247" y="527" on="0"/>
        <pt x="430" y="527" on="1"/>
        <pt x="714" y="527" on="1"/>
        <pt x="714" y="456" on="1"/>
        <pt x="471" y="456" on="1"/>
        <pt x="471" y="296" on="1"/>
        <pt x="680" y="296" on="1"/>
        <pt x="680" y="236" on="1"/>
        <pt x="471" y="236" on="1"/>
        <pt x="471" y="71" on="1"/>
      </contour>
    </TTGlyph>
    <TTGlyph name="Oacute" xMin="57" yMin="-14" xMax="588" yMax="915">
      <contour>
        <pt x="226" y="738" on="1"/>
        <pt x="244" y="752" on="0"/>
        <pt x="293" y="795" on="0"/>
        <pt x="342" y="843" on="0"/>
        <pt x="389" y="894" on="0"/>
        <pt x="406" y="915" on="1"/>
        <pt x="473" y="849" on="1"/>
        <pt x="452" y="830" on="0"/>
        <pt x="395" y="787" on="0"/>
        <pt x="333" y="746" on="0"/>
        <pt x="273" y="710" on="0"/>
        <pt x="250" y="698" on="1"/>
      </contour>
      <contour>
        <pt x="309" y="-14" on="1"/>
        <pt x="255" y="-14" on="0"/>
        <pt x="162" y="29" on="0"/>
        <pt x="95" y="108" on="0"/>
        <pt x="57" y="223" on="0"/>
        <pt x="57" y="294" on="1"/>
        <pt x="57" y="373" on="0"/>
        <pt x="101" y="499" on="0"/>
        <pt x="177" y="587" on="0"/>
        <pt x="280" y="634" on="0"/>
        <pt x="337" y="634" on="1"/>
        <pt x="391" y="634" on="0"/>
        <pt x="484" y="591" on="0"/>
        <pt x="550" y="512" on="0"/>
        <pt x="588" y="397" on="0"/>
        <pt x="588" y="326" on="1"/>
        <pt x="588" y="248" on="0"/>
        <pt x="544" y="121" on="0"/>
        <pt x="469" y="33" on="0"/>
        <pt x="366" y="-14" on="0"/>
      </contour>
      <contour>
        <pt x="318" y="560" on="1"/>
        <pt x="238" y="560" on="0"/>
        <pt x="143" y="433" on="0"/>
        <pt x="143" y="317" on="1"/>
        <pt x="143" y="195" on="0"/>
        <pt x="247" y="60" on="0"/>
        <pt x="328" y="60" on="1"/>
        <pt x="408" y="60" on="0"/>
        <pt x="503" y="187" on="0"/>
        <pt x="503" y="303" on="1"/>
        <pt x="503" y="425" on="0"/>
        <pt x="399" y="560" on="0"/>
      </contour>
    </TTGlyph>
    <TTGlyph name="Oacute.sc" xMin="52" yMin="-12" xMax="529" yMax="820">
      <contour>
        <pt x="194" y="643" on="1"/>
        <pt x="212" y="657" on="0"/>
        <pt x="261" y="700" on="0"/>
        <pt x="310" y="748" on="0"/>
        <pt x="357" y="799" on="0"/>
        <pt x="374" y="820" on="1"/>
        <pt x="441" y="754" on="1"/>
        <pt x="420" y="735" on="0"/>
        <pt x="363" y="692" on="0"/>
        <pt x="301" y="651" on="0"/>
        <pt x="241" y="615" on="0"/>
        <pt x="218" y="603" on="1"/>
      </contour>
      <contour>
        <pt x="278" y="-12" on="1"/>
        <pt x="229" y="-12" on="0"/>
        <pt x="146" y="24" on="0"/>
        <pt x="86" y="91" on="0"/>
        <pt x="52" y="189" on="0"/>
        <pt x="52" y="249" on="1"/>
        <pt x="52" y="316" on="0"/>
        <pt x="92" y="424" on="0"/>
        <pt x="159" y="498" on="0"/>
        <pt x="252" y="538" on="0"/>
        <pt x="304" y="538" on="1"/>
        <pt x="352" y="538" on="0"/>
        <pt x="435" y="502" on="0"/>
        <pt x="495" y="435" on="0"/>
        <pt x="529" y="338" on="0"/>
        <pt x="529" y="278" on="1"/>
        <pt x="529" y="211" on="0"/>
        <pt x="489" y="103" on="0"/>
        <pt x="422" y="28" on="0"/>
        <pt x="330" y="-12" on="0"/>
      </contour>
      <contour>
        <pt x="286" y="470" on="1"/>
        <pt x="217" y="470" on="0"/>
        <pt x="137" y="366" on="0"/>
        <pt x="137" y="269" on="1"/>
        <pt x="137" y="168" on="0"/>
        <pt x="226" y="57" on="0"/>
        <pt x="295" y="57" on="1"/>
        <pt x="364" y="57" on="0"/>
        <pt x="444" y="161" on="0"/>
        <pt x="444" y="258" on="1"/>
        <pt x="444" y="359" on="0"/>
        <pt x="355" y="470" on="0"/>
      </contour>
    </TTGlyph>
    <TTGlyph name="Obreve" xMin="57" yMin="-14" xMax="588" yMax="885">
      <contour>
        <pt x="327" y="704" on="1"/>
        <pt x="280" y="704" on="0"/>
        <pt x="191" y="774" on="0"/>
        <pt x="154" y="846" on="1"/>
        <pt x="214" y="885" on="1"/>
        <pt x="248" y="826" on="0"/>
        <pt x="302" y="774" on="0"/>
        <pt x="335" y="774" on="1"/>
        <pt x="369" y="774" on="0"/>
        <pt x="427" y="829" on="0"/>
        <pt x="458" y="880" on="1"/>
        <pt x="508" y="852" on="1"/>
        <pt x="468" y="783" on="0"/>
        <pt x="375" y="704" on="0"/>
      </contour>
      <contour>
        <pt x="309" y="-14" on="1"/>
        <pt x="255" y="-14" on="0"/>
        <pt x="162" y="29" on="0"/>
        <pt x="95" y="108" on="0"/>
        <pt x="57" y="223" on="0"/>
        <pt x="57" y="294" on="1"/>
        <pt x="57" y="373" on="0"/>
        <pt x="101" y="499" on="0"/>
        <pt x="177" y="587" on="0"/>
        <pt x="280" y="634" on="0"/>
        <pt x="337" y="634" on="1"/>
        <pt x="391" y="634" on="0"/>
        <pt x="484" y="591" on="0"/>
        <pt x="550" y="512" on="0"/>
        <pt x="588" y="397" on="0"/>
        <pt x="588" y="326" on="1"/>
        <pt x="588" y="248" on="0"/>
        <pt x="544" y="121" on="0"/>
        <pt x="469" y="33" on="0"/>
        <pt x="366" y="-14" on="0"/>
      </contour>
      <contour>
        <pt x="318" y="560" on="1"/>
        <pt x="238" y="560" on="0"/>
        <pt x="143" y="433" on="0"/>
        <pt x="143" y="317" on="1"/>
        <pt x="143" y="195" on="0"/>
        <pt x="247" y="60" on="0"/>
        <pt x="328" y="60" on="1"/>
        <pt x="408" y="60" on="0"/>
        <pt x="503" y="187" on="0"/>
        <pt x="503" y="303" on="1"/>
        <pt x="503" y="425" on="0"/>
        <pt x="399" y="560" on="0"/>
      </contour>
    </TTGlyph>
    <TTGlyph name="Obreve.sc" xMin="52" yMin="-12" xMax="529" yMax="790">
      <contour>
        <pt x="295" y="609" on="1"/>
        <pt x="248" y="609" on="0"/>
        <pt x="159" y="679" on="0"/>
        <pt x="122" y="751" on="1"/>
        <pt x="182" y="790" on="1"/>
        <pt x="216" y="731" on="0"/>
        <pt x="270" y="679" on="0"/>
        <pt x="303" y="679" on="1"/>
        <pt x="337" y="679" on="0"/>
        <pt x="395" y="734" on="0"/>
        <pt x="426" y="785" on="1"/>
        <pt x="476" y="757" on="1"/>
        <pt x="436" y="688" on="0"/>
        <pt x="343" y="609" on="0"/>
      </contour>
      <contour>
        <pt x="278" y="-12" on="1"/>
        <pt x="229" y="-12" on="0"/>
        <pt x="146" y="24" on="0"/>
        <pt x="86" y="91" on="0"/>
        <pt x="52" y="189" on="0"/>
        <pt x="52" y="249" on="1"/>
        <pt x="52" y="316" on="0"/>
        <pt x="92" y="424" on="0"/>
        <pt x="159" y="498" on="0"/>
        <pt x="252" y="538" on="0"/>
        <pt x="304" y="538" on="1"/>
        <pt x="352" y="538" on="0"/>
        <pt x="435" y="502" on="0"/>
        <pt x="495" y="435" on="0"/>
        <pt x="529" y="338" on="0"/>
        <pt x="529" y="278" on="1"/>
        <pt x="529" y="211" on="0"/>
        <pt x="489" y="103" on="0"/>
        <pt x="422" y="28" on="0"/>
        <pt x="330" y="-12" on="0"/>
      </contour>
      <contour>
        <pt x="286" y="470" on="1"/>
        <pt x="217" y="470" on="0"/>
        <pt x="137" y="366" on="0"/>
        <pt x="137" y="269" on="1"/>
        <pt x="137" y="168" on="0"/>
        <pt x="226" y="57" on="0"/>
        <pt x="295" y="57" on="1"/>
        <pt x="364" y="57" on="0"/>
        <pt x="444" y="161" on="0"/>
        <pt x="444" y="258" on="1"/>
        <pt x="444" y="359" on="0"/>
        <pt x="355" y="470" on="0"/>
      </contour>
    </TTGlyph>
    <TTGlyph name="Ocircumflex" xMin="57" yMin="-14" xMax="588" yMax="897">
      <contour>
        <pt x="445" y="701" on="1"/>
        <pt x="325" y="809" on="1"/>
        <pt x="208" y="702" on="1"/>
        <pt x="166" y="743" on="1"/>
        <pt x="331" y="897" on="1"/>
        <pt x="332" y="897" on="1"/>
        <pt x="499" y="754" on="1"/>
      </contour>
      <contour>
        <pt x="309" y="-14" on="1"/>
        <pt x="255" y="-14" on="0"/>
        <pt x="162" y="29" on="0"/>
        <pt x="95" y="108" on="0"/>
        <pt x="57" y="223" on="0"/>
        <pt x="57" y="294" on="1"/>
        <pt x="57" y="373" on="0"/>
        <pt x="101" y="499" on="0"/>
        <pt x="177" y="587" on="0"/>
        <pt x="280" y="634" on="0"/>
        <pt x="337" y="634" on="1"/>
        <pt x="391" y="634" on="0"/>
        <pt x="484" y="591" on="0"/>
        <pt x="550" y="512" on="0"/>
        <pt x="588" y="397" on="0"/>
        <pt x="588" y="326" on="1"/>
        <pt x="588" y="248" on="0"/>
        <pt x="544" y="121" on="0"/>
        <pt x="469" y="33" on="0"/>
        <pt x="366" y="-14" on="0"/>
      </contour>
      <contour>
        <pt x="318" y="560" on="1"/>
        <pt x="238" y="560" on="0"/>
        <pt x="143" y="433" on="0"/>
        <pt x="143" y="317" on="1"/>
        <pt x="143" y="195" on="0"/>
        <pt x="247" y="60" on="0"/>
        <pt x="328" y="60" on="1"/>
        <pt x="408" y="60" on="0"/>
        <pt x="503" y="187" on="0"/>
        <pt x="503" y="303" on="1"/>
        <pt x="503" y="425" on="0"/>
        <pt x="399" y="560" on="0"/>
      </contour>
    </TTGlyph>
    <TTGlyph name="Ocircumflex.sc" xMin="52" yMin="-12" xMax="529" yMax="802">
      <contour>
        <pt x="413" y="606" on="1"/>
        <pt x="293" y="714" on="1"/>
        <pt x="176" y="607" on="1"/>
        <pt x="134" y="648" on="1"/>
        <pt x="299" y="802" on="1"/>
        <pt x="300" y="802" on="1"/>
        <pt x="467" y="659" on="1"/>
      </contour>
      <contour>
        <pt x="278" y="-12" on="1"/>
        <pt x="229" y="-12" on="0"/>
        <pt x="146" y="24" on="0"/>
        <pt x="86" y="91" on="0"/>
        <pt x="52" y="189" on="0"/>
        <pt x="52" y="249" on="1"/>
        <pt x="52" y="316" on="0"/>
        <pt x="92" y="424" on="0"/>
        <pt x="159" y="498" on="0"/>
        <pt x="252" y="538" on="0"/>
        <pt x="304" y="538" on="1"/>
        <pt x="352" y="538" on="0"/>
        <pt x="435" y="502" on="0"/>
        <pt x="495" y="435" on="0"/>
        <pt x="529" y="338" on="0"/>
        <pt x="529" y="278" on="1"/>
        <pt x="529" y="211" on="0"/>
        <pt x="489" y="103" on="0"/>
        <pt x="422" y="28" on="0"/>
        <pt x="330" y="-12" on="0"/>
      </contour>
      <contour>
        <pt x="286" y="470" on="1"/>
        <pt x="217" y="470" on="0"/>
        <pt x="137" y="366" on="0"/>
        <pt x="137" y="269" on="1"/>
        <pt x="137" y="168" on="0"/>
        <pt x="226" y="57" on="0"/>
        <pt x="295" y="57" on="1"/>
        <pt x="364" y="57" on="0"/>
        <pt x="444" y="161" on="0"/>
        <pt x="444" y="258" on="1"/>
        <pt x="444" y="359" on="0"/>
        <pt x="355" y="470" on="0"/>
      </contour>
    </TTGlyph>
    <TTGlyph name="Odieresis" xMin="57" yMin="-14" xMax="588" yMax="843">
      <contour>
        <pt x="471" y="710" on="1"/>
        <pt x="385" y="710" on="1"/>
        <pt x="387" y="843" on="1"/>
        <pt x="473" y="843" on="1"/>
      </contour>
      <contour>
        <pt x="270" y="710" on="1"/>
        <pt x="185" y="710" on="1"/>
        <pt x="186" y="843" on="1"/>
        <pt x="273" y="843" on="1"/>
      </contour>
      <contour>
        <pt x="309" y="-14" on="1"/>
        <pt x="255" y="-14" on="0"/>
        <pt x="162" y="29" on="0"/>
        <pt x="95" y="108" on="0"/>
        <pt x="57" y="223" on="0"/>
        <pt x="57" y="294" on="1"/>
        <pt x="57" y="373" on="0"/>
        <pt x="101" y="499" on="0"/>
        <pt x="177" y="587" on="0"/>
        <pt x="280" y="634" on="0"/>
        <pt x="337" y="634" on="1"/>
        <pt x="391" y="634" on="0"/>
        <pt x="484" y="591" on="0"/>
        <pt x="550" y="512" on="0"/>
        <pt x="588" y="397" on="0"/>
        <pt x="588" y="326" on="1"/>
        <pt x="588" y="248" on="0"/>
        <pt x="544" y="121" on="0"/>
        <pt x="469" y="33" on="0"/>
        <pt x="366" y="-14" on="0"/>
      </contour>
      <contour>
        <pt x="318" y="560" on="1"/>
        <pt x="238" y="560" on="0"/>
        <pt x="143" y="433" on="0"/>
        <pt x="143" y="317" on="1"/>
        <pt x="143" y="195" on="0"/>
        <pt x="247" y="60" on="0"/>
        <pt x="328" y="60" on="1"/>
        <pt x="408" y="60" on="0"/>
        <pt x="503" y="187" on="0"/>
        <pt x="503" y="303" on="1"/>
        <pt x="503" y="425" on="0"/>
        <pt x="399" y="560" on="0"/>
      </contour>
    </TTGlyph>
    <TTGlyph name="Odieresis.sc" xMin="52" yMin="-12" xMax="529" yMax="748">
      <contour>
        <pt x="438" y="615" on="1"/>
        <pt x="352" y="615" on="1"/>
        <pt x="354" y="748" on="1"/>
        <pt x="440" y="748" on="1"/>
      </contour>
      <contour>
        <pt x="237" y="615" on="1"/>
        <pt x="152" y="615" on="1"/>
        <pt x="153" y="748" on="1"/>
        <pt x="240" y="748" on="1"/>
      </contour>
      <contour>
        <pt x="278" y="-12" on="1"/>
        <pt x="229" y="-12" on="0"/>
        <pt x="146" y="24" on="0"/>
        <pt x="86" y="91" on="0"/>
        <pt x="52" y="189" on="0"/>
        <pt x="52" y="249" on="1"/>
        <pt x="52" y="316" on="0"/>
        <pt x="92" y="424" on="0"/>
        <pt x="159" y="498" on="0"/>
        <pt x="252" y="538" on="0"/>
        <pt x="304" y="538" on="1"/>
        <pt x="352" y="538" on="0"/>
        <pt x="435" y="502" on="0"/>
        <pt x="495" y="435" on="0"/>
        <pt x="529" y="338" on="0"/>
        <pt x="529" y="278" on="1"/>
        <pt x="529" y="211" on="0"/>
        <pt x="489" y="103" on="0"/>
        <pt x="422" y="28" on="0"/>
        <pt x="330" y="-12" on="0"/>
      </contour>
      <contour>
        <pt x="286" y="470" on="1"/>
        <pt x="217" y="470" on="0"/>
        <pt x="137" y="366" on="0"/>
        <pt x="137" y="269" on="1"/>
        <pt x="137" y="168" on="0"/>
        <pt x="226" y="57" on="0"/>
        <pt x="295" y="57" on="1"/>
        <pt x="364" y="57" on="0"/>
        <pt x="444" y="161" on="0"/>
        <pt x="444" y="258" on="1"/>
        <pt x="444" y="359" on="0"/>
        <pt x="355" y="470" on="0"/>
      </contour>
    </TTGlyph>
    <TTGlyph name="Ograve" xMin="57" yMin="-14" xMax="588" yMax="913">
      <contour>
        <pt x="423" y="733" on="1"/>
        <pt x="397" y="694" on="1"/>
        <pt x="375" y="706" on="0"/>
        <pt x="316" y="742" on="0"/>
        <pt x="256" y="782" on="0"/>
        <pt x="198" y="823" on="0"/>
        <pt x="176" y="841" on="1"/>
        <pt x="238" y="913" on="1"/>
        <pt x="256" y="893" on="0"/>
        <pt x="305" y="842" on="0"/>
        <pt x="357" y="792" on="0"/>
        <pt x="406" y="747" on="0"/>
      </contour>
      <contour>
        <pt x="309" y="-14" on="1"/>
        <pt x="255" y="-14" on="0"/>
        <pt x="162" y="29" on="0"/>
        <pt x="95" y="108" on="0"/>
        <pt x="57" y="223" on="0"/>
        <pt x="57" y="294" on="1"/>
        <pt x="57" y="373" on="0"/>
        <pt x="101" y="499" on="0"/>
        <pt x="177" y="587" on="0"/>
        <pt x="280" y="634" on="0"/>
        <pt x="337" y="634" on="1"/>
        <pt x="391" y="634" on="0"/>
        <pt x="484" y="591" on="0"/>
        <pt x="550" y="512" on="0"/>
        <pt x="588" y="397" on="0"/>
        <pt x="588" y="326" on="1"/>
        <pt x="588" y="248" on="0"/>
        <pt x="544" y="121" on="0"/>
        <pt x="469" y="33" on="0"/>
        <pt x="366" y="-14" on="0"/>
      </contour>
      <contour>
        <pt x="318" y="560" on="1"/>
        <pt x="238" y="560" on="0"/>
        <pt x="143" y="433" on="0"/>
        <pt x="143" y="317" on="1"/>
        <pt x="143" y="195" on="0"/>
        <pt x="247" y="60" on="0"/>
        <pt x="328" y="60" on="1"/>
        <pt x="408" y="60" on="0"/>
        <pt x="503" y="187" on="0"/>
        <pt x="503" y="303" on="1"/>
        <pt x="503" y="425" on="0"/>
        <pt x="399" y="560" on="0"/>
      </contour>
    </TTGlyph>
    <TTGlyph name="Ograve.sc" xMin="52" yMin="-12" xMax="529" yMax="818">
      <contour>
        <pt x="390" y="638" on="1"/>
        <pt x="364" y="599" on="1"/>
        <pt x="342" y="611" on="0"/>
        <pt x="283" y="647" on="0"/>
        <pt x="223" y="687" on="0"/>
        <pt x="165" y="728" on="0"/>
        <pt x="143" y="746" on="1"/>
        <pt x="205" y="818" on="1"/>
        <pt x="223" y="798" on="0"/>
        <pt x="272" y="747" on="0"/>
        <pt x="324" y="697" on="0"/>
        <pt x="373" y="652" on="0"/>
      </contour>
      <contour>
        <pt x="278" y="-12" on="1"/>
        <pt x="229" y="-12" on="0"/>
        <pt x="146" y="24" on="0"/>
        <pt x="86" y="91" on="0"/>
        <pt x="52" y="189" on="0"/>
        <pt x="52" y="249" on="1"/>
        <pt x="52" y="316" on="0"/>
        <pt x="92" y="424" on="0"/>
        <pt x="159" y="498" on="0"/>
        <pt x="252" y="538" on="0"/>
        <pt x="304" y="538" on="1"/>
        <pt x="352" y="538" on="0"/>
        <pt x="435" y="502" on="0"/>
        <pt x="495" y="435" on="0"/>
        <pt x="529" y="338" on="0"/>
        <pt x="529" y="278" on="1"/>
        <pt x="529" y="211" on="0"/>
        <pt x="489" y="103" on="0"/>
        <pt x="422" y="28" on="0"/>
        <pt x="330" y="-12" on="0"/>
      </contour>
      <contour>
        <pt x="286" y="470" on="1"/>
        <pt x="217" y="470" on="0"/>
        <pt x="137" y="366" on="0"/>
        <pt x="137" y="269" on="1"/>
        <pt x="137" y="168" on="0"/>
        <pt x="226" y="57" on="0"/>
        <pt x="295" y="57" on="1"/>
        <pt x="364" y="57" on="0"/>
        <pt x="444" y="161" on="0"/>
        <pt x="444" y="258" on="1"/>
        <pt x="444" y="359" on="0"/>
        <pt x="355" y="470" on="0"/>
      </contour>
    </TTGlyph>
    <TTGlyph name="Ohungarumlaut" xMin="57" yMin="-14" xMax="588" yMax="928">
      <contour>
        <pt x="187" y="732" on="1"/>
        <pt x="200" y="752" on="0"/>
        <pt x="227" y="803" on="0"/>
        <pt x="252" y="856" on="0"/>
        <pt x="275" y="907" on="0"/>
        <pt x="282" y="928" on="1"/>
        <pt x="367" y="887" on="1"/>
        <pt x="343" y="847" on="0"/>
        <pt x="265" y="742" on="0"/>
        <pt x="229" y="703" on="1"/>
      </contour>
      <contour>
        <pt x="379" y="731" on="1"/>
        <pt x="404" y="771" on="0"/>
        <pt x="454" y="879" on="0"/>
        <pt x="469" y="922" on="1"/>
        <pt x="557" y="887" on="1"/>
        <pt x="534" y="846" on="0"/>
        <pt x="457" y="741" on="0"/>
        <pt x="420" y="703" on="1"/>
      </contour>
      <contour>
        <pt x="309" y="-14" on="1"/>
        <pt x="255" y="-14" on="0"/>
        <pt x="162" y="29" on="0"/>
        <pt x="95" y="108" on="0"/>
        <pt x="57" y="223" on="0"/>
        <pt x="57" y="294" on="1"/>
        <pt x="57" y="373" on="0"/>
        <pt x="101" y="499" on="0"/>
        <pt x="177" y="587" on="0"/>
        <pt x="280" y="634" on="0"/>
        <pt x="337" y="634" on="1"/>
        <pt x="391" y="634" on="0"/>
        <pt x="484" y="591" on="0"/>
        <pt x="550" y="512" on="0"/>
        <pt x="588" y="397" on="0"/>
        <pt x="588" y="326" on="1"/>
        <pt x="588" y="248" on="0"/>
        <pt x="544" y="121" on="0"/>
        <pt x="469" y="33" on="0"/>
        <pt x="366" y="-14" on="0"/>
      </contour>
      <contour>
        <pt x="318" y="560" on="1"/>
        <pt x="238" y="560" on="0"/>
        <pt x="143" y="433" on="0"/>
        <pt x="143" y="317" on="1"/>
        <pt x="143" y="195" on="0"/>
        <pt x="247" y="60" on="0"/>
        <pt x="328" y="60" on="1"/>
        <pt x="408" y="60" on="0"/>
        <pt x="503" y="187" on="0"/>
        <pt x="503" y="303" on="1"/>
        <pt x="503" y="425" on="0"/>
        <pt x="399" y="560" on="0"/>
      </contour>
    </TTGlyph>
    <TTGlyph name="Ohungarumlaut.sc" xMin="52" yMin="-12" xMax="529" yMax="833">
      <contour>
        <pt x="154" y="637" on="1"/>
        <pt x="167" y="657" on="0"/>
        <pt x="194" y="708" on="0"/>
        <pt x="219" y="761" on="0"/>
        <pt x="242" y="812" on="0"/>
        <pt x="249" y="833" on="1"/>
        <pt x="334" y="792" on="1"/>
        <pt x="310" y="752" on="0"/>
        <pt x="232" y="647" on="0"/>
        <pt x="196" y="608" on="1"/>
      </contour>
      <contour>
        <pt x="346" y="636" on="1"/>
        <pt x="371" y="676" on="0"/>
        <pt x="421" y="784" on="0"/>
        <pt x="436" y="827" on="1"/>
        <pt x="524" y="792" on="1"/>
        <pt x="501" y="751" on="0"/>
        <pt x="424" y="646" on="0"/>
        <pt x="387" y="608" on="1"/>
      </contour>
      <contour>
        <pt x="278" y="-12" on="1"/>
        <pt x="229" y="-12" on="0"/>
        <pt x="146" y="24" on="0"/>
        <pt x="86" y="91" on="0"/>
        <pt x="52" y="189" on="0"/>
        <pt x="52" y="249" on="1"/>
        <pt x="52" y="316" on="0"/>
        <pt x="92" y="424" on="0"/>
        <pt x="159" y="498" on="0"/>
        <pt x="252" y="538" on="0"/>
        <pt x="304" y="538" on="1"/>
        <pt x="352" y="538" on="0"/>
        <pt x="435" y="502" on="0"/>
        <pt x="495" y="435" on="0"/>
        <pt x="529" y="338" on="0"/>
        <pt x="529" y="278" on="1"/>
        <pt x="529" y="211" on="0"/>
        <pt x="489" y="103" on="0"/>
        <pt x="422" y="28" on="0"/>
        <pt x="330" y="-12" on="0"/>
      </contour>
      <contour>
        <pt x="286" y="470" on="1"/>
        <pt x="217" y="470" on="0"/>
        <pt x="137" y="366" on="0"/>
        <pt x="137" y="269" on="1"/>
        <pt x="137" y="168" on="0"/>
        <pt x="226" y="57" on="0"/>
        <pt x="295" y="57" on="1"/>
        <pt x="364" y="57" on="0"/>
        <pt x="444" y="161" on="0"/>
        <pt x="444" y="258" on="1"/>
        <pt x="444" y="359" on="0"/>
        <pt x="355" y="470" on="0"/>
      </contour>
    </TTGlyph>
    <TTGlyph name="Omacron" xMin="57" yMin="-14" xMax="588" yMax="816">
      <contour>
        <pt x="482" y="816" on="1"/>
        <pt x="482" y="741" on="1"/>
        <pt x="172" y="741" on="1"/>
        <pt x="172" y="816" on="1"/>
      </contour>
      <contour>
        <pt x="309" y="-14" on="1"/>
        <pt x="255" y="-14" on="0"/>
        <pt x="162" y="29" on="0"/>
        <pt x="95" y="108" on="0"/>
        <pt x="57" y="223" on="0"/>
        <pt x="57" y="294" on="1"/>
        <pt x="57" y="373" on="0"/>
        <pt x="101" y="499" on="0"/>
        <pt x="177" y="587" on="0"/>
        <pt x="280" y="634" on="0"/>
        <pt x="337" y="634" on="1"/>
        <pt x="391" y="634" on="0"/>
        <pt x="484" y="591" on="0"/>
        <pt x="550" y="512" on="0"/>
        <pt x="588" y="397" on="0"/>
        <pt x="588" y="326" on="1"/>
        <pt x="588" y="248" on="0"/>
        <pt x="544" y="121" on="0"/>
        <pt x="469" y="33" on="0"/>
        <pt x="366" y="-14" on="0"/>
      </contour>
      <contour>
        <pt x="318" y="560" on="1"/>
        <pt x="238" y="560" on="0"/>
        <pt x="143" y="433" on="0"/>
        <pt x="143" y="317" on="1"/>
        <pt x="143" y="195" on="0"/>
        <pt x="247" y="60" on="0"/>
        <pt x="328" y="60" on="1"/>
        <pt x="408" y="60" on="0"/>
        <pt x="503" y="187" on="0"/>
        <pt x="503" y="303" on="1"/>
        <pt x="503" y="425" on="0"/>
        <pt x="399" y="560" on="0"/>
      </contour>
    </TTGlyph>
    <TTGlyph name="Omacron.sc" xMin="52" yMin="-12" xMax="529" yMax="721">
      <contour>
        <pt x="449" y="721" on="1"/>
        <pt x="449" y="646" on="1"/>
        <pt x="139" y="646" on="1"/>
        <pt x="139" y="721" on="1"/>
      </contour>
      <contour>
        <pt x="278" y="-12" on="1"/>
        <pt x="229" y="-12" on="0"/>
        <pt x="146" y="24" on="0"/>
        <pt x="86" y="91" on="0"/>
        <pt x="52" y="189" on="0"/>
        <pt x="52" y="249" on="1"/>
        <pt x="52" y="316" on="0"/>
        <pt x="92" y="424" on="0"/>
        <pt x="159" y="498" on="0"/>
        <pt x="252" y="538" on="0"/>
        <pt x="304" y="538" on="1"/>
        <pt x="352" y="538" on="0"/>
        <pt x="435" y="502" on="0"/>
        <pt x="495" y="435" on="0"/>
        <pt x="529" y="338" on="0"/>
        <pt x="529" y="278" on="1"/>
        <pt x="529" y="211" on="0"/>
        <pt x="489" y="103" on="0"/>
        <pt x="422" y="28" on="0"/>
        <pt x="330" y="-12" on="0"/>
      </contour>
      <contour>
        <pt x="286" y="470" on="1"/>
        <pt x="217" y="470" on="0"/>
        <pt x="137" y="366" on="0"/>
        <pt x="137" y="269" on="1"/>
        <pt x="137" y="168" on="0"/>
        <pt x="226" y="57" on="0"/>
        <pt x="295" y="57" on="1"/>
        <pt x="364" y="57" on="0"/>
        <pt x="444" y="161" on="0"/>
        <pt x="444" y="258" on="1"/>
        <pt x="444" y="359" on="0"/>
        <pt x="355" y="470" on="0"/>
      </contour>
    </TTGlyph>
    <TTGlyph name="Omega" xMin="57" yMin="0" xMax="572" yMax="634">
      <contour>
        <pt x="265" y="5" on="1"/>
        <pt x="262" y="0" on="1"/>
        <pt x="57" y="0" on="1"/>
        <pt x="57" y="76" on="1"/>
        <pt x="173" y="76" on="1"/>
        <pt x="131" y="158" on="0"/>
        <pt x="85" y="317" on="0"/>
        <pt x="85" y="381" on="1"/>
        <pt x="85" y="442" on="0"/>
        <pt x="124" y="537" on="0"/>
        <pt x="189" y="601" on="0"/>
        <pt x="276" y="634" on="0"/>
        <pt x="323" y="634" on="1"/>
        <pt x="370" y="634" on="0"/>
        <pt x="451" y="601" on="0"/>
        <pt x="510" y="538" on="0"/>
        <pt x="544" y="446" on="0"/>
        <pt x="544" y="388" on="1"/>
        <pt x="544" y="319" on="0"/>
        <pt x="493" y="158" on="0"/>
        <pt x="452" y="76" on="1"/>
        <pt x="572" y="76" on="1"/>
        <pt x="572" y="0" on="1"/>
        <pt x="366" y="0" on="1"/>
        <pt x="363" y="5" on="1"/>
        <pt x="414" y="113" on="0"/>
        <pt x="466" y="303" on="0"/>
        <pt x="466" y="369" on="1"/>
        <pt x="466" y="461" on="0"/>
        <pt x="382" y="555" on="0"/>
        <pt x="316" y="555" on="1"/>
        <pt x="250" y="555" on="0"/>
        <pt x="162" y="461" on="0"/>
        <pt x="162" y="369" on="1"/>
        <pt x="162" y="303" on="0"/>
        <pt x="214" y="114" on="0"/>
      </contour>
    </TTGlyph>
    <TTGlyph name="Oslash" xMin="57" yMin="-33" xMax="588" yMax="653">
      <contour>
        <pt x="143" y="317" on="1"/>
        <pt x="143" y="267" on="0"/>
        <pt x="162" y="185" on="0"/>
        <pt x="178" y="154" on="1"/>
        <pt x="428" y="518" on="1"/>
        <pt x="406" y="539" on="0"/>
        <pt x="349" y="560" on="0"/>
        <pt x="318" y="560" on="1"/>
        <pt x="238" y="560" on="0"/>
        <pt x="143" y="433" on="0"/>
      </contour>
      <contour>
        <pt x="328" y="60" on="1"/>
        <pt x="408" y="60" on="0"/>
        <pt x="503" y="187" on="0"/>
        <pt x="503" y="303" on="1"/>
        <pt x="503" y="352" on="0"/>
        <pt x="484" y="435" on="0"/>
        <pt x="468" y="466" on="1"/>
        <pt x="218" y="102" on="1"/>
        <pt x="240" y="81" on="0"/>
        <pt x="297" y="60" on="0"/>
      </contour>
      <contour>
        <pt x="309" y="-14" on="1"/>
        <pt x="269" y="-14" on="0"/>
        <pt x="199" y="8" on="0"/>
        <pt x="169" y="30" on="1"/>
        <pt x="126" y="-33" on="1"/>
        <pt x="74" y="3" on="1"/>
        <pt x="123" y="75" on="1"/>
        <pt x="92" y="115" on="0"/>
        <pt x="57" y="225" on="0"/>
        <pt x="57" y="294" on="1"/>
        <pt x="57" y="373" on="0"/>
        <pt x="101" y="499" on="0"/>
        <pt x="177" y="587" on="0"/>
        <pt x="280" y="634" on="0"/>
        <pt x="337" y="634" on="1"/>
        <pt x="377" y="634" on="0"/>
        <pt x="448" y="611" on="0"/>
        <pt x="477" y="589" on="1"/>
        <pt x="521" y="653" on="1"/>
        <pt x="573" y="617" on="1"/>
        <pt x="523" y="545" on="1"/>
        <pt x="554" y="505" on="0"/>
        <pt x="588" y="394" on="0"/>
        <pt x="588" y="326" on="1"/>
        <pt x="588" y="248" on="0"/>
        <pt x="544" y="121" on="0"/>
        <pt x="469" y="33" on="0"/>
        <pt x="366" y="-14" on="0"/>
      </contour>
    </TTGlyph>
    <TTGlyph name="Oslash.sc" xMin="52" yMin="-35" xMax="529" yMax="562">
      <contour>
        <pt x="137" y="269" on="1"/>
        <pt x="137" y="230" on="0"/>
        <pt x="151" y="166" on="0"/>
        <pt x="163" y="141" on="1"/>
        <pt x="376" y="439" on="1"/>
        <pt x="357" y="454" on="0"/>
        <pt x="312" y="470" on="0"/>
        <pt x="286" y="470" on="1"/>
        <pt x="217" y="470" on="0"/>
        <pt x="137" y="366" on="0"/>
      </contour>
      <contour>
        <pt x="295" y="57" on="1"/>
        <pt x="364" y="57" on="0"/>
        <pt x="444" y="161" on="0"/>
        <pt x="444" y="258" on="1"/>
        <pt x="444" y="298" on="0"/>
        <pt x="430" y="363" on="0"/>
        <pt x="417" y="388" on="1"/>
        <pt x="203" y="90" on="1"/>
        <pt x="222" y="74" on="0"/>
        <pt x="269" y="57" on="0"/>
      </contour>
      <contour>
        <pt x="278" y="-12" on="1"/>
        <pt x="244" y="-12" on="0"/>
        <pt x="181" y="6" on="0"/>
        <pt x="155" y="23" on="1"/>
        <pt x="114" y="-35" on="1"/>
        <pt x="62" y="1" on="1"/>
        <pt x="109" y="66" on="1"/>
        <pt x="82" y="99" on="0"/>
        <pt x="52" y="192" on="0"/>
        <pt x="52" y="249" on="1"/>
        <pt x="52" y="316" on="0"/>
        <pt x="92" y="424" on="0"/>
        <pt x="159" y="498" on="0"/>
        <pt x="252" y="538" on="0"/>
        <pt x="304" y="538" on="1"/>
        <pt x="338" y="538" on="0"/>
        <pt x="398" y="520" on="0"/>
        <pt x="423" y="504" on="1"/>
        <pt x="465" y="562" on="1"/>
        <pt x="518" y="526" on="1"/>
        <pt x="471" y="462" on="1"/>
        <pt x="498" y="429" on="0"/>
        <pt x="529" y="335" on="0"/>
        <pt x="529" y="278" on="1"/>
        <pt x="529" y="211" on="0"/>
        <pt x="489" y="103" on="0"/>
        <pt x="422" y="28" on="0"/>
        <pt x="330" y="-12" on="0"/>
      </contour>
    </TTGlyph>
    <TTGlyph name="Oslashacute" xMin="57" yMin="-33" xMax="588" yMax="913">
      <contour>
        <pt x="222" y="736" on="1"/>
        <pt x="240" y="750" on="0"/>
        <pt x="289" y="793" on="0"/>
        <pt x="338" y="841" on="0"/>
        <pt x="385" y="892" on="0"/>
        <pt x="402" y="913" on="1"/>
        <pt x="469" y="847" on="1"/>
        <pt x="448" y="828" on="0"/>
        <pt x="391" y="785" on="0"/>
        <pt x="329" y="744" on="0"/>
        <pt x="269" y="708" on="0"/>
        <pt x="246" y="696" on="1"/>
      </contour>
      <contour>
        <pt x="143" y="317" on="1"/>
        <pt x="143" y="267" on="0"/>
        <pt x="162" y="185" on="0"/>
        <pt x="178" y="154" on="1"/>
        <pt x="428" y="518" on="1"/>
        <pt x="406" y="539" on="0"/>
        <pt x="349" y="560" on="0"/>
        <pt x="318" y="560" on="1"/>
        <pt x="238" y="560" on="0"/>
        <pt x="143" y="433" on="0"/>
      </contour>
      <contour>
        <pt x="328" y="60" on="1"/>
        <pt x="408" y="60" on="0"/>
        <pt x="503" y="187" on="0"/>
        <pt x="503" y="303" on="1"/>
        <pt x="503" y="352" on="0"/>
        <pt x="484" y="435" on="0"/>
        <pt x="468" y="466" on="1"/>
        <pt x="218" y="102" on="1"/>
        <pt x="240" y="81" on="0"/>
        <pt x="297" y="60" on="0"/>
      </contour>
      <contour>
        <pt x="309" y="-14" on="1"/>
        <pt x="269" y="-14" on="0"/>
        <pt x="199" y="8" on="0"/>
        <pt x="169" y="30" on="1"/>
        <pt x="126" y="-33" on="1"/>
        <pt x="74" y="3" on="1"/>
        <pt x="123" y="75" on="1"/>
        <pt x="92" y="115" on="0"/>
        <pt x="57" y="225" on="0"/>
        <pt x="57" y="294" on="1"/>
        <pt x="57" y="373" on="0"/>
        <pt x="101" y="499" on="0"/>
        <pt x="177" y="587" on="0"/>
        <pt x="280" y="634" on="0"/>
        <pt x="337" y="634" on="1"/>
        <pt x="377" y="634" on="0"/>
        <pt x="448" y="611" on="0"/>
        <pt x="477" y="589" on="1"/>
        <pt x="521" y="653" on="1"/>
        <pt x="573" y="617" on="1"/>
        <pt x="523" y="545" on="1"/>
        <pt x="554" y="505" on="0"/>
        <pt x="588" y="394" on="0"/>
        <pt x="588" y="326" on="1"/>
        <pt x="588" y="248" on="0"/>
        <pt x="544" y="121" on="0"/>
        <pt x="469" y="33" on="0"/>
        <pt x="366" y="-14" on="0"/>
      </contour>
    </TTGlyph>
    <TTGlyph name="Oslashacute.sc" xMin="52" yMin="-35" xMax="529" yMax="818">
      <contour>
        <pt x="189" y="641" on="1"/>
        <pt x="207" y="655" on="0"/>
        <pt x="256" y="698" on="0"/>
        <pt x="305" y="746" on="0"/>
        <pt x="352" y="797" on="0"/>
        <pt x="369" y="818" on="1"/>
        <pt x="436" y="752" on="1"/>
        <pt x="415" y="733" on="0"/>
        <pt x="358" y="690" on="0"/>
        <pt x="296" y="649" on="0"/>
        <pt x="236" y="613" on="0"/>
        <pt x="213" y="601" on="1"/>
      </contour>
      <contour>
        <pt x="137" y="269" on="1"/>
        <pt x="137" y="230" on="0"/>
        <pt x="151" y="166" on="0"/>
        <pt x="163" y="141" on="1"/>
        <pt x="376" y="439" on="1"/>
        <pt x="357" y="454" on="0"/>
        <pt x="312" y="470" on="0"/>
        <pt x="286" y="470" on="1"/>
        <pt x="217" y="470" on="0"/>
        <pt x="137" y="366" on="0"/>
      </contour>
      <contour>
        <pt x="295" y="57" on="1"/>
        <pt x="364" y="57" on="0"/>
        <pt x="444" y="161" on="0"/>
        <pt x="444" y="258" on="1"/>
        <pt x="444" y="298" on="0"/>
        <pt x="430" y="363" on="0"/>
        <pt x="417" y="388" on="1"/>
        <pt x="203" y="90" on="1"/>
        <pt x="222" y="74" on="0"/>
        <pt x="269" y="57" on="0"/>
      </contour>
      <contour>
        <pt x="278" y="-12" on="1"/>
        <pt x="244" y="-12" on="0"/>
        <pt x="181" y="6" on="0"/>
        <pt x="155" y="23" on="1"/>
        <pt x="114" y="-35" on="1"/>
        <pt x="62" y="1" on="1"/>
        <pt x="109" y="66" on="1"/>
        <pt x="82" y="99" on="0"/>
        <pt x="52" y="192" on="0"/>
        <pt x="52" y="249" on="1"/>
        <pt x="52" y="316" on="0"/>
        <pt x="92" y="424" on="0"/>
        <pt x="159" y="498" on="0"/>
        <pt x="252" y="538" on="0"/>
        <pt x="304" y="538" on="1"/>
        <pt x="338" y="538" on="0"/>
        <pt x="398" y="520" on="0"/>
        <pt x="423" y="504" on="1"/>
        <pt x="465" y="562" on="1"/>
        <pt x="518" y="526" on="1"/>
        <pt x="471" y="462" on="1"/>
        <pt x="498" y="429" on="0"/>
        <pt x="529" y="335" on="0"/>
        <pt x="529" y="278" on="1"/>
        <pt x="529" y="211" on="0"/>
        <pt x="489" y="103" on="0"/>
        <pt x="422" y="28" on="0"/>
        <pt x="330" y="-12" on="0"/>
      </contour>
    </TTGlyph>
    <TTGlyph name="Otilde" xMin="57" yMin="-14" xMax="588" yMax="875">
      <contour>
        <pt x="398" y="707" on="1"/>
        <pt x="376" y="707" on="0"/>
        <pt x="337" y="737" on="0"/>
        <pt x="303" y="773" on="0"/>
        <pt x="272" y="803" on="0"/>
        <pt x="258" y="803" on="1"/>
        <pt x="244" y="803" on="0"/>
        <pt x="210" y="760" on="0"/>
        <pt x="191" y="717" on="1"/>
        <pt x="146" y="741" on="1"/>
        <pt x="171" y="801" on="0"/>
        <pt x="236" y="875" on="0"/>
        <pt x="270" y="875" on="1"/>
        <pt x="292" y="875" on="0"/>
        <pt x="331" y="845" on="0"/>
        <pt x="365" y="809" on="0"/>
        <pt x="396" y="779" on="0"/>
        <pt x="410" y="779" on="1"/>
        <pt x="424" y="779" on="0"/>
        <pt x="458" y="823" on="0"/>
        <pt x="477" y="866" on="1"/>
        <pt x="522" y="842" on="1"/>
        <pt x="497" y="782" on="0"/>
        <pt x="432" y="707" on="0"/>
      </contour>
      <contour>
        <pt x="309" y="-14" on="1"/>
        <pt x="255" y="-14" on="0"/>
        <pt x="162" y="29" on="0"/>
        <pt x="95" y="108" on="0"/>
        <pt x="57" y="223" on="0"/>
        <pt x="57" y="294" on="1"/>
        <pt x="57" y="373" on="0"/>
        <pt x="101" y="499" on="0"/>
        <pt x="177" y="587" on="0"/>
        <pt x="280" y="634" on="0"/>
        <pt x="337" y="634" on="1"/>
        <pt x="391" y="634" on="0"/>
        <pt x="484" y="591" on="0"/>
        <pt x="550" y="512" on="0"/>
        <pt x="588" y="397" on="0"/>
        <pt x="588" y="326" on="1"/>
        <pt x="588" y="248" on="0"/>
        <pt x="544" y="121" on="0"/>
        <pt x="469" y="33" on="0"/>
        <pt x="366" y="-14" on="0"/>
      </contour>
      <contour>
        <pt x="318" y="560" on="1"/>
        <pt x="238" y="560" on="0"/>
        <pt x="143" y="433" on="0"/>
        <pt x="143" y="317" on="1"/>
        <pt x="143" y="195" on="0"/>
        <pt x="247" y="60" on="0"/>
        <pt x="328" y="60" on="1"/>
        <pt x="408" y="60" on="0"/>
        <pt x="503" y="187" on="0"/>
        <pt x="503" y="303" on="1"/>
        <pt x="503" y="425" on="0"/>
        <pt x="399" y="560" on="0"/>
      </contour>
    </TTGlyph>
    <TTGlyph name="Otilde.sc" xMin="52" yMin="-12" xMax="529" yMax="780">
      <contour>
        <pt x="365" y="612" on="1"/>
        <pt x="343" y="612" on="0"/>
        <pt x="304" y="642" on="0"/>
        <pt x="270" y="678" on="0"/>
        <pt x="239" y="708" on="0"/>
        <pt x="225" y="708" on="1"/>
        <pt x="211" y="708" on="0"/>
        <pt x="177" y="665" on="0"/>
        <pt x="158" y="622" on="1"/>
        <pt x="113" y="646" on="1"/>
        <pt x="138" y="706" on="0"/>
        <pt x="203" y="780" on="0"/>
        <pt x="237" y="780" on="1"/>
        <pt x="259" y="780" on="0"/>
        <pt x="298" y="750" on="0"/>
        <pt x="332" y="714" on="0"/>
        <pt x="363" y="684" on="0"/>
        <pt x="377" y="684" on="1"/>
        <pt x="391" y="684" on="0"/>
        <pt x="425" y="728" on="0"/>
        <pt x="444" y="771" on="1"/>
        <pt x="489" y="747" on="1"/>
        <pt x="464" y="687" on="0"/>
        <pt x="399" y="612" on="0"/>
      </contour>
      <contour>
        <pt x="278" y="-12" on="1"/>
        <pt x="229" y="-12" on="0"/>
        <pt x="146" y="24" on="0"/>
        <pt x="86" y="91" on="0"/>
        <pt x="52" y="189" on="0"/>
        <pt x="52" y="249" on="1"/>
        <pt x="52" y="316" on="0"/>
        <pt x="92" y="424" on="0"/>
        <pt x="159" y="498" on="0"/>
        <pt x="252" y="538" on="0"/>
        <pt x="304" y="538" on="1"/>
        <pt x="352" y="538" on="0"/>
        <pt x="435" y="502" on="0"/>
        <pt x="495" y="435" on="0"/>
        <pt x="529" y="338" on="0"/>
        <pt x="529" y="278" on="1"/>
        <pt x="529" y="211" on="0"/>
        <pt x="489" y="103" on="0"/>
        <pt x="422" y="28" on="0"/>
        <pt x="330" y="-12" on="0"/>
      </contour>
      <contour>
        <pt x="286" y="470" on="1"/>
        <pt x="217" y="470" on="0"/>
        <pt x="137" y="366" on="0"/>
        <pt x="137" y="269" on="1"/>
        <pt x="137" y="168" on="0"/>
        <pt x="226" y="57" on="0"/>
        <pt x="295" y="57" on="1"/>
        <pt x="364" y="57" on="0"/>
        <pt x="444" y="161" on="0"/>
        <pt x="444" y="258" on="1"/>
        <pt x="444" y="359" on="0"/>
        <pt x="355" y="470" on="0"/>
      </contour>
    </TTGlyph>
    <TTGlyph name="P" xMin="97" yMin="0" xMax="507" yMax="629">
      <contour>
        <pt x="182" y="0" on="1"/>
        <pt x="97" y="0" on="1"/>
        <pt x="97" y="619" on="1"/>
        <pt x="132" y="624" on="0"/>
        <pt x="197" y="629" on="0"/>
        <pt x="226" y="629" on="1"/>
        <pt x="363" y="629" on="0"/>
        <pt x="507" y="524" on="0"/>
        <pt x="507" y="430" on="1"/>
        <pt x="507" y="374" on="0"/>
        <pt x="459" y="291" on="0"/>
        <pt x="374" y="235" on="0"/>
        <pt x="254" y="203" on="0"/>
        <pt x="182" y="198" on="1"/>
      </contour>
      <contour>
        <pt x="238" y="274" on="1"/>
        <pt x="328" y="274" on="0"/>
        <pt x="421" y="340" on="0"/>
        <pt x="421" y="412" on="1"/>
        <pt x="421" y="481" on="0"/>
        <pt x="329" y="555" on="0"/>
        <pt x="238" y="555" on="1"/>
        <pt x="225" y="555" on="0"/>
        <pt x="197" y="553" on="0"/>
        <pt x="182" y="552" on="1"/>
        <pt x="182" y="277" on="1"/>
        <pt x="197" y="276" on="0"/>
        <pt x="225" y="274" on="0"/>
      </contour>
    </TTGlyph>
    <TTGlyph name="P.sc" xMin="88" yMin="0" xMax="459" yMax="535">
      <contour>
        <pt x="172" y="0" on="1"/>
        <pt x="88" y="0" on="1"/>
        <pt x="88" y="526" on="1"/>
        <pt x="120" y="530" on="0"/>
        <pt x="179" y="535" on="0"/>
        <pt x="206" y="535" on="1"/>
        <pt x="331" y="535" on="0"/>
        <pt x="459" y="446" on="0"/>
        <pt x="459" y="365" on="1"/>
        <pt x="459" y="317" on="0"/>
        <pt x="416" y="246" on="0"/>
        <pt x="341" y="198" on="0"/>
        <pt x="235" y="170" on="0"/>
        <pt x="172" y="165" on="1"/>
      </contour>
      <contour>
        <pt x="220" y="234" on="1"/>
        <pt x="297" y="234" on="0"/>
        <pt x="374" y="288" on="0"/>
        <pt x="374" y="348" on="1"/>
        <pt x="374" y="404" on="0"/>
        <pt x="297" y="466" on="0"/>
        <pt x="219" y="466" on="1"/>
        <pt x="209" y="466" on="0"/>
        <pt x="185" y="464" on="0"/>
        <pt x="172" y="463" on="1"/>
        <pt x="172" y="236" on="1"/>
        <pt x="185" y="235" on="0"/>
        <pt x="209" y="234" on="0"/>
      </contour>
    </TTGlyph>
    <TTGlyph name="Q" xMin="57" yMin="-140" xMax="588" yMax="634">
      <contour>
        <pt x="523" y="-140" on="1"/>
        <pt x="265" y="-60" on="1"/>
        <pt x="284" y="-13" on="1"/>
        <pt x="235" y="-8" on="0"/>
        <pt x="151" y="39" on="0"/>
        <pt x="91" y="117" on="0"/>
        <pt x="57" y="227" on="0"/>
        <pt x="57" y="294" on="1"/>
        <pt x="57" y="373" on="0"/>
        <pt x="101" y="499" on="0"/>
        <pt x="177" y="587" on="0"/>
        <pt x="280" y="634" on="0"/>
        <pt x="337" y="634" on="1"/>
        <pt x="391" y="634" on="0"/>
        <pt x="484" y="591" on="0"/>
        <pt x="550" y="512" on="0"/>
        <pt x="588" y="397" on="0"/>
        <pt x="588" y="326" on="1"/>
        <pt x="588" y="258" on="0"/>
        <pt x="555" y="145" on="0"/>
        <pt x="496" y="60" on="0"/>
        <pt x="416" y="4" on="0"/>
        <pt x="369" y="-7" on="1"/>
        <pt x="368" y="-9" on="1"/>
        <pt x="551" y="-63" on="1"/>
      </contour>
      <contour>
        <pt x="318" y="560" on="1"/>
        <pt x="238" y="560" on="0"/>
        <pt x="143" y="433" on="0"/>
        <pt x="143" y="317" on="1"/>
        <pt x="143" y="195" on="0"/>
        <pt x="247" y="59" on="0"/>
        <pt x="328" y="59" on="1"/>
        <pt x="409" y="59" on="0"/>
        <pt x="503" y="186" on="0"/>
        <pt x="503" y="303" on="1"/>
        <pt x="503" y="425" on="0"/>
        <pt x="399" y="560" on="0"/>
      </contour>
    </TTGlyph>
    <TTGlyph name="Q.sc" xMin="52" yMin="-130" xMax="529" yMax="538">
      <contour>
        <pt x="470" y="-130" on="1"/>
        <pt x="237" y="-59" on="1"/>
        <pt x="256" y="-11" on="1"/>
        <pt x="166" y="-3" on="0"/>
        <pt x="52" y="135" on="0"/>
        <pt x="52" y="249" on="1"/>
        <pt x="52" y="316" on="0"/>
        <pt x="92" y="424" on="0"/>
        <pt x="159" y="498" on="0"/>
        <pt x="252" y="538" on="0"/>
        <pt x="304" y="538" on="1"/>
        <pt x="352" y="538" on="0"/>
        <pt x="435" y="502" on="0"/>
        <pt x="495" y="435" on="0"/>
        <pt x="529" y="338" on="0"/>
        <pt x="529" y="278" on="1"/>
        <pt x="529" y="162" on="0"/>
        <pt x="417" y="13" on="0"/>
        <pt x="333" y="-6" on="1"/>
        <pt x="332" y="-9" on="1"/>
        <pt x="497" y="-56" on="1"/>
      </contour>
      <contour>
        <pt x="286" y="470" on="1"/>
        <pt x="217" y="470" on="0"/>
        <pt x="137" y="366" on="0"/>
        <pt x="137" y="269" on="1"/>
        <pt x="137" y="168" on="0"/>
        <pt x="226" y="56" on="0"/>
        <pt x="295" y="56" on="1"/>
        <pt x="364" y="56" on="0"/>
        <pt x="444" y="160" on="0"/>
        <pt x="444" y="258" on="1"/>
        <pt x="444" y="359" on="0"/>
        <pt x="355" y="470" on="0"/>
      </contour>
    </TTGlyph>
    <TTGlyph name="R" xMin="97" yMin="-10" xMax="548" yMax="630">
      <contour>
        <pt x="457" y="-10" on="1"/>
        <pt x="315" y="227" on="1"/>
        <pt x="182" y="224" on="1"/>
        <pt x="182" y="0" on="1"/>
        <pt x="97" y="0" on="1"/>
        <pt x="97" y="619" on="1"/>
        <pt x="135" y="624" on="0"/>
        <pt x="204" y="630" on="0"/>
        <pt x="235" y="630" on="1"/>
        <pt x="376" y="630" on="0"/>
        <pt x="499" y="528" on="0"/>
        <pt x="499" y="450" on="1"/>
        <pt x="499" y="389" on="0"/>
        <pt x="434" y="300" on="0"/>
        <pt x="387" y="268" on="1"/>
        <pt x="548" y="5" on="1"/>
      </contour>
      <contour>
        <pt x="182" y="551" on="1"/>
        <pt x="182" y="289" on="1"/>
        <pt x="328" y="292" on="1"/>
        <pt x="366" y="316" on="0"/>
        <pt x="414" y="386" on="0"/>
        <pt x="414" y="432" on="1"/>
        <pt x="414" y="489" on="0"/>
        <pt x="333" y="556" on="0"/>
        <pt x="249" y="556" on="1"/>
        <pt x="234" y="556" on="0"/>
        <pt x="200" y="553" on="0"/>
      </contour>
    </TTGlyph>
    <TTGlyph name="R.sc" xMin="88" yMin="-8" xMax="496" yMax="535">
      <contour>
        <pt x="406" y="-8" on="1"/>
        <pt x="283" y="190" on="1"/>
        <pt x="172" y="188" on="1"/>
        <pt x="172" y="0" on="1"/>
        <pt x="88" y="0" on="1"/>
        <pt x="88" y="526" on="1"/>
        <pt x="122" y="530" on="0"/>
        <pt x="184" y="535" on="0"/>
        <pt x="211" y="535" on="1"/>
        <pt x="341" y="535" on="0"/>
        <pt x="452" y="448" on="0"/>
        <pt x="452" y="382" on="1"/>
        <pt x="452" y="330" on="0"/>
        <pt x="395" y="256" on="0"/>
        <pt x="353" y="229" on="1"/>
        <pt x="496" y="4" on="1"/>
      </contour>
      <contour>
        <pt x="172" y="463" on="1"/>
        <pt x="172" y="247" on="1"/>
        <pt x="295" y="249" on="1"/>
        <pt x="328" y="269" on="0"/>
        <pt x="368" y="328" on="0"/>
        <pt x="368" y="364" on="1"/>
        <pt x="368" y="412" on="0"/>
        <pt x="301" y="467" on="0"/>
        <pt x="229" y="467" on="1"/>
        <pt x="216" y="467" on="0"/>
        <pt x="188" y="465" on="0"/>
      </contour>
    </TTGlyph>
    <TTGlyph name="R_p" xMin="90" yMin="-172" xMax="893" yMax="630">
      <contour>
        <pt x="388" y="-10" on="1"/>
        <pt x="279" y="227" on="1"/>
        <pt x="175" y="224" on="1"/>
        <pt x="175" y="0" on="1"/>
        <pt x="90" y="0" on="1"/>
        <pt x="90" y="619" on="1"/>
        <pt x="124" y="624" on="0"/>
        <pt x="187" y="630" on="0"/>
        <pt x="214" y="630" on="1"/>
        <pt x="340" y="630" on="0"/>
        <pt x="447" y="528" on="0"/>
        <pt x="447" y="450" on="1"/>
        <pt x="447" y="390" on="0"/>
        <pt x="390" y="301" on="0"/>
        <pt x="349" y="269" on="1"/>
        <pt x="475" y="5" on="1"/>
      </contour>
      <contour>
        <pt x="175" y="551" on="1"/>
        <pt x="175" y="289" on="1"/>
        <pt x="293" y="292" on="1"/>
        <pt x="324" y="316" on="0"/>
        <pt x="361" y="386" on="0"/>
        <pt x="361" y="432" on="1"/>
        <pt x="361" y="489" on="0"/>
        <pt x="300" y="556" on="0"/>
        <pt x="231" y="556" on="1"/>
        <pt x="218" y="556" on="0"/>
        <pt x="191" y="553" on="0"/>
      </contour>
      <contour>
        <pt x="689" y="62" on="1"/>
        <pt x="743" y="62" on="0"/>
        <pt x="812" y="147" on="0"/>
        <pt x="812" y="241" on="1"/>
        <pt x="812" y="337" on="0"/>
        <pt x="749" y="434" on="0"/>
        <pt x="700" y="434" on="1"/>
        <pt x="677" y="434" on="0"/>
        <pt x="631" y="414" on="0"/>
        <pt x="611" y="398" on="1"/>
        <pt x="612" y="338" on="0"/>
        <pt x="615" y="191" on="0"/>
        <pt x="615" y="76" on="1"/>
        <pt x="634" y="69" on="0"/>
        <pt x="670" y="62" on="0"/>
      </contour>
      <contour>
        <pt x="615" y="-165" on="1"/>
        <pt x="532" y="-172" on="1"/>
        <pt x="532" y="0" on="1"/>
        <pt x="532" y="187" on="0"/>
        <pt x="529" y="413" on="0"/>
        <pt x="525" y="488" on="1"/>
        <pt x="601" y="493" on="1"/>
        <pt x="606" y="448" on="1"/>
        <pt x="629" y="470" on="0"/>
        <pt x="692" y="503" on="0"/>
        <pt x="730" y="503" on="1"/>
        <pt x="802" y="503" on="0"/>
        <pt x="893" y="376" on="0"/>
        <pt x="893" y="266" on="1"/>
        <pt x="893" y="197" on="0"/>
        <pt x="855" y="92" on="0"/>
        <pt x="789" y="22" on="0"/>
        <pt x="698" y="-13" on="0"/>
        <pt x="645" y="-13" on="1"/>
        <pt x="638" y="-13" on="0"/>
        <pt x="622" y="-12" on="0"/>
        <pt x="615" y="-11" on="1"/>
      </contour>
    </TTGlyph>
</ttFont>
